G04 #@! TF.GenerationSoftware,KiCad,Pcbnew,5.1.8-db9833491~87~ubuntu20.04.1*
G04 #@! TF.CreationDate,2020-11-24T17:51:12+00:00*
G04 #@! TF.ProjectId,LEDring,4c454472-696e-4672-9e6b-696361645f70,rev?*
G04 #@! TF.SameCoordinates,Original*
G04 #@! TF.FileFunction,Soldermask,Top*
G04 #@! TF.FilePolarity,Negative*
%FSLAX46Y46*%
G04 Gerber Fmt 4.6, Leading zero omitted, Abs format (unit mm)*
G04 Created by KiCad (PCBNEW 5.1.8-db9833491~87~ubuntu20.04.1) date 2020-11-24 17:51:12*
%MOMM*%
%LPD*%
G01*
G04 APERTURE LIST*
%ADD10R,0.900000X0.800000*%
%ADD11C,3.200000*%
%ADD12R,0.800000X0.900000*%
%ADD13C,0.100000*%
G04 APERTURE END LIST*
D10*
G04 #@! TO.C,Q1*
X188960000Y-88580000D03*
X188960000Y-86680000D03*
X186960000Y-87630000D03*
G04 #@! TD*
G04 #@! TO.C,R2*
G36*
G01*
X189580000Y-85346250D02*
X189580000Y-84833750D01*
G75*
G02*
X189798750Y-84615000I218750J0D01*
G01*
X190236250Y-84615000D01*
G75*
G02*
X190455000Y-84833750I0J-218750D01*
G01*
X190455000Y-85346250D01*
G75*
G02*
X190236250Y-85565000I-218750J0D01*
G01*
X189798750Y-85565000D01*
G75*
G02*
X189580000Y-85346250I0J218750D01*
G01*
G37*
G36*
G01*
X188005000Y-85346250D02*
X188005000Y-84833750D01*
G75*
G02*
X188223750Y-84615000I218750J0D01*
G01*
X188661250Y-84615000D01*
G75*
G02*
X188880000Y-84833750I0J-218750D01*
G01*
X188880000Y-85346250D01*
G75*
G02*
X188661250Y-85565000I-218750J0D01*
G01*
X188223750Y-85565000D01*
G75*
G02*
X188005000Y-85346250I0J218750D01*
G01*
G37*
G04 #@! TD*
G04 #@! TO.C,R4*
G36*
G01*
X190995000Y-69225000D02*
X190995000Y-70475000D01*
G75*
G02*
X190745000Y-70725000I-250000J0D01*
G01*
X189995000Y-70725000D01*
G75*
G02*
X189745000Y-70475000I0J250000D01*
G01*
X189745000Y-69225000D01*
G75*
G02*
X189995000Y-68975000I250000J0D01*
G01*
X190745000Y-68975000D01*
G75*
G02*
X190995000Y-69225000I0J-250000D01*
G01*
G37*
G36*
G01*
X193795000Y-69225000D02*
X193795000Y-70475000D01*
G75*
G02*
X193545000Y-70725000I-250000J0D01*
G01*
X192795000Y-70725000D01*
G75*
G02*
X192545000Y-70475000I0J250000D01*
G01*
X192545000Y-69225000D01*
G75*
G02*
X192795000Y-68975000I250000J0D01*
G01*
X193545000Y-68975000D01*
G75*
G02*
X193795000Y-69225000I0J-250000D01*
G01*
G37*
G04 #@! TD*
G04 #@! TO.C,R6*
G36*
G01*
X184775000Y-92195000D02*
X183525000Y-92195000D01*
G75*
G02*
X183275000Y-91945000I0J250000D01*
G01*
X183275000Y-91195000D01*
G75*
G02*
X183525000Y-90945000I250000J0D01*
G01*
X184775000Y-90945000D01*
G75*
G02*
X185025000Y-91195000I0J-250000D01*
G01*
X185025000Y-91945000D01*
G75*
G02*
X184775000Y-92195000I-250000J0D01*
G01*
G37*
G36*
G01*
X184775000Y-89395000D02*
X183525000Y-89395000D01*
G75*
G02*
X183275000Y-89145000I0J250000D01*
G01*
X183275000Y-88395000D01*
G75*
G02*
X183525000Y-88145000I250000J0D01*
G01*
X184775000Y-88145000D01*
G75*
G02*
X185025000Y-88395000I0J-250000D01*
G01*
X185025000Y-89145000D01*
G75*
G02*
X184775000Y-89395000I-250000J0D01*
G01*
G37*
G04 #@! TD*
G04 #@! TO.C,R8*
G36*
G01*
X164605000Y-83175000D02*
X164605000Y-81925000D01*
G75*
G02*
X164855000Y-81675000I250000J0D01*
G01*
X165605000Y-81675000D01*
G75*
G02*
X165855000Y-81925000I0J-250000D01*
G01*
X165855000Y-83175000D01*
G75*
G02*
X165605000Y-83425000I-250000J0D01*
G01*
X164855000Y-83425000D01*
G75*
G02*
X164605000Y-83175000I0J250000D01*
G01*
G37*
G36*
G01*
X161805000Y-83175000D02*
X161805000Y-81925000D01*
G75*
G02*
X162055000Y-81675000I250000J0D01*
G01*
X162805000Y-81675000D01*
G75*
G02*
X163055000Y-81925000I0J-250000D01*
G01*
X163055000Y-83175000D01*
G75*
G02*
X162805000Y-83425000I-250000J0D01*
G01*
X162055000Y-83425000D01*
G75*
G02*
X161805000Y-83175000I0J250000D01*
G01*
G37*
G04 #@! TD*
G04 #@! TO.C,R10*
G36*
G01*
X170825000Y-60075000D02*
X172075000Y-60075000D01*
G75*
G02*
X172325000Y-60325000I0J-250000D01*
G01*
X172325000Y-61075000D01*
G75*
G02*
X172075000Y-61325000I-250000J0D01*
G01*
X170825000Y-61325000D01*
G75*
G02*
X170575000Y-61075000I0J250000D01*
G01*
X170575000Y-60325000D01*
G75*
G02*
X170825000Y-60075000I250000J0D01*
G01*
G37*
G36*
G01*
X170825000Y-62875000D02*
X172075000Y-62875000D01*
G75*
G02*
X172325000Y-63125000I0J-250000D01*
G01*
X172325000Y-63875000D01*
G75*
G02*
X172075000Y-64125000I-250000J0D01*
G01*
X170825000Y-64125000D01*
G75*
G02*
X170575000Y-63875000I0J250000D01*
G01*
X170575000Y-63125000D01*
G75*
G02*
X170825000Y-62875000I250000J0D01*
G01*
G37*
G04 #@! TD*
G04 #@! TO.C,C1*
G36*
G01*
X193795000Y-81925000D02*
X193795000Y-83175000D01*
G75*
G02*
X193545000Y-83425000I-250000J0D01*
G01*
X192795000Y-83425000D01*
G75*
G02*
X192545000Y-83175000I0J250000D01*
G01*
X192545000Y-81925000D01*
G75*
G02*
X192795000Y-81675000I250000J0D01*
G01*
X193545000Y-81675000D01*
G75*
G02*
X193795000Y-81925000I0J-250000D01*
G01*
G37*
G36*
G01*
X190995000Y-81925000D02*
X190995000Y-83175000D01*
G75*
G02*
X190745000Y-83425000I-250000J0D01*
G01*
X189995000Y-83425000D01*
G75*
G02*
X189745000Y-83175000I0J250000D01*
G01*
X189745000Y-81925000D01*
G75*
G02*
X189995000Y-81675000I250000J0D01*
G01*
X190745000Y-81675000D01*
G75*
G02*
X190995000Y-81925000I0J-250000D01*
G01*
G37*
G04 #@! TD*
G04 #@! TO.C,C2*
G36*
G01*
X172075000Y-89395000D02*
X170825000Y-89395000D01*
G75*
G02*
X170575000Y-89145000I0J250000D01*
G01*
X170575000Y-88395000D01*
G75*
G02*
X170825000Y-88145000I250000J0D01*
G01*
X172075000Y-88145000D01*
G75*
G02*
X172325000Y-88395000I0J-250000D01*
G01*
X172325000Y-89145000D01*
G75*
G02*
X172075000Y-89395000I-250000J0D01*
G01*
G37*
G36*
G01*
X172075000Y-92195000D02*
X170825000Y-92195000D01*
G75*
G02*
X170575000Y-91945000I0J250000D01*
G01*
X170575000Y-91195000D01*
G75*
G02*
X170825000Y-90945000I250000J0D01*
G01*
X172075000Y-90945000D01*
G75*
G02*
X172325000Y-91195000I0J-250000D01*
G01*
X172325000Y-91945000D01*
G75*
G02*
X172075000Y-92195000I-250000J0D01*
G01*
G37*
G04 #@! TD*
G04 #@! TO.C,C3*
G36*
G01*
X161805000Y-70475000D02*
X161805000Y-69225000D01*
G75*
G02*
X162055000Y-68975000I250000J0D01*
G01*
X162805000Y-68975000D01*
G75*
G02*
X163055000Y-69225000I0J-250000D01*
G01*
X163055000Y-70475000D01*
G75*
G02*
X162805000Y-70725000I-250000J0D01*
G01*
X162055000Y-70725000D01*
G75*
G02*
X161805000Y-70475000I0J250000D01*
G01*
G37*
G36*
G01*
X164605000Y-70475000D02*
X164605000Y-69225000D01*
G75*
G02*
X164855000Y-68975000I250000J0D01*
G01*
X165605000Y-68975000D01*
G75*
G02*
X165855000Y-69225000I0J-250000D01*
G01*
X165855000Y-70475000D01*
G75*
G02*
X165605000Y-70725000I-250000J0D01*
G01*
X164855000Y-70725000D01*
G75*
G02*
X164605000Y-70475000I0J250000D01*
G01*
G37*
G04 #@! TD*
G04 #@! TO.C,C4*
G36*
G01*
X183525000Y-62875000D02*
X184775000Y-62875000D01*
G75*
G02*
X185025000Y-63125000I0J-250000D01*
G01*
X185025000Y-63875000D01*
G75*
G02*
X184775000Y-64125000I-250000J0D01*
G01*
X183525000Y-64125000D01*
G75*
G02*
X183275000Y-63875000I0J250000D01*
G01*
X183275000Y-63125000D01*
G75*
G02*
X183525000Y-62875000I250000J0D01*
G01*
G37*
G36*
G01*
X183525000Y-60075000D02*
X184775000Y-60075000D01*
G75*
G02*
X185025000Y-60325000I0J-250000D01*
G01*
X185025000Y-61075000D01*
G75*
G02*
X184775000Y-61325000I-250000J0D01*
G01*
X183525000Y-61325000D01*
G75*
G02*
X183275000Y-61075000I0J250000D01*
G01*
X183275000Y-60325000D01*
G75*
G02*
X183525000Y-60075000I250000J0D01*
G01*
G37*
G04 #@! TD*
D11*
G04 #@! TO.C,H1*
X160020000Y-58420000D03*
G04 #@! TD*
G04 #@! TO.C,H2*
X160020000Y-93980000D03*
G04 #@! TD*
G04 #@! TO.C,H3*
X195580000Y-58420000D03*
G04 #@! TD*
G04 #@! TO.C,H4*
X195580000Y-93980000D03*
G04 #@! TD*
G04 #@! TO.C,J1*
G36*
G01*
X200045000Y-71620000D02*
X200045000Y-70620000D01*
G75*
G02*
X200545000Y-70120000I500000J0D01*
G01*
X202545000Y-70120000D01*
G75*
G02*
X203045000Y-70620000I0J-500000D01*
G01*
X203045000Y-71620000D01*
G75*
G02*
X202545000Y-72120000I-500000J0D01*
G01*
X200545000Y-72120000D01*
G75*
G02*
X200045000Y-71620000I0J500000D01*
G01*
G37*
G36*
G01*
X200045000Y-76700000D02*
X200045000Y-75700000D01*
G75*
G02*
X200545000Y-75200000I500000J0D01*
G01*
X202545000Y-75200000D01*
G75*
G02*
X203045000Y-75700000I0J-500000D01*
G01*
X203045000Y-76700000D01*
G75*
G02*
X202545000Y-77200000I-500000J0D01*
G01*
X200545000Y-77200000D01*
G75*
G02*
X200045000Y-76700000I0J500000D01*
G01*
G37*
G36*
G01*
X203355000Y-74160000D02*
X203355000Y-73160000D01*
G75*
G02*
X203855000Y-72660000I500000J0D01*
G01*
X205855000Y-72660000D01*
G75*
G02*
X206355000Y-73160000I0J-500000D01*
G01*
X206355000Y-74160000D01*
G75*
G02*
X205855000Y-74660000I-500000J0D01*
G01*
X203855000Y-74660000D01*
G75*
G02*
X203355000Y-74160000I0J500000D01*
G01*
G37*
G36*
G01*
X203355000Y-79240000D02*
X203355000Y-78240000D01*
G75*
G02*
X203855000Y-77740000I500000J0D01*
G01*
X205855000Y-77740000D01*
G75*
G02*
X206355000Y-78240000I0J-500000D01*
G01*
X206355000Y-79240000D01*
G75*
G02*
X205855000Y-79740000I-500000J0D01*
G01*
X203855000Y-79740000D01*
G75*
G02*
X203355000Y-79240000I0J500000D01*
G01*
G37*
G04 #@! TD*
D12*
G04 #@! TO.C,Q2*
X166370000Y-85360000D03*
X167320000Y-87360000D03*
X165420000Y-87360000D03*
G04 #@! TD*
D10*
G04 #@! TO.C,Q3*
X168640000Y-64770000D03*
X166640000Y-65720000D03*
X166640000Y-63820000D03*
G04 #@! TD*
D12*
G04 #@! TO.C,Q4*
X190180000Y-65040000D03*
X188280000Y-65040000D03*
X189230000Y-67040000D03*
G04 #@! TD*
G04 #@! TO.C,R3*
G36*
G01*
X193815000Y-88255000D02*
X193815000Y-87005000D01*
G75*
G02*
X194065000Y-86755000I250000J0D01*
G01*
X194815000Y-86755000D01*
G75*
G02*
X195065000Y-87005000I0J-250000D01*
G01*
X195065000Y-88255000D01*
G75*
G02*
X194815000Y-88505000I-250000J0D01*
G01*
X194065000Y-88505000D01*
G75*
G02*
X193815000Y-88255000I0J250000D01*
G01*
G37*
G36*
G01*
X191015000Y-88255000D02*
X191015000Y-87005000D01*
G75*
G02*
X191265000Y-86755000I250000J0D01*
G01*
X192015000Y-86755000D01*
G75*
G02*
X192265000Y-87005000I0J-250000D01*
G01*
X192265000Y-88255000D01*
G75*
G02*
X192015000Y-88505000I-250000J0D01*
G01*
X191265000Y-88505000D01*
G75*
G02*
X191015000Y-88255000I0J250000D01*
G01*
G37*
G04 #@! TD*
G04 #@! TO.C,R5*
G36*
G01*
X165745000Y-89415000D02*
X166995000Y-89415000D01*
G75*
G02*
X167245000Y-89665000I0J-250000D01*
G01*
X167245000Y-90415000D01*
G75*
G02*
X166995000Y-90665000I-250000J0D01*
G01*
X165745000Y-90665000D01*
G75*
G02*
X165495000Y-90415000I0J250000D01*
G01*
X165495000Y-89665000D01*
G75*
G02*
X165745000Y-89415000I250000J0D01*
G01*
G37*
G36*
G01*
X165745000Y-92215000D02*
X166995000Y-92215000D01*
G75*
G02*
X167245000Y-92465000I0J-250000D01*
G01*
X167245000Y-93215000D01*
G75*
G02*
X166995000Y-93465000I-250000J0D01*
G01*
X165745000Y-93465000D01*
G75*
G02*
X165495000Y-93215000I0J250000D01*
G01*
X165495000Y-92465000D01*
G75*
G02*
X165745000Y-92215000I250000J0D01*
G01*
G37*
G04 #@! TD*
G04 #@! TO.C,R7*
G36*
G01*
X161785000Y-64145000D02*
X161785000Y-65395000D01*
G75*
G02*
X161535000Y-65645000I-250000J0D01*
G01*
X160785000Y-65645000D01*
G75*
G02*
X160535000Y-65395000I0J250000D01*
G01*
X160535000Y-64145000D01*
G75*
G02*
X160785000Y-63895000I250000J0D01*
G01*
X161535000Y-63895000D01*
G75*
G02*
X161785000Y-64145000I0J-250000D01*
G01*
G37*
G36*
G01*
X164585000Y-64145000D02*
X164585000Y-65395000D01*
G75*
G02*
X164335000Y-65645000I-250000J0D01*
G01*
X163585000Y-65645000D01*
G75*
G02*
X163335000Y-65395000I0J250000D01*
G01*
X163335000Y-64145000D01*
G75*
G02*
X163585000Y-63895000I250000J0D01*
G01*
X164335000Y-63895000D01*
G75*
G02*
X164585000Y-64145000I0J-250000D01*
G01*
G37*
G04 #@! TD*
G04 #@! TO.C,R9*
G36*
G01*
X189855000Y-62985000D02*
X188605000Y-62985000D01*
G75*
G02*
X188355000Y-62735000I0J250000D01*
G01*
X188355000Y-61985000D01*
G75*
G02*
X188605000Y-61735000I250000J0D01*
G01*
X189855000Y-61735000D01*
G75*
G02*
X190105000Y-61985000I0J-250000D01*
G01*
X190105000Y-62735000D01*
G75*
G02*
X189855000Y-62985000I-250000J0D01*
G01*
G37*
G36*
G01*
X189855000Y-60185000D02*
X188605000Y-60185000D01*
G75*
G02*
X188355000Y-59935000I0J250000D01*
G01*
X188355000Y-59185000D01*
G75*
G02*
X188605000Y-58935000I250000J0D01*
G01*
X189855000Y-58935000D01*
G75*
G02*
X190105000Y-59185000I0J-250000D01*
G01*
X190105000Y-59935000D01*
G75*
G02*
X189855000Y-60185000I-250000J0D01*
G01*
G37*
G04 #@! TD*
D13*
G04 #@! TO.C,D1*
G36*
X187243313Y-71556218D02*
G01*
X186543313Y-70343782D01*
X188275363Y-69343782D01*
X188975363Y-70556218D01*
X187243313Y-71556218D01*
G37*
G36*
X184645237Y-73056218D02*
G01*
X183945237Y-71843782D01*
X185677287Y-70843782D01*
X186377287Y-72056218D01*
X184645237Y-73056218D01*
G37*
G04 #@! TD*
G04 #@! TO.C,D2*
G36*
X189539355Y-71848245D02*
G01*
X189951011Y-73186355D01*
X188039425Y-73774435D01*
X187627769Y-72436325D01*
X189539355Y-71848245D01*
G37*
G36*
X186671975Y-72730365D02*
G01*
X187083631Y-74068475D01*
X185172045Y-74656555D01*
X184760389Y-73318445D01*
X186671975Y-72730365D01*
G37*
G04 #@! TD*
G04 #@! TO.C,D3*
G36*
X188323078Y-76113240D02*
G01*
X188218108Y-74717181D01*
X190212478Y-74567224D01*
X190317448Y-75963283D01*
X188323078Y-76113240D01*
G37*
G36*
X185331522Y-76338176D02*
G01*
X185226552Y-74942117D01*
X187220922Y-74792160D01*
X187325892Y-76188219D01*
X185331522Y-76338176D01*
G37*
G04 #@! TD*
G04 #@! TO.C,D4*
G36*
X190264866Y-77372109D02*
G01*
X190055517Y-78756368D01*
X188078004Y-78457297D01*
X188287353Y-77073038D01*
X190264866Y-77372109D01*
G37*
G36*
X187298596Y-76923503D02*
G01*
X187089247Y-78307762D01*
X185111734Y-78008691D01*
X185321083Y-76624432D01*
X187298596Y-76923503D01*
G37*
G04 #@! TD*
G04 #@! TO.C,D5*
G36*
X187318814Y-80687577D02*
G01*
X187829642Y-79384099D01*
X189691754Y-80113853D01*
X189180926Y-81417331D01*
X187318814Y-80687577D01*
G37*
G36*
X184525646Y-79592947D02*
G01*
X185036474Y-78289469D01*
X186898586Y-79019223D01*
X186387758Y-80322701D01*
X184525646Y-79592947D01*
G37*
G04 #@! TD*
G04 #@! TO.C,D6*
G36*
X188522114Y-82663746D02*
G01*
X187733177Y-83820284D01*
X186080980Y-82693232D01*
X186869917Y-81536694D01*
X188522114Y-82663746D01*
G37*
G36*
X186043820Y-80973168D02*
G01*
X185254883Y-82129706D01*
X183602686Y-81002654D01*
X184391623Y-79846116D01*
X186043820Y-80973168D01*
G37*
G04 #@! TD*
G04 #@! TO.C,D8*
G36*
X182443782Y-85643313D02*
G01*
X183656218Y-84943313D01*
X184656218Y-86675363D01*
X183443782Y-87375363D01*
X182443782Y-85643313D01*
G37*
G36*
X180943782Y-83045237D02*
G01*
X182156218Y-82345237D01*
X183156218Y-84077287D01*
X181943782Y-84777287D01*
X180943782Y-83045237D01*
G37*
G04 #@! TD*
G04 #@! TO.C,D9*
G36*
X182151755Y-87939355D02*
G01*
X180813645Y-88351011D01*
X180225565Y-86439425D01*
X181563675Y-86027769D01*
X182151755Y-87939355D01*
G37*
G36*
X181269635Y-85071975D02*
G01*
X179931525Y-85483631D01*
X179343445Y-83572045D01*
X180681555Y-83160389D01*
X181269635Y-85071975D01*
G37*
G04 #@! TD*
G04 #@! TO.C,D10*
G36*
X177886760Y-86723078D02*
G01*
X179282819Y-86618108D01*
X179432776Y-88612478D01*
X178036717Y-88717448D01*
X177886760Y-86723078D01*
G37*
G36*
X177661824Y-83731522D02*
G01*
X179057883Y-83626552D01*
X179207840Y-85620922D01*
X177811781Y-85725892D01*
X177661824Y-83731522D01*
G37*
G04 #@! TD*
G04 #@! TO.C,D11*
G36*
X176627891Y-88664866D02*
G01*
X175243632Y-88455517D01*
X175542703Y-86478004D01*
X176926962Y-86687353D01*
X176627891Y-88664866D01*
G37*
G36*
X177076497Y-85698596D02*
G01*
X175692238Y-85489247D01*
X175991309Y-83511734D01*
X177375568Y-83721083D01*
X177076497Y-85698596D01*
G37*
G04 #@! TD*
G04 #@! TO.C,D12*
G36*
X173312423Y-85718814D02*
G01*
X174615901Y-86229642D01*
X173886147Y-88091754D01*
X172582669Y-87580926D01*
X173312423Y-85718814D01*
G37*
G36*
X174407053Y-82925646D02*
G01*
X175710531Y-83436474D01*
X174980777Y-85298586D01*
X173677299Y-84787758D01*
X174407053Y-82925646D01*
G37*
G04 #@! TD*
G04 #@! TO.C,D13*
G36*
X171336254Y-86922114D02*
G01*
X170179716Y-86133177D01*
X171306768Y-84480980D01*
X172463306Y-85269917D01*
X171336254Y-86922114D01*
G37*
G36*
X173026832Y-84443820D02*
G01*
X171870294Y-83654883D01*
X172997346Y-82002686D01*
X174153884Y-82791623D01*
X173026832Y-84443820D01*
G37*
G04 #@! TD*
G04 #@! TO.C,D15*
G36*
X168356687Y-80843782D02*
G01*
X169056687Y-82056218D01*
X167324637Y-83056218D01*
X166624637Y-81843782D01*
X168356687Y-80843782D01*
G37*
G36*
X170954763Y-79343782D02*
G01*
X171654763Y-80556218D01*
X169922713Y-81556218D01*
X169222713Y-80343782D01*
X170954763Y-79343782D01*
G37*
G04 #@! TD*
G04 #@! TO.C,D16*
G36*
X166060645Y-80551755D02*
G01*
X165648989Y-79213645D01*
X167560575Y-78625565D01*
X167972231Y-79963675D01*
X166060645Y-80551755D01*
G37*
G36*
X168928025Y-79669635D02*
G01*
X168516369Y-78331525D01*
X170427955Y-77743445D01*
X170839611Y-79081555D01*
X168928025Y-79669635D01*
G37*
G04 #@! TD*
G04 #@! TO.C,D17*
G36*
X167276922Y-76286760D02*
G01*
X167381892Y-77682819D01*
X165387522Y-77832776D01*
X165282552Y-76436717D01*
X167276922Y-76286760D01*
G37*
G36*
X170268478Y-76061824D02*
G01*
X170373448Y-77457883D01*
X168379078Y-77607840D01*
X168274108Y-76211781D01*
X170268478Y-76061824D01*
G37*
G04 #@! TD*
G04 #@! TO.C,D18*
G36*
X165335134Y-75027891D02*
G01*
X165544483Y-73643632D01*
X167521996Y-73942703D01*
X167312647Y-75326962D01*
X165335134Y-75027891D01*
G37*
G36*
X168301404Y-75476497D02*
G01*
X168510753Y-74092238D01*
X170488266Y-74391309D01*
X170278917Y-75775568D01*
X168301404Y-75476497D01*
G37*
G04 #@! TD*
G04 #@! TO.C,D19*
G36*
X168281186Y-71712423D02*
G01*
X167770358Y-73015901D01*
X165908246Y-72286147D01*
X166419074Y-70982669D01*
X168281186Y-71712423D01*
G37*
G36*
X171074354Y-72807053D02*
G01*
X170563526Y-74110531D01*
X168701414Y-73380777D01*
X169212242Y-72077299D01*
X171074354Y-72807053D01*
G37*
G04 #@! TD*
G04 #@! TO.C,D20*
G36*
X167077886Y-69736254D02*
G01*
X167866823Y-68579716D01*
X169519020Y-69706768D01*
X168730083Y-70863306D01*
X167077886Y-69736254D01*
G37*
G36*
X169556180Y-71426832D02*
G01*
X170345117Y-70270294D01*
X171997314Y-71397346D01*
X171208377Y-72553884D01*
X169556180Y-71426832D01*
G37*
G04 #@! TD*
G04 #@! TO.C,D22*
G36*
X173156218Y-66756687D02*
G01*
X171943782Y-67456687D01*
X170943782Y-65724637D01*
X172156218Y-65024637D01*
X173156218Y-66756687D01*
G37*
G36*
X174656218Y-69354763D02*
G01*
X173443782Y-70054763D01*
X172443782Y-68322713D01*
X173656218Y-67622713D01*
X174656218Y-69354763D01*
G37*
G04 #@! TD*
G04 #@! TO.C,D23*
G36*
X173448245Y-64460645D02*
G01*
X174786355Y-64048989D01*
X175374435Y-65960575D01*
X174036325Y-66372231D01*
X173448245Y-64460645D01*
G37*
G36*
X174330365Y-67328025D02*
G01*
X175668475Y-66916369D01*
X176256555Y-68827955D01*
X174918445Y-69239611D01*
X174330365Y-67328025D01*
G37*
G04 #@! TD*
G04 #@! TO.C,D24*
G36*
X177713240Y-65676922D02*
G01*
X176317181Y-65781892D01*
X176167224Y-63787522D01*
X177563283Y-63682552D01*
X177713240Y-65676922D01*
G37*
G36*
X177938176Y-68668478D02*
G01*
X176542117Y-68773448D01*
X176392160Y-66779078D01*
X177788219Y-66674108D01*
X177938176Y-68668478D01*
G37*
G04 #@! TD*
G04 #@! TO.C,D25*
G36*
X178972109Y-63735134D02*
G01*
X180356368Y-63944483D01*
X180057297Y-65921996D01*
X178673038Y-65712647D01*
X178972109Y-63735134D01*
G37*
G36*
X178523503Y-66701404D02*
G01*
X179907762Y-66910753D01*
X179608691Y-68888266D01*
X178224432Y-68678917D01*
X178523503Y-66701404D01*
G37*
G04 #@! TD*
G04 #@! TO.C,D26*
G36*
X182287577Y-66681186D02*
G01*
X180984099Y-66170358D01*
X181713853Y-64308246D01*
X183017331Y-64819074D01*
X182287577Y-66681186D01*
G37*
G36*
X181192947Y-69474354D02*
G01*
X179889469Y-68963526D01*
X180619223Y-67101414D01*
X181922701Y-67612242D01*
X181192947Y-69474354D01*
G37*
G04 #@! TD*
G04 #@! TO.C,D27*
G36*
X184263746Y-65477886D02*
G01*
X185420284Y-66266823D01*
X184293232Y-67919020D01*
X183136694Y-67130083D01*
X184263746Y-65477886D01*
G37*
G36*
X182573168Y-67956180D02*
G01*
X183729706Y-68745117D01*
X182602654Y-70397314D01*
X181446116Y-69608377D01*
X182573168Y-67956180D01*
G37*
G04 #@! TD*
G04 #@! TO.C,R1*
G36*
G01*
X196335000Y-75575000D02*
X196335000Y-76825000D01*
G75*
G02*
X196085000Y-77075000I-250000J0D01*
G01*
X195335000Y-77075000D01*
G75*
G02*
X195085000Y-76825000I0J250000D01*
G01*
X195085000Y-75575000D01*
G75*
G02*
X195335000Y-75325000I250000J0D01*
G01*
X196085000Y-75325000D01*
G75*
G02*
X196335000Y-75575000I0J-250000D01*
G01*
G37*
G36*
G01*
X193535000Y-75575000D02*
X193535000Y-76825000D01*
G75*
G02*
X193285000Y-77075000I-250000J0D01*
G01*
X192535000Y-77075000D01*
G75*
G02*
X192285000Y-76825000I0J250000D01*
G01*
X192285000Y-75575000D01*
G75*
G02*
X192535000Y-75325000I250000J0D01*
G01*
X193285000Y-75325000D01*
G75*
G02*
X193535000Y-75575000I0J-250000D01*
G01*
G37*
G04 #@! TD*
G04 #@! TO.C,D7*
G36*
X184774120Y-82687724D02*
G01*
X183748560Y-83640734D01*
X182387118Y-82175648D01*
X183412678Y-81222638D01*
X184774120Y-82687724D01*
G37*
G36*
X186816282Y-84885352D02*
G01*
X185790722Y-85838362D01*
X184429280Y-84373276D01*
X185454840Y-83420266D01*
X186816282Y-84885352D01*
G37*
G04 #@! TD*
G04 #@! TO.C,D14*
G36*
X169114648Y-85216282D02*
G01*
X168161638Y-84190722D01*
X169626724Y-82829280D01*
X170579734Y-83854840D01*
X169114648Y-85216282D01*
G37*
G36*
X171312276Y-83174120D02*
G01*
X170359266Y-82148560D01*
X171824352Y-80787118D01*
X172777362Y-81812678D01*
X171312276Y-83174120D01*
G37*
G04 #@! TD*
G04 #@! TO.C,D21*
G36*
X170825880Y-69712276D02*
G01*
X171851440Y-68759266D01*
X173212882Y-70224352D01*
X172187322Y-71177362D01*
X170825880Y-69712276D01*
G37*
G36*
X168783718Y-67514648D02*
G01*
X169809278Y-66561638D01*
X171170720Y-68026724D01*
X170145160Y-68979734D01*
X168783718Y-67514648D01*
G37*
G04 #@! TD*
G04 #@! TO.C,D28*
G36*
X186485352Y-67183718D02*
G01*
X187438362Y-68209278D01*
X185973276Y-69570720D01*
X185020266Y-68545160D01*
X186485352Y-67183718D01*
G37*
G36*
X184287724Y-69225880D02*
G01*
X185240734Y-70251440D01*
X183775648Y-71612882D01*
X182822638Y-70587322D01*
X184287724Y-69225880D01*
G37*
G04 #@! TD*
M02*
