G04 #@! TF.GenerationSoftware,KiCad,Pcbnew,5.1.8-db9833491~87~ubuntu20.04.1*
G04 #@! TF.CreationDate,2020-11-24T17:51:12+00:00*
G04 #@! TF.ProjectId,LEDring,4c454472-696e-4672-9e6b-696361645f70,rev?*
G04 #@! TF.SameCoordinates,Original*
G04 #@! TF.FileFunction,Copper,L1,Top*
G04 #@! TF.FilePolarity,Positive*
%FSLAX46Y46*%
G04 Gerber Fmt 4.6, Leading zero omitted, Abs format (unit mm)*
G04 Created by KiCad (PCBNEW 5.1.8-db9833491~87~ubuntu20.04.1) date 2020-11-24 17:51:12*
%MOMM*%
%LPD*%
G01*
G04 APERTURE LIST*
G04 #@! TA.AperFunction,SMDPad,CuDef*
%ADD10R,0.900000X0.800000*%
G04 #@! TD*
G04 #@! TA.AperFunction,SMDPad,CuDef*
%ADD11R,0.800000X0.900000*%
G04 #@! TD*
G04 #@! TA.AperFunction,SMDPad,CuDef*
%ADD12C,0.100000*%
G04 #@! TD*
G04 #@! TA.AperFunction,Conductor*
%ADD13C,1.024000*%
G04 #@! TD*
G04 #@! TA.AperFunction,Conductor*
%ADD14C,0.712000*%
G04 #@! TD*
G04 #@! TA.AperFunction,Conductor*
%ADD15C,0.508000*%
G04 #@! TD*
G04 #@! TA.AperFunction,Conductor*
%ADD16C,0.254000*%
G04 #@! TD*
G04 #@! TA.AperFunction,Conductor*
%ADD17C,0.100000*%
G04 #@! TD*
G04 APERTURE END LIST*
D10*
G04 #@! TO.P,Q1,1*
G04 #@! TO.N,Net-(Q1-Pad1)*
X188960000Y-88580000D03*
G04 #@! TO.P,Q1,2*
G04 #@! TO.N,Net-(C1-Pad2)*
X188960000Y-86680000D03*
G04 #@! TO.P,Q1,3*
G04 #@! TO.N,Net-(D7-Pad1)*
X186960000Y-87630000D03*
G04 #@! TD*
G04 #@! TO.P,R2,2*
G04 #@! TO.N,Net-(C1-Pad2)*
G04 #@! TA.AperFunction,SMDPad,CuDef*
G36*
G01*
X189580000Y-85346250D02*
X189580000Y-84833750D01*
G75*
G02*
X189798750Y-84615000I218750J0D01*
G01*
X190236250Y-84615000D01*
G75*
G02*
X190455000Y-84833750I0J-218750D01*
G01*
X190455000Y-85346250D01*
G75*
G02*
X190236250Y-85565000I-218750J0D01*
G01*
X189798750Y-85565000D01*
G75*
G02*
X189580000Y-85346250I0J218750D01*
G01*
G37*
G04 #@! TD.AperFunction*
G04 #@! TO.P,R2,1*
G04 #@! TO.N,Net-(Q1-Pad1)*
G04 #@! TA.AperFunction,SMDPad,CuDef*
G36*
G01*
X188005000Y-85346250D02*
X188005000Y-84833750D01*
G75*
G02*
X188223750Y-84615000I218750J0D01*
G01*
X188661250Y-84615000D01*
G75*
G02*
X188880000Y-84833750I0J-218750D01*
G01*
X188880000Y-85346250D01*
G75*
G02*
X188661250Y-85565000I-218750J0D01*
G01*
X188223750Y-85565000D01*
G75*
G02*
X188005000Y-85346250I0J218750D01*
G01*
G37*
G04 #@! TD.AperFunction*
G04 #@! TD*
G04 #@! TO.P,R4,2*
G04 #@! TO.N,Net-(D1-Pad2)*
G04 #@! TA.AperFunction,SMDPad,CuDef*
G36*
G01*
X190995000Y-69225000D02*
X190995000Y-70475000D01*
G75*
G02*
X190745000Y-70725000I-250000J0D01*
G01*
X189995000Y-70725000D01*
G75*
G02*
X189745000Y-70475000I0J250000D01*
G01*
X189745000Y-69225000D01*
G75*
G02*
X189995000Y-68975000I250000J0D01*
G01*
X190745000Y-68975000D01*
G75*
G02*
X190995000Y-69225000I0J-250000D01*
G01*
G37*
G04 #@! TD.AperFunction*
G04 #@! TO.P,R4,1*
G04 #@! TO.N,+24V*
G04 #@! TA.AperFunction,SMDPad,CuDef*
G36*
G01*
X193795000Y-69225000D02*
X193795000Y-70475000D01*
G75*
G02*
X193545000Y-70725000I-250000J0D01*
G01*
X192795000Y-70725000D01*
G75*
G02*
X192545000Y-70475000I0J250000D01*
G01*
X192545000Y-69225000D01*
G75*
G02*
X192795000Y-68975000I250000J0D01*
G01*
X193545000Y-68975000D01*
G75*
G02*
X193795000Y-69225000I0J-250000D01*
G01*
G37*
G04 #@! TD.AperFunction*
G04 #@! TD*
G04 #@! TO.P,R6,1*
G04 #@! TO.N,+24V*
G04 #@! TA.AperFunction,SMDPad,CuDef*
G36*
G01*
X184775000Y-92195000D02*
X183525000Y-92195000D01*
G75*
G02*
X183275000Y-91945000I0J250000D01*
G01*
X183275000Y-91195000D01*
G75*
G02*
X183525000Y-90945000I250000J0D01*
G01*
X184775000Y-90945000D01*
G75*
G02*
X185025000Y-91195000I0J-250000D01*
G01*
X185025000Y-91945000D01*
G75*
G02*
X184775000Y-92195000I-250000J0D01*
G01*
G37*
G04 #@! TD.AperFunction*
G04 #@! TO.P,R6,2*
G04 #@! TO.N,Net-(D8-Pad2)*
G04 #@! TA.AperFunction,SMDPad,CuDef*
G36*
G01*
X184775000Y-89395000D02*
X183525000Y-89395000D01*
G75*
G02*
X183275000Y-89145000I0J250000D01*
G01*
X183275000Y-88395000D01*
G75*
G02*
X183525000Y-88145000I250000J0D01*
G01*
X184775000Y-88145000D01*
G75*
G02*
X185025000Y-88395000I0J-250000D01*
G01*
X185025000Y-89145000D01*
G75*
G02*
X184775000Y-89395000I-250000J0D01*
G01*
G37*
G04 #@! TD.AperFunction*
G04 #@! TD*
G04 #@! TO.P,R8,2*
G04 #@! TO.N,Net-(D15-Pad2)*
G04 #@! TA.AperFunction,SMDPad,CuDef*
G36*
G01*
X164605000Y-83175000D02*
X164605000Y-81925000D01*
G75*
G02*
X164855000Y-81675000I250000J0D01*
G01*
X165605000Y-81675000D01*
G75*
G02*
X165855000Y-81925000I0J-250000D01*
G01*
X165855000Y-83175000D01*
G75*
G02*
X165605000Y-83425000I-250000J0D01*
G01*
X164855000Y-83425000D01*
G75*
G02*
X164605000Y-83175000I0J250000D01*
G01*
G37*
G04 #@! TD.AperFunction*
G04 #@! TO.P,R8,1*
G04 #@! TO.N,+24V*
G04 #@! TA.AperFunction,SMDPad,CuDef*
G36*
G01*
X161805000Y-83175000D02*
X161805000Y-81925000D01*
G75*
G02*
X162055000Y-81675000I250000J0D01*
G01*
X162805000Y-81675000D01*
G75*
G02*
X163055000Y-81925000I0J-250000D01*
G01*
X163055000Y-83175000D01*
G75*
G02*
X162805000Y-83425000I-250000J0D01*
G01*
X162055000Y-83425000D01*
G75*
G02*
X161805000Y-83175000I0J250000D01*
G01*
G37*
G04 #@! TD.AperFunction*
G04 #@! TD*
G04 #@! TO.P,R10,1*
G04 #@! TO.N,+24V*
G04 #@! TA.AperFunction,SMDPad,CuDef*
G36*
G01*
X170825000Y-60075000D02*
X172075000Y-60075000D01*
G75*
G02*
X172325000Y-60325000I0J-250000D01*
G01*
X172325000Y-61075000D01*
G75*
G02*
X172075000Y-61325000I-250000J0D01*
G01*
X170825000Y-61325000D01*
G75*
G02*
X170575000Y-61075000I0J250000D01*
G01*
X170575000Y-60325000D01*
G75*
G02*
X170825000Y-60075000I250000J0D01*
G01*
G37*
G04 #@! TD.AperFunction*
G04 #@! TO.P,R10,2*
G04 #@! TO.N,Net-(D22-Pad2)*
G04 #@! TA.AperFunction,SMDPad,CuDef*
G36*
G01*
X170825000Y-62875000D02*
X172075000Y-62875000D01*
G75*
G02*
X172325000Y-63125000I0J-250000D01*
G01*
X172325000Y-63875000D01*
G75*
G02*
X172075000Y-64125000I-250000J0D01*
G01*
X170825000Y-64125000D01*
G75*
G02*
X170575000Y-63875000I0J250000D01*
G01*
X170575000Y-63125000D01*
G75*
G02*
X170825000Y-62875000I250000J0D01*
G01*
G37*
G04 #@! TD.AperFunction*
G04 #@! TD*
G04 #@! TO.P,C1,1*
G04 #@! TO.N,+24V*
G04 #@! TA.AperFunction,SMDPad,CuDef*
G36*
G01*
X193795000Y-81925000D02*
X193795000Y-83175000D01*
G75*
G02*
X193545000Y-83425000I-250000J0D01*
G01*
X192795000Y-83425000D01*
G75*
G02*
X192545000Y-83175000I0J250000D01*
G01*
X192545000Y-81925000D01*
G75*
G02*
X192795000Y-81675000I250000J0D01*
G01*
X193545000Y-81675000D01*
G75*
G02*
X193795000Y-81925000I0J-250000D01*
G01*
G37*
G04 #@! TD.AperFunction*
G04 #@! TO.P,C1,2*
G04 #@! TO.N,Net-(C1-Pad2)*
G04 #@! TA.AperFunction,SMDPad,CuDef*
G36*
G01*
X190995000Y-81925000D02*
X190995000Y-83175000D01*
G75*
G02*
X190745000Y-83425000I-250000J0D01*
G01*
X189995000Y-83425000D01*
G75*
G02*
X189745000Y-83175000I0J250000D01*
G01*
X189745000Y-81925000D01*
G75*
G02*
X189995000Y-81675000I250000J0D01*
G01*
X190745000Y-81675000D01*
G75*
G02*
X190995000Y-81925000I0J-250000D01*
G01*
G37*
G04 #@! TD.AperFunction*
G04 #@! TD*
G04 #@! TO.P,C2,2*
G04 #@! TO.N,Net-(C2-Pad2)*
G04 #@! TA.AperFunction,SMDPad,CuDef*
G36*
G01*
X172075000Y-89395000D02*
X170825000Y-89395000D01*
G75*
G02*
X170575000Y-89145000I0J250000D01*
G01*
X170575000Y-88395000D01*
G75*
G02*
X170825000Y-88145000I250000J0D01*
G01*
X172075000Y-88145000D01*
G75*
G02*
X172325000Y-88395000I0J-250000D01*
G01*
X172325000Y-89145000D01*
G75*
G02*
X172075000Y-89395000I-250000J0D01*
G01*
G37*
G04 #@! TD.AperFunction*
G04 #@! TO.P,C2,1*
G04 #@! TO.N,+24V*
G04 #@! TA.AperFunction,SMDPad,CuDef*
G36*
G01*
X172075000Y-92195000D02*
X170825000Y-92195000D01*
G75*
G02*
X170575000Y-91945000I0J250000D01*
G01*
X170575000Y-91195000D01*
G75*
G02*
X170825000Y-90945000I250000J0D01*
G01*
X172075000Y-90945000D01*
G75*
G02*
X172325000Y-91195000I0J-250000D01*
G01*
X172325000Y-91945000D01*
G75*
G02*
X172075000Y-92195000I-250000J0D01*
G01*
G37*
G04 #@! TD.AperFunction*
G04 #@! TD*
G04 #@! TO.P,C3,1*
G04 #@! TO.N,+24V*
G04 #@! TA.AperFunction,SMDPad,CuDef*
G36*
G01*
X161805000Y-70475000D02*
X161805000Y-69225000D01*
G75*
G02*
X162055000Y-68975000I250000J0D01*
G01*
X162805000Y-68975000D01*
G75*
G02*
X163055000Y-69225000I0J-250000D01*
G01*
X163055000Y-70475000D01*
G75*
G02*
X162805000Y-70725000I-250000J0D01*
G01*
X162055000Y-70725000D01*
G75*
G02*
X161805000Y-70475000I0J250000D01*
G01*
G37*
G04 #@! TD.AperFunction*
G04 #@! TO.P,C3,2*
G04 #@! TO.N,Net-(C3-Pad2)*
G04 #@! TA.AperFunction,SMDPad,CuDef*
G36*
G01*
X164605000Y-70475000D02*
X164605000Y-69225000D01*
G75*
G02*
X164855000Y-68975000I250000J0D01*
G01*
X165605000Y-68975000D01*
G75*
G02*
X165855000Y-69225000I0J-250000D01*
G01*
X165855000Y-70475000D01*
G75*
G02*
X165605000Y-70725000I-250000J0D01*
G01*
X164855000Y-70725000D01*
G75*
G02*
X164605000Y-70475000I0J250000D01*
G01*
G37*
G04 #@! TD.AperFunction*
G04 #@! TD*
G04 #@! TO.P,C4,2*
G04 #@! TO.N,Net-(C4-Pad2)*
G04 #@! TA.AperFunction,SMDPad,CuDef*
G36*
G01*
X183525000Y-62875000D02*
X184775000Y-62875000D01*
G75*
G02*
X185025000Y-63125000I0J-250000D01*
G01*
X185025000Y-63875000D01*
G75*
G02*
X184775000Y-64125000I-250000J0D01*
G01*
X183525000Y-64125000D01*
G75*
G02*
X183275000Y-63875000I0J250000D01*
G01*
X183275000Y-63125000D01*
G75*
G02*
X183525000Y-62875000I250000J0D01*
G01*
G37*
G04 #@! TD.AperFunction*
G04 #@! TO.P,C4,1*
G04 #@! TO.N,+24V*
G04 #@! TA.AperFunction,SMDPad,CuDef*
G36*
G01*
X183525000Y-60075000D02*
X184775000Y-60075000D01*
G75*
G02*
X185025000Y-60325000I0J-250000D01*
G01*
X185025000Y-61075000D01*
G75*
G02*
X184775000Y-61325000I-250000J0D01*
G01*
X183525000Y-61325000D01*
G75*
G02*
X183275000Y-61075000I0J250000D01*
G01*
X183275000Y-60325000D01*
G75*
G02*
X183525000Y-60075000I250000J0D01*
G01*
G37*
G04 #@! TD.AperFunction*
G04 #@! TD*
G04 #@! TO.P,J1,1*
G04 #@! TO.N,+24V*
G04 #@! TA.AperFunction,SMDPad,CuDef*
G36*
G01*
X200045000Y-71620000D02*
X200045000Y-70620000D01*
G75*
G02*
X200545000Y-70120000I500000J0D01*
G01*
X202545000Y-70120000D01*
G75*
G02*
X203045000Y-70620000I0J-500000D01*
G01*
X203045000Y-71620000D01*
G75*
G02*
X202545000Y-72120000I-500000J0D01*
G01*
X200545000Y-72120000D01*
G75*
G02*
X200045000Y-71620000I0J500000D01*
G01*
G37*
G04 #@! TD.AperFunction*
G04 #@! TO.P,J1,3*
G04 #@! TO.N,Net-(J1-Pad3)*
G04 #@! TA.AperFunction,SMDPad,CuDef*
G36*
G01*
X200045000Y-76700000D02*
X200045000Y-75700000D01*
G75*
G02*
X200545000Y-75200000I500000J0D01*
G01*
X202545000Y-75200000D01*
G75*
G02*
X203045000Y-75700000I0J-500000D01*
G01*
X203045000Y-76700000D01*
G75*
G02*
X202545000Y-77200000I-500000J0D01*
G01*
X200545000Y-77200000D01*
G75*
G02*
X200045000Y-76700000I0J500000D01*
G01*
G37*
G04 #@! TD.AperFunction*
G04 #@! TO.P,J1,2*
G04 #@! TO.N,GND*
G04 #@! TA.AperFunction,SMDPad,CuDef*
G36*
G01*
X203355000Y-74160000D02*
X203355000Y-73160000D01*
G75*
G02*
X203855000Y-72660000I500000J0D01*
G01*
X205855000Y-72660000D01*
G75*
G02*
X206355000Y-73160000I0J-500000D01*
G01*
X206355000Y-74160000D01*
G75*
G02*
X205855000Y-74660000I-500000J0D01*
G01*
X203855000Y-74660000D01*
G75*
G02*
X203355000Y-74160000I0J500000D01*
G01*
G37*
G04 #@! TD.AperFunction*
G04 #@! TO.P,J1,4*
G04 #@! TA.AperFunction,SMDPad,CuDef*
G36*
G01*
X203355000Y-79240000D02*
X203355000Y-78240000D01*
G75*
G02*
X203855000Y-77740000I500000J0D01*
G01*
X205855000Y-77740000D01*
G75*
G02*
X206355000Y-78240000I0J-500000D01*
G01*
X206355000Y-79240000D01*
G75*
G02*
X205855000Y-79740000I-500000J0D01*
G01*
X203855000Y-79740000D01*
G75*
G02*
X203355000Y-79240000I0J500000D01*
G01*
G37*
G04 #@! TD.AperFunction*
G04 #@! TD*
D11*
G04 #@! TO.P,Q2,3*
G04 #@! TO.N,Net-(D14-Pad1)*
X166370000Y-85360000D03*
G04 #@! TO.P,Q2,2*
G04 #@! TO.N,Net-(C2-Pad2)*
X167320000Y-87360000D03*
G04 #@! TO.P,Q2,1*
G04 #@! TO.N,Net-(Q1-Pad1)*
X165420000Y-87360000D03*
G04 #@! TD*
D10*
G04 #@! TO.P,Q3,3*
G04 #@! TO.N,Net-(D21-Pad1)*
X168640000Y-64770000D03*
G04 #@! TO.P,Q3,2*
G04 #@! TO.N,Net-(C3-Pad2)*
X166640000Y-65720000D03*
G04 #@! TO.P,Q3,1*
G04 #@! TO.N,Net-(Q1-Pad1)*
X166640000Y-63820000D03*
G04 #@! TD*
D11*
G04 #@! TO.P,Q4,1*
G04 #@! TO.N,Net-(Q1-Pad1)*
X190180000Y-65040000D03*
G04 #@! TO.P,Q4,2*
G04 #@! TO.N,Net-(C4-Pad2)*
X188280000Y-65040000D03*
G04 #@! TO.P,Q4,3*
G04 #@! TO.N,Net-(D28-Pad1)*
X189230000Y-67040000D03*
G04 #@! TD*
G04 #@! TO.P,R3,2*
G04 #@! TO.N,GND*
G04 #@! TA.AperFunction,SMDPad,CuDef*
G36*
G01*
X193815000Y-88255000D02*
X193815000Y-87005000D01*
G75*
G02*
X194065000Y-86755000I250000J0D01*
G01*
X194815000Y-86755000D01*
G75*
G02*
X195065000Y-87005000I0J-250000D01*
G01*
X195065000Y-88255000D01*
G75*
G02*
X194815000Y-88505000I-250000J0D01*
G01*
X194065000Y-88505000D01*
G75*
G02*
X193815000Y-88255000I0J250000D01*
G01*
G37*
G04 #@! TD.AperFunction*
G04 #@! TO.P,R3,1*
G04 #@! TO.N,Net-(C1-Pad2)*
G04 #@! TA.AperFunction,SMDPad,CuDef*
G36*
G01*
X191015000Y-88255000D02*
X191015000Y-87005000D01*
G75*
G02*
X191265000Y-86755000I250000J0D01*
G01*
X192015000Y-86755000D01*
G75*
G02*
X192265000Y-87005000I0J-250000D01*
G01*
X192265000Y-88255000D01*
G75*
G02*
X192015000Y-88505000I-250000J0D01*
G01*
X191265000Y-88505000D01*
G75*
G02*
X191015000Y-88255000I0J250000D01*
G01*
G37*
G04 #@! TD.AperFunction*
G04 #@! TD*
G04 #@! TO.P,R5,1*
G04 #@! TO.N,Net-(C2-Pad2)*
G04 #@! TA.AperFunction,SMDPad,CuDef*
G36*
G01*
X165745000Y-89415000D02*
X166995000Y-89415000D01*
G75*
G02*
X167245000Y-89665000I0J-250000D01*
G01*
X167245000Y-90415000D01*
G75*
G02*
X166995000Y-90665000I-250000J0D01*
G01*
X165745000Y-90665000D01*
G75*
G02*
X165495000Y-90415000I0J250000D01*
G01*
X165495000Y-89665000D01*
G75*
G02*
X165745000Y-89415000I250000J0D01*
G01*
G37*
G04 #@! TD.AperFunction*
G04 #@! TO.P,R5,2*
G04 #@! TO.N,GND*
G04 #@! TA.AperFunction,SMDPad,CuDef*
G36*
G01*
X165745000Y-92215000D02*
X166995000Y-92215000D01*
G75*
G02*
X167245000Y-92465000I0J-250000D01*
G01*
X167245000Y-93215000D01*
G75*
G02*
X166995000Y-93465000I-250000J0D01*
G01*
X165745000Y-93465000D01*
G75*
G02*
X165495000Y-93215000I0J250000D01*
G01*
X165495000Y-92465000D01*
G75*
G02*
X165745000Y-92215000I250000J0D01*
G01*
G37*
G04 #@! TD.AperFunction*
G04 #@! TD*
G04 #@! TO.P,R7,2*
G04 #@! TO.N,GND*
G04 #@! TA.AperFunction,SMDPad,CuDef*
G36*
G01*
X161785000Y-64145000D02*
X161785000Y-65395000D01*
G75*
G02*
X161535000Y-65645000I-250000J0D01*
G01*
X160785000Y-65645000D01*
G75*
G02*
X160535000Y-65395000I0J250000D01*
G01*
X160535000Y-64145000D01*
G75*
G02*
X160785000Y-63895000I250000J0D01*
G01*
X161535000Y-63895000D01*
G75*
G02*
X161785000Y-64145000I0J-250000D01*
G01*
G37*
G04 #@! TD.AperFunction*
G04 #@! TO.P,R7,1*
G04 #@! TO.N,Net-(C3-Pad2)*
G04 #@! TA.AperFunction,SMDPad,CuDef*
G36*
G01*
X164585000Y-64145000D02*
X164585000Y-65395000D01*
G75*
G02*
X164335000Y-65645000I-250000J0D01*
G01*
X163585000Y-65645000D01*
G75*
G02*
X163335000Y-65395000I0J250000D01*
G01*
X163335000Y-64145000D01*
G75*
G02*
X163585000Y-63895000I250000J0D01*
G01*
X164335000Y-63895000D01*
G75*
G02*
X164585000Y-64145000I0J-250000D01*
G01*
G37*
G04 #@! TD.AperFunction*
G04 #@! TD*
G04 #@! TO.P,R9,1*
G04 #@! TO.N,Net-(C4-Pad2)*
G04 #@! TA.AperFunction,SMDPad,CuDef*
G36*
G01*
X189855000Y-62985000D02*
X188605000Y-62985000D01*
G75*
G02*
X188355000Y-62735000I0J250000D01*
G01*
X188355000Y-61985000D01*
G75*
G02*
X188605000Y-61735000I250000J0D01*
G01*
X189855000Y-61735000D01*
G75*
G02*
X190105000Y-61985000I0J-250000D01*
G01*
X190105000Y-62735000D01*
G75*
G02*
X189855000Y-62985000I-250000J0D01*
G01*
G37*
G04 #@! TD.AperFunction*
G04 #@! TO.P,R9,2*
G04 #@! TO.N,GND*
G04 #@! TA.AperFunction,SMDPad,CuDef*
G36*
G01*
X189855000Y-60185000D02*
X188605000Y-60185000D01*
G75*
G02*
X188355000Y-59935000I0J250000D01*
G01*
X188355000Y-59185000D01*
G75*
G02*
X188605000Y-58935000I250000J0D01*
G01*
X189855000Y-58935000D01*
G75*
G02*
X190105000Y-59185000I0J-250000D01*
G01*
X190105000Y-59935000D01*
G75*
G02*
X189855000Y-60185000I-250000J0D01*
G01*
G37*
G04 #@! TD.AperFunction*
G04 #@! TD*
G04 #@! TA.AperFunction,SMDPad,CuDef*
D12*
G04 #@! TO.P,D1,2*
G04 #@! TO.N,Net-(D1-Pad2)*
G36*
X187243313Y-71556218D02*
G01*
X186543313Y-70343782D01*
X188275363Y-69343782D01*
X188975363Y-70556218D01*
X187243313Y-71556218D01*
G37*
G04 #@! TD.AperFunction*
G04 #@! TA.AperFunction,SMDPad,CuDef*
G04 #@! TO.P,D1,1*
G04 #@! TO.N,Net-(D1-Pad1)*
G36*
X184645237Y-73056218D02*
G01*
X183945237Y-71843782D01*
X185677287Y-70843782D01*
X186377287Y-72056218D01*
X184645237Y-73056218D01*
G37*
G04 #@! TD.AperFunction*
G04 #@! TD*
G04 #@! TA.AperFunction,SMDPad,CuDef*
G04 #@! TO.P,D2,1*
G04 #@! TO.N,Net-(D2-Pad1)*
G36*
X189539355Y-71848245D02*
G01*
X189951011Y-73186355D01*
X188039425Y-73774435D01*
X187627769Y-72436325D01*
X189539355Y-71848245D01*
G37*
G04 #@! TD.AperFunction*
G04 #@! TA.AperFunction,SMDPad,CuDef*
G04 #@! TO.P,D2,2*
G04 #@! TO.N,Net-(D1-Pad1)*
G36*
X186671975Y-72730365D02*
G01*
X187083631Y-74068475D01*
X185172045Y-74656555D01*
X184760389Y-73318445D01*
X186671975Y-72730365D01*
G37*
G04 #@! TD.AperFunction*
G04 #@! TD*
G04 #@! TA.AperFunction,SMDPad,CuDef*
G04 #@! TO.P,D3,2*
G04 #@! TO.N,Net-(D2-Pad1)*
G36*
X188323078Y-76113240D02*
G01*
X188218108Y-74717181D01*
X190212478Y-74567224D01*
X190317448Y-75963283D01*
X188323078Y-76113240D01*
G37*
G04 #@! TD.AperFunction*
G04 #@! TA.AperFunction,SMDPad,CuDef*
G04 #@! TO.P,D3,1*
G04 #@! TO.N,Net-(D3-Pad1)*
G36*
X185331522Y-76338176D02*
G01*
X185226552Y-74942117D01*
X187220922Y-74792160D01*
X187325892Y-76188219D01*
X185331522Y-76338176D01*
G37*
G04 #@! TD.AperFunction*
G04 #@! TD*
G04 #@! TA.AperFunction,SMDPad,CuDef*
G04 #@! TO.P,D4,1*
G04 #@! TO.N,Net-(D4-Pad1)*
G36*
X190264866Y-77372109D02*
G01*
X190055517Y-78756368D01*
X188078004Y-78457297D01*
X188287353Y-77073038D01*
X190264866Y-77372109D01*
G37*
G04 #@! TD.AperFunction*
G04 #@! TA.AperFunction,SMDPad,CuDef*
G04 #@! TO.P,D4,2*
G04 #@! TO.N,Net-(D3-Pad1)*
G36*
X187298596Y-76923503D02*
G01*
X187089247Y-78307762D01*
X185111734Y-78008691D01*
X185321083Y-76624432D01*
X187298596Y-76923503D01*
G37*
G04 #@! TD.AperFunction*
G04 #@! TD*
G04 #@! TA.AperFunction,SMDPad,CuDef*
G04 #@! TO.P,D5,2*
G04 #@! TO.N,Net-(D4-Pad1)*
G36*
X187318814Y-80687577D02*
G01*
X187829642Y-79384099D01*
X189691754Y-80113853D01*
X189180926Y-81417331D01*
X187318814Y-80687577D01*
G37*
G04 #@! TD.AperFunction*
G04 #@! TA.AperFunction,SMDPad,CuDef*
G04 #@! TO.P,D5,1*
G04 #@! TO.N,Net-(D5-Pad1)*
G36*
X184525646Y-79592947D02*
G01*
X185036474Y-78289469D01*
X186898586Y-79019223D01*
X186387758Y-80322701D01*
X184525646Y-79592947D01*
G37*
G04 #@! TD.AperFunction*
G04 #@! TD*
G04 #@! TA.AperFunction,SMDPad,CuDef*
G04 #@! TO.P,D6,1*
G04 #@! TO.N,Net-(D6-Pad1)*
G36*
X188522114Y-82663746D02*
G01*
X187733177Y-83820284D01*
X186080980Y-82693232D01*
X186869917Y-81536694D01*
X188522114Y-82663746D01*
G37*
G04 #@! TD.AperFunction*
G04 #@! TA.AperFunction,SMDPad,CuDef*
G04 #@! TO.P,D6,2*
G04 #@! TO.N,Net-(D5-Pad1)*
G36*
X186043820Y-80973168D02*
G01*
X185254883Y-82129706D01*
X183602686Y-81002654D01*
X184391623Y-79846116D01*
X186043820Y-80973168D01*
G37*
G04 #@! TD.AperFunction*
G04 #@! TD*
G04 #@! TA.AperFunction,SMDPad,CuDef*
G04 #@! TO.P,D8,2*
G04 #@! TO.N,Net-(D8-Pad2)*
G36*
X182443782Y-85643313D02*
G01*
X183656218Y-84943313D01*
X184656218Y-86675363D01*
X183443782Y-87375363D01*
X182443782Y-85643313D01*
G37*
G04 #@! TD.AperFunction*
G04 #@! TA.AperFunction,SMDPad,CuDef*
G04 #@! TO.P,D8,1*
G04 #@! TO.N,Net-(D8-Pad1)*
G36*
X180943782Y-83045237D02*
G01*
X182156218Y-82345237D01*
X183156218Y-84077287D01*
X181943782Y-84777287D01*
X180943782Y-83045237D01*
G37*
G04 #@! TD.AperFunction*
G04 #@! TD*
G04 #@! TA.AperFunction,SMDPad,CuDef*
G04 #@! TO.P,D9,1*
G04 #@! TO.N,Net-(D10-Pad2)*
G36*
X182151755Y-87939355D02*
G01*
X180813645Y-88351011D01*
X180225565Y-86439425D01*
X181563675Y-86027769D01*
X182151755Y-87939355D01*
G37*
G04 #@! TD.AperFunction*
G04 #@! TA.AperFunction,SMDPad,CuDef*
G04 #@! TO.P,D9,2*
G04 #@! TO.N,Net-(D8-Pad1)*
G36*
X181269635Y-85071975D02*
G01*
X179931525Y-85483631D01*
X179343445Y-83572045D01*
X180681555Y-83160389D01*
X181269635Y-85071975D01*
G37*
G04 #@! TD.AperFunction*
G04 #@! TD*
G04 #@! TA.AperFunction,SMDPad,CuDef*
G04 #@! TO.P,D10,2*
G04 #@! TO.N,Net-(D10-Pad2)*
G36*
X177886760Y-86723078D02*
G01*
X179282819Y-86618108D01*
X179432776Y-88612478D01*
X178036717Y-88717448D01*
X177886760Y-86723078D01*
G37*
G04 #@! TD.AperFunction*
G04 #@! TA.AperFunction,SMDPad,CuDef*
G04 #@! TO.P,D10,1*
G04 #@! TO.N,Net-(D10-Pad1)*
G36*
X177661824Y-83731522D02*
G01*
X179057883Y-83626552D01*
X179207840Y-85620922D01*
X177811781Y-85725892D01*
X177661824Y-83731522D01*
G37*
G04 #@! TD.AperFunction*
G04 #@! TD*
G04 #@! TA.AperFunction,SMDPad,CuDef*
G04 #@! TO.P,D11,1*
G04 #@! TO.N,Net-(D11-Pad1)*
G36*
X176627891Y-88664866D02*
G01*
X175243632Y-88455517D01*
X175542703Y-86478004D01*
X176926962Y-86687353D01*
X176627891Y-88664866D01*
G37*
G04 #@! TD.AperFunction*
G04 #@! TA.AperFunction,SMDPad,CuDef*
G04 #@! TO.P,D11,2*
G04 #@! TO.N,Net-(D10-Pad1)*
G36*
X177076497Y-85698596D02*
G01*
X175692238Y-85489247D01*
X175991309Y-83511734D01*
X177375568Y-83721083D01*
X177076497Y-85698596D01*
G37*
G04 #@! TD.AperFunction*
G04 #@! TD*
G04 #@! TA.AperFunction,SMDPad,CuDef*
G04 #@! TO.P,D12,2*
G04 #@! TO.N,Net-(D11-Pad1)*
G36*
X173312423Y-85718814D02*
G01*
X174615901Y-86229642D01*
X173886147Y-88091754D01*
X172582669Y-87580926D01*
X173312423Y-85718814D01*
G37*
G04 #@! TD.AperFunction*
G04 #@! TA.AperFunction,SMDPad,CuDef*
G04 #@! TO.P,D12,1*
G04 #@! TO.N,Net-(D12-Pad1)*
G36*
X174407053Y-82925646D02*
G01*
X175710531Y-83436474D01*
X174980777Y-85298586D01*
X173677299Y-84787758D01*
X174407053Y-82925646D01*
G37*
G04 #@! TD.AperFunction*
G04 #@! TD*
G04 #@! TA.AperFunction,SMDPad,CuDef*
G04 #@! TO.P,D13,1*
G04 #@! TO.N,Net-(D13-Pad1)*
G36*
X171336254Y-86922114D02*
G01*
X170179716Y-86133177D01*
X171306768Y-84480980D01*
X172463306Y-85269917D01*
X171336254Y-86922114D01*
G37*
G04 #@! TD.AperFunction*
G04 #@! TA.AperFunction,SMDPad,CuDef*
G04 #@! TO.P,D13,2*
G04 #@! TO.N,Net-(D12-Pad1)*
G36*
X173026832Y-84443820D02*
G01*
X171870294Y-83654883D01*
X172997346Y-82002686D01*
X174153884Y-82791623D01*
X173026832Y-84443820D01*
G37*
G04 #@! TD.AperFunction*
G04 #@! TD*
G04 #@! TA.AperFunction,SMDPad,CuDef*
G04 #@! TO.P,D15,2*
G04 #@! TO.N,Net-(D15-Pad2)*
G36*
X168356687Y-80843782D02*
G01*
X169056687Y-82056218D01*
X167324637Y-83056218D01*
X166624637Y-81843782D01*
X168356687Y-80843782D01*
G37*
G04 #@! TD.AperFunction*
G04 #@! TA.AperFunction,SMDPad,CuDef*
G04 #@! TO.P,D15,1*
G04 #@! TO.N,Net-(D15-Pad1)*
G36*
X170954763Y-79343782D02*
G01*
X171654763Y-80556218D01*
X169922713Y-81556218D01*
X169222713Y-80343782D01*
X170954763Y-79343782D01*
G37*
G04 #@! TD.AperFunction*
G04 #@! TD*
G04 #@! TA.AperFunction,SMDPad,CuDef*
G04 #@! TO.P,D16,1*
G04 #@! TO.N,Net-(D16-Pad1)*
G36*
X166060645Y-80551755D02*
G01*
X165648989Y-79213645D01*
X167560575Y-78625565D01*
X167972231Y-79963675D01*
X166060645Y-80551755D01*
G37*
G04 #@! TD.AperFunction*
G04 #@! TA.AperFunction,SMDPad,CuDef*
G04 #@! TO.P,D16,2*
G04 #@! TO.N,Net-(D15-Pad1)*
G36*
X168928025Y-79669635D02*
G01*
X168516369Y-78331525D01*
X170427955Y-77743445D01*
X170839611Y-79081555D01*
X168928025Y-79669635D01*
G37*
G04 #@! TD.AperFunction*
G04 #@! TD*
G04 #@! TA.AperFunction,SMDPad,CuDef*
G04 #@! TO.P,D17,2*
G04 #@! TO.N,Net-(D16-Pad1)*
G36*
X167276922Y-76286760D02*
G01*
X167381892Y-77682819D01*
X165387522Y-77832776D01*
X165282552Y-76436717D01*
X167276922Y-76286760D01*
G37*
G04 #@! TD.AperFunction*
G04 #@! TA.AperFunction,SMDPad,CuDef*
G04 #@! TO.P,D17,1*
G04 #@! TO.N,Net-(D17-Pad1)*
G36*
X170268478Y-76061824D02*
G01*
X170373448Y-77457883D01*
X168379078Y-77607840D01*
X168274108Y-76211781D01*
X170268478Y-76061824D01*
G37*
G04 #@! TD.AperFunction*
G04 #@! TD*
G04 #@! TA.AperFunction,SMDPad,CuDef*
G04 #@! TO.P,D18,1*
G04 #@! TO.N,Net-(D18-Pad1)*
G36*
X165335134Y-75027891D02*
G01*
X165544483Y-73643632D01*
X167521996Y-73942703D01*
X167312647Y-75326962D01*
X165335134Y-75027891D01*
G37*
G04 #@! TD.AperFunction*
G04 #@! TA.AperFunction,SMDPad,CuDef*
G04 #@! TO.P,D18,2*
G04 #@! TO.N,Net-(D17-Pad1)*
G36*
X168301404Y-75476497D02*
G01*
X168510753Y-74092238D01*
X170488266Y-74391309D01*
X170278917Y-75775568D01*
X168301404Y-75476497D01*
G37*
G04 #@! TD.AperFunction*
G04 #@! TD*
G04 #@! TA.AperFunction,SMDPad,CuDef*
G04 #@! TO.P,D19,2*
G04 #@! TO.N,Net-(D18-Pad1)*
G36*
X168281186Y-71712423D02*
G01*
X167770358Y-73015901D01*
X165908246Y-72286147D01*
X166419074Y-70982669D01*
X168281186Y-71712423D01*
G37*
G04 #@! TD.AperFunction*
G04 #@! TA.AperFunction,SMDPad,CuDef*
G04 #@! TO.P,D19,1*
G04 #@! TO.N,Net-(D19-Pad1)*
G36*
X171074354Y-72807053D02*
G01*
X170563526Y-74110531D01*
X168701414Y-73380777D01*
X169212242Y-72077299D01*
X171074354Y-72807053D01*
G37*
G04 #@! TD.AperFunction*
G04 #@! TD*
G04 #@! TA.AperFunction,SMDPad,CuDef*
G04 #@! TO.P,D20,1*
G04 #@! TO.N,Net-(D20-Pad1)*
G36*
X167077886Y-69736254D02*
G01*
X167866823Y-68579716D01*
X169519020Y-69706768D01*
X168730083Y-70863306D01*
X167077886Y-69736254D01*
G37*
G04 #@! TD.AperFunction*
G04 #@! TA.AperFunction,SMDPad,CuDef*
G04 #@! TO.P,D20,2*
G04 #@! TO.N,Net-(D19-Pad1)*
G36*
X169556180Y-71426832D02*
G01*
X170345117Y-70270294D01*
X171997314Y-71397346D01*
X171208377Y-72553884D01*
X169556180Y-71426832D01*
G37*
G04 #@! TD.AperFunction*
G04 #@! TD*
G04 #@! TA.AperFunction,SMDPad,CuDef*
G04 #@! TO.P,D22,2*
G04 #@! TO.N,Net-(D22-Pad2)*
G36*
X173156218Y-66756687D02*
G01*
X171943782Y-67456687D01*
X170943782Y-65724637D01*
X172156218Y-65024637D01*
X173156218Y-66756687D01*
G37*
G04 #@! TD.AperFunction*
G04 #@! TA.AperFunction,SMDPad,CuDef*
G04 #@! TO.P,D22,1*
G04 #@! TO.N,Net-(D22-Pad1)*
G36*
X174656218Y-69354763D02*
G01*
X173443782Y-70054763D01*
X172443782Y-68322713D01*
X173656218Y-67622713D01*
X174656218Y-69354763D01*
G37*
G04 #@! TD.AperFunction*
G04 #@! TD*
G04 #@! TA.AperFunction,SMDPad,CuDef*
G04 #@! TO.P,D23,1*
G04 #@! TO.N,Net-(D23-Pad1)*
G36*
X173448245Y-64460645D02*
G01*
X174786355Y-64048989D01*
X175374435Y-65960575D01*
X174036325Y-66372231D01*
X173448245Y-64460645D01*
G37*
G04 #@! TD.AperFunction*
G04 #@! TA.AperFunction,SMDPad,CuDef*
G04 #@! TO.P,D23,2*
G04 #@! TO.N,Net-(D22-Pad1)*
G36*
X174330365Y-67328025D02*
G01*
X175668475Y-66916369D01*
X176256555Y-68827955D01*
X174918445Y-69239611D01*
X174330365Y-67328025D01*
G37*
G04 #@! TD.AperFunction*
G04 #@! TD*
G04 #@! TA.AperFunction,SMDPad,CuDef*
G04 #@! TO.P,D24,2*
G04 #@! TO.N,Net-(D23-Pad1)*
G36*
X177713240Y-65676922D02*
G01*
X176317181Y-65781892D01*
X176167224Y-63787522D01*
X177563283Y-63682552D01*
X177713240Y-65676922D01*
G37*
G04 #@! TD.AperFunction*
G04 #@! TA.AperFunction,SMDPad,CuDef*
G04 #@! TO.P,D24,1*
G04 #@! TO.N,Net-(D24-Pad1)*
G36*
X177938176Y-68668478D02*
G01*
X176542117Y-68773448D01*
X176392160Y-66779078D01*
X177788219Y-66674108D01*
X177938176Y-68668478D01*
G37*
G04 #@! TD.AperFunction*
G04 #@! TD*
G04 #@! TA.AperFunction,SMDPad,CuDef*
G04 #@! TO.P,D25,1*
G04 #@! TO.N,Net-(D25-Pad1)*
G36*
X178972109Y-63735134D02*
G01*
X180356368Y-63944483D01*
X180057297Y-65921996D01*
X178673038Y-65712647D01*
X178972109Y-63735134D01*
G37*
G04 #@! TD.AperFunction*
G04 #@! TA.AperFunction,SMDPad,CuDef*
G04 #@! TO.P,D25,2*
G04 #@! TO.N,Net-(D24-Pad1)*
G36*
X178523503Y-66701404D02*
G01*
X179907762Y-66910753D01*
X179608691Y-68888266D01*
X178224432Y-68678917D01*
X178523503Y-66701404D01*
G37*
G04 #@! TD.AperFunction*
G04 #@! TD*
G04 #@! TA.AperFunction,SMDPad,CuDef*
G04 #@! TO.P,D26,2*
G04 #@! TO.N,Net-(D25-Pad1)*
G36*
X182287577Y-66681186D02*
G01*
X180984099Y-66170358D01*
X181713853Y-64308246D01*
X183017331Y-64819074D01*
X182287577Y-66681186D01*
G37*
G04 #@! TD.AperFunction*
G04 #@! TA.AperFunction,SMDPad,CuDef*
G04 #@! TO.P,D26,1*
G04 #@! TO.N,Net-(D26-Pad1)*
G36*
X181192947Y-69474354D02*
G01*
X179889469Y-68963526D01*
X180619223Y-67101414D01*
X181922701Y-67612242D01*
X181192947Y-69474354D01*
G37*
G04 #@! TD.AperFunction*
G04 #@! TD*
G04 #@! TA.AperFunction,SMDPad,CuDef*
G04 #@! TO.P,D27,1*
G04 #@! TO.N,Net-(D27-Pad1)*
G36*
X184263746Y-65477886D02*
G01*
X185420284Y-66266823D01*
X184293232Y-67919020D01*
X183136694Y-67130083D01*
X184263746Y-65477886D01*
G37*
G04 #@! TD.AperFunction*
G04 #@! TA.AperFunction,SMDPad,CuDef*
G04 #@! TO.P,D27,2*
G04 #@! TO.N,Net-(D26-Pad1)*
G36*
X182573168Y-67956180D02*
G01*
X183729706Y-68745117D01*
X182602654Y-70397314D01*
X181446116Y-69608377D01*
X182573168Y-67956180D01*
G37*
G04 #@! TD.AperFunction*
G04 #@! TD*
G04 #@! TO.P,R1,1*
G04 #@! TO.N,Net-(J1-Pad3)*
G04 #@! TA.AperFunction,SMDPad,CuDef*
G36*
G01*
X196335000Y-75575000D02*
X196335000Y-76825000D01*
G75*
G02*
X196085000Y-77075000I-250000J0D01*
G01*
X195335000Y-77075000D01*
G75*
G02*
X195085000Y-76825000I0J250000D01*
G01*
X195085000Y-75575000D01*
G75*
G02*
X195335000Y-75325000I250000J0D01*
G01*
X196085000Y-75325000D01*
G75*
G02*
X196335000Y-75575000I0J-250000D01*
G01*
G37*
G04 #@! TD.AperFunction*
G04 #@! TO.P,R1,2*
G04 #@! TO.N,Net-(Q1-Pad1)*
G04 #@! TA.AperFunction,SMDPad,CuDef*
G36*
G01*
X193535000Y-75575000D02*
X193535000Y-76825000D01*
G75*
G02*
X193285000Y-77075000I-250000J0D01*
G01*
X192535000Y-77075000D01*
G75*
G02*
X192285000Y-76825000I0J250000D01*
G01*
X192285000Y-75575000D01*
G75*
G02*
X192535000Y-75325000I250000J0D01*
G01*
X193285000Y-75325000D01*
G75*
G02*
X193535000Y-75575000I0J-250000D01*
G01*
G37*
G04 #@! TD.AperFunction*
G04 #@! TD*
G04 #@! TA.AperFunction,SMDPad,CuDef*
G04 #@! TO.P,D7,2*
G04 #@! TO.N,Net-(D6-Pad1)*
G36*
X184774120Y-82687724D02*
G01*
X183748560Y-83640734D01*
X182387118Y-82175648D01*
X183412678Y-81222638D01*
X184774120Y-82687724D01*
G37*
G04 #@! TD.AperFunction*
G04 #@! TA.AperFunction,SMDPad,CuDef*
G04 #@! TO.P,D7,1*
G04 #@! TO.N,Net-(D7-Pad1)*
G36*
X186816282Y-84885352D02*
G01*
X185790722Y-85838362D01*
X184429280Y-84373276D01*
X185454840Y-83420266D01*
X186816282Y-84885352D01*
G37*
G04 #@! TD.AperFunction*
G04 #@! TD*
G04 #@! TA.AperFunction,SMDPad,CuDef*
G04 #@! TO.P,D14,1*
G04 #@! TO.N,Net-(D14-Pad1)*
G36*
X169114648Y-85216282D02*
G01*
X168161638Y-84190722D01*
X169626724Y-82829280D01*
X170579734Y-83854840D01*
X169114648Y-85216282D01*
G37*
G04 #@! TD.AperFunction*
G04 #@! TA.AperFunction,SMDPad,CuDef*
G04 #@! TO.P,D14,2*
G04 #@! TO.N,Net-(D13-Pad1)*
G36*
X171312276Y-83174120D02*
G01*
X170359266Y-82148560D01*
X171824352Y-80787118D01*
X172777362Y-81812678D01*
X171312276Y-83174120D01*
G37*
G04 #@! TD.AperFunction*
G04 #@! TD*
G04 #@! TA.AperFunction,SMDPad,CuDef*
G04 #@! TO.P,D21,2*
G04 #@! TO.N,Net-(D20-Pad1)*
G36*
X170825880Y-69712276D02*
G01*
X171851440Y-68759266D01*
X173212882Y-70224352D01*
X172187322Y-71177362D01*
X170825880Y-69712276D01*
G37*
G04 #@! TD.AperFunction*
G04 #@! TA.AperFunction,SMDPad,CuDef*
G04 #@! TO.P,D21,1*
G04 #@! TO.N,Net-(D21-Pad1)*
G36*
X168783718Y-67514648D02*
G01*
X169809278Y-66561638D01*
X171170720Y-68026724D01*
X170145160Y-68979734D01*
X168783718Y-67514648D01*
G37*
G04 #@! TD.AperFunction*
G04 #@! TD*
G04 #@! TA.AperFunction,SMDPad,CuDef*
G04 #@! TO.P,D28,1*
G04 #@! TO.N,Net-(D28-Pad1)*
G36*
X186485352Y-67183718D02*
G01*
X187438362Y-68209278D01*
X185973276Y-69570720D01*
X185020266Y-68545160D01*
X186485352Y-67183718D01*
G37*
G04 #@! TD.AperFunction*
G04 #@! TA.AperFunction,SMDPad,CuDef*
G04 #@! TO.P,D28,2*
G04 #@! TO.N,Net-(D27-Pad1)*
G36*
X184287724Y-69225880D02*
G01*
X185240734Y-70251440D01*
X183775648Y-71612882D01*
X182822638Y-70587322D01*
X184287724Y-69225880D01*
G37*
G04 #@! TD.AperFunction*
G04 #@! TD*
D13*
G04 #@! TO.N,GND*
X204855000Y-78740000D02*
X204855000Y-73660000D01*
X189230000Y-59560000D02*
X190521500Y-59560000D01*
X166437010Y-92907010D02*
X166370000Y-92840000D01*
X190454491Y-92907010D02*
X166437010Y-92907010D01*
X194440000Y-88921501D02*
X190454491Y-92907010D01*
X194440000Y-87630000D02*
X194440000Y-88921501D01*
X161092990Y-64837010D02*
X161160000Y-64770000D01*
X161092990Y-88854490D02*
X161092990Y-64837010D01*
X165078500Y-92840000D02*
X161092990Y-88854490D01*
X166370000Y-92840000D02*
X165078500Y-92840000D01*
X161160000Y-63478499D02*
X161160000Y-64770000D01*
X165275509Y-59362990D02*
X161160000Y-63478499D01*
X185173479Y-59362990D02*
X165275509Y-59362990D01*
X185370490Y-59560000D02*
X185173479Y-59362990D01*
X189230000Y-59560000D02*
X185370490Y-59560000D01*
X194440000Y-83690000D02*
X194440000Y-87630000D01*
X204855000Y-78740000D02*
X199407000Y-78740000D01*
X194457000Y-83690000D02*
X194440000Y-83690000D01*
X199407000Y-78740000D02*
X194457000Y-83690000D01*
X202778292Y-69139250D02*
X200100750Y-69139250D01*
X204855000Y-71215958D02*
X202778292Y-69139250D01*
X204855000Y-73660000D02*
X204855000Y-71215958D01*
X190521500Y-59560000D02*
X200100750Y-69139250D01*
G04 #@! TO.N,+24V*
X194440000Y-71120000D02*
X193170000Y-69850000D01*
X201545000Y-71120000D02*
X194440000Y-71120000D01*
X184347010Y-60897010D02*
X184150000Y-60700000D01*
X190127500Y-60897010D02*
X184347010Y-60897010D01*
X193170000Y-63939510D02*
X190127500Y-60897010D01*
X193170000Y-69850000D02*
X193170000Y-63939510D01*
X184150000Y-60700000D02*
X171450000Y-60700000D01*
X162497010Y-69782990D02*
X162430000Y-69850000D01*
X162497010Y-63872500D02*
X162497010Y-69782990D01*
X165669510Y-60700000D02*
X162497010Y-63872500D01*
X171450000Y-60700000D02*
X165669510Y-60700000D01*
X162430000Y-69850000D02*
X162430000Y-82550000D01*
X171382990Y-91502990D02*
X171450000Y-91570000D01*
X162430000Y-88460490D02*
X165472500Y-91502990D01*
X165472500Y-91502990D02*
X171382990Y-91502990D01*
X162430000Y-82550000D02*
X162430000Y-88460490D01*
X171450000Y-91570000D02*
X184150000Y-91570000D01*
X193102990Y-82617010D02*
X193170000Y-82550000D01*
X193102990Y-88527500D02*
X193102990Y-82617010D01*
X190060490Y-91570000D02*
X193102990Y-88527500D01*
X184150000Y-91570000D02*
X190060490Y-91570000D01*
X194247010Y-81472990D02*
X194247010Y-71182990D01*
X193170000Y-82550000D02*
X194247010Y-81472990D01*
G04 #@! TO.N,Net-(C1-Pad2)*
X190370000Y-84737500D02*
X190017500Y-85090000D01*
X190370000Y-82550000D02*
X190370000Y-84737500D01*
X190370000Y-85270000D02*
X188960000Y-86680000D01*
X190370000Y-84737500D02*
X190370000Y-85270000D01*
X190690000Y-86680000D02*
X191640000Y-87630000D01*
X188960000Y-86680000D02*
X190690000Y-86680000D01*
X190690000Y-85590000D02*
X190370000Y-85270000D01*
X190690000Y-86680000D02*
X190690000Y-85590000D01*
G04 #@! TO.N,Net-(C2-Pad2)*
X168730000Y-88770000D02*
X167320000Y-87360000D01*
X171450000Y-88770000D02*
X168730000Y-88770000D01*
X167640000Y-88770000D02*
X166370000Y-90040000D01*
X168730000Y-88770000D02*
X167640000Y-88770000D01*
X167320000Y-89090000D02*
X166370000Y-90040000D01*
X167320000Y-87360000D02*
X167320000Y-89090000D01*
G04 #@! TO.N,Net-(C3-Pad2)*
X165230000Y-67130000D02*
X166640000Y-65720000D01*
X165230000Y-69850000D02*
X165230000Y-67130000D01*
X165230000Y-67130000D02*
X165230000Y-66040000D01*
X164910000Y-65720000D02*
X164530000Y-65340000D01*
X166640000Y-65720000D02*
X164910000Y-65720000D01*
X164530000Y-65340000D02*
X163960000Y-64770000D01*
X165230000Y-66040000D02*
X164530000Y-65340000D01*
G04 #@! TO.N,Net-(C4-Pad2)*
X188280000Y-63310000D02*
X189230000Y-62360000D01*
X188280000Y-65040000D02*
X188280000Y-63310000D01*
X186740000Y-63500000D02*
X188280000Y-65040000D01*
X184150000Y-63500000D02*
X186740000Y-63500000D01*
X188090000Y-63500000D02*
X189230000Y-62360000D01*
X186740000Y-63500000D02*
X188090000Y-63500000D01*
G04 #@! TO.N,Net-(D1-Pad1)*
X185161262Y-72932712D02*
X185922010Y-73693460D01*
X185161262Y-71950000D02*
X185161262Y-72932712D01*
G04 #@! TO.N,Net-(D1-Pad2)*
X188359338Y-69850000D02*
X187759338Y-70450000D01*
X190370000Y-69850000D02*
X188359338Y-69850000D01*
G04 #@! TO.N,Net-(D2-Pad1)*
X188789390Y-74861844D02*
X189267778Y-75340232D01*
X188789390Y-72811340D02*
X188789390Y-74861844D01*
G04 #@! TO.N,Net-(D3-Pad1)*
X186276222Y-77395040D02*
X186205165Y-77466097D01*
X186276222Y-75565168D02*
X186276222Y-77395040D01*
G04 #@! TO.N,Net-(D4-Pad1)*
X189171435Y-79734564D02*
X188505284Y-80400715D01*
X189171435Y-77914703D02*
X189171435Y-79734564D01*
G04 #@! TO.N,Net-(D5-Pad1)*
X185712116Y-80099048D02*
X184823253Y-80987911D01*
X185712116Y-79306085D02*
X185712116Y-80099048D01*
D14*
G04 #@! TO.N,Net-(D6-Pad1)*
X183834649Y-82685716D02*
X183580619Y-82431686D01*
X187294320Y-82685716D02*
X183834649Y-82685716D01*
X187301547Y-82678489D02*
X187294320Y-82685716D01*
D13*
G04 #@! TO.N,Net-(D7-Pad1)*
X186960000Y-85966533D02*
X185622781Y-84629314D01*
X186960000Y-87630000D02*
X186960000Y-85966533D01*
G04 #@! TO.N,Net-(D8-Pad1)*
X181067288Y-83561262D02*
X180306540Y-84322010D01*
X182050000Y-83561262D02*
X181067288Y-83561262D01*
G04 #@! TO.N,Net-(D10-Pad2)*
X180710272Y-87667778D02*
X181188660Y-87189390D01*
X178659768Y-87667778D02*
X180710272Y-87667778D01*
G04 #@! TO.N,Net-(D10-Pad1)*
X178363775Y-84605165D02*
X178434832Y-84676222D01*
X176533903Y-84605165D02*
X178363775Y-84605165D01*
G04 #@! TO.N,Net-(D11-Pad1)*
X175419146Y-86905284D02*
X176085297Y-87571435D01*
X173599285Y-86905284D02*
X175419146Y-86905284D01*
G04 #@! TO.N,Net-(D12-Pad1)*
X173805052Y-83223253D02*
X174693915Y-84112116D01*
X173012089Y-83223253D02*
X173805052Y-83223253D01*
D14*
G04 #@! TO.N,Net-(D13-Pad1)*
X171135744Y-85515780D02*
X171321511Y-85701547D01*
X171135744Y-83368764D02*
X171135744Y-85515780D01*
X171568314Y-82936194D02*
X171135744Y-83368764D01*
X171568314Y-81980619D02*
X171568314Y-82936194D01*
D13*
G04 #@! TO.N,Net-(D14-Pad1)*
X168033467Y-85360000D02*
X169370686Y-84022781D01*
X166370000Y-85360000D02*
X168033467Y-85360000D01*
G04 #@! TO.N,Net-(D15-Pad1)*
X170438738Y-79467288D02*
X169677990Y-78706540D01*
X170438738Y-80450000D02*
X170438738Y-79467288D01*
G04 #@! TO.N,Net-(D16-Pad1)*
X166810610Y-77538156D02*
X166332222Y-77059768D01*
X166810610Y-79588660D02*
X166810610Y-77538156D01*
G04 #@! TO.N,Net-(D17-Pad1)*
X169394835Y-76763775D02*
X169323778Y-76834832D01*
X169394835Y-74933903D02*
X169394835Y-76763775D01*
G04 #@! TO.N,Net-(D18-Pad1)*
X167094716Y-73819146D02*
X166428565Y-74485297D01*
X167094716Y-71999285D02*
X167094716Y-73819146D01*
G04 #@! TO.N,Net-(D19-Pad1)*
X170776747Y-72205052D02*
X169887884Y-73093915D01*
X170776747Y-71412089D02*
X170776747Y-72205052D01*
D14*
G04 #@! TO.N,Net-(D20-Pad1)*
X170114808Y-69714284D02*
X171765351Y-69714284D01*
X171765351Y-69714284D02*
X172019381Y-69968314D01*
X170107581Y-69721511D02*
X170114808Y-69714284D01*
X168298453Y-69721511D02*
X170107581Y-69721511D01*
D13*
G04 #@! TO.N,Net-(D21-Pad1)*
X168640000Y-66433467D02*
X169977219Y-67770686D01*
X168640000Y-64770000D02*
X168640000Y-66433467D01*
G04 #@! TO.N,Net-(D22-Pad1)*
X174532712Y-68838738D02*
X175293460Y-68077990D01*
X173550000Y-68838738D02*
X174532712Y-68838738D01*
G04 #@! TO.N,Net-(D23-Pad1)*
X176461844Y-65210610D02*
X176940232Y-64732222D01*
X174411340Y-65210610D02*
X176461844Y-65210610D01*
G04 #@! TO.N,Net-(D24-Pad1)*
X177236225Y-67794835D02*
X177165168Y-67723778D01*
X179066097Y-67794835D02*
X177236225Y-67794835D01*
D15*
G04 #@! TO.N,Net-(J1-Pad3)*
X201545000Y-76200000D02*
X195710000Y-76200000D01*
D16*
G04 #@! TO.N,Net-(Q1-Pad1)*
X188960000Y-88580000D02*
X187960000Y-87580000D01*
X187960000Y-85572500D02*
X188442500Y-85090000D01*
X187960000Y-87580000D02*
X187960000Y-85572500D01*
X166182010Y-70714008D02*
X166182010Y-67497990D01*
X164277990Y-72618028D02*
X166182010Y-70714008D01*
X164277990Y-86217990D02*
X164277990Y-72618028D01*
X165420000Y-87360000D02*
X164277990Y-86217990D01*
X166182010Y-67497990D02*
X167640000Y-66040000D01*
X167640000Y-64820000D02*
X166640000Y-63820000D01*
X167640000Y-66040000D02*
X167640000Y-64820000D01*
X186617627Y-64697627D02*
X187960000Y-66040000D01*
X189180000Y-66040000D02*
X190180000Y-65040000D01*
X187960000Y-66040000D02*
X189180000Y-66040000D01*
X189417990Y-84114510D02*
X188442500Y-85090000D01*
X189417990Y-81685992D02*
X189417990Y-84114510D01*
X191322010Y-79781972D02*
X189417990Y-81685992D01*
X190180000Y-65040000D02*
X191322010Y-66182010D01*
X191770000Y-76200000D02*
X191322010Y-75752010D01*
X191322010Y-66182010D02*
X191322010Y-75752010D01*
X191770000Y-76200000D02*
X191322010Y-76647990D01*
X191322010Y-76647990D02*
X191322010Y-79781972D01*
X191322010Y-75752010D02*
X191322010Y-76647990D01*
D14*
X191770000Y-76200000D02*
X192910000Y-76200000D01*
D16*
X165420000Y-87360000D02*
X166420000Y-86360000D01*
X187817990Y-89722010D02*
X188960000Y-88580000D01*
X170434124Y-87249124D02*
X169545000Y-86360000D01*
X171745142Y-87249124D02*
X170434124Y-87249124D01*
X174218028Y-89722010D02*
X171745142Y-87249124D01*
X187817990Y-89722010D02*
X174218028Y-89722010D01*
X166420000Y-86360000D02*
X169545000Y-86360000D01*
X167912010Y-62547990D02*
X166640000Y-63820000D01*
X181208711Y-62547990D02*
X167912010Y-62547990D01*
X183358348Y-64697627D02*
X181208711Y-62547990D01*
X186617627Y-64697627D02*
X183358348Y-64697627D01*
D13*
G04 #@! TO.N,Net-(D8-Pad2)*
X184150000Y-86759338D02*
X183550000Y-86159338D01*
X184150000Y-88770000D02*
X184150000Y-86759338D01*
G04 #@! TO.N,Net-(D15-Pad2)*
X167240662Y-82550000D02*
X167840662Y-81950000D01*
X165230000Y-82550000D02*
X167240662Y-82550000D01*
G04 #@! TO.N,Net-(D22-Pad2)*
X171450000Y-65640662D02*
X172050000Y-66240662D01*
X171450000Y-63500000D02*
X171450000Y-65640662D01*
G04 #@! TO.N,Net-(D25-Pad1)*
X180180854Y-65494716D02*
X179514703Y-64828565D01*
X182000715Y-65494716D02*
X180180854Y-65494716D01*
G04 #@! TO.N,Net-(D26-Pad1)*
X181794948Y-69176747D02*
X180906085Y-68287884D01*
X182587911Y-69176747D02*
X181794948Y-69176747D01*
D14*
G04 #@! TO.N,Net-(D27-Pad1)*
X184285716Y-66705680D02*
X184278489Y-66698453D01*
X184285716Y-70165351D02*
X184285716Y-66705680D01*
X184031686Y-70419381D02*
X184285716Y-70165351D01*
D13*
G04 #@! TO.N,Net-(D28-Pad1)*
X187566533Y-67040000D02*
X186229314Y-68377219D01*
X189230000Y-67040000D02*
X187566533Y-67040000D01*
G04 #@! TD*
D16*
G04 #@! TO.N,GND*
X206300001Y-65445567D02*
X206271249Y-65352686D01*
X206248074Y-65297555D01*
X206225661Y-65242080D01*
X206221334Y-65233944D01*
X206103446Y-65015914D01*
X206070012Y-64966346D01*
X206037240Y-64916265D01*
X206031416Y-64909124D01*
X205873423Y-64718144D01*
X205830988Y-64676005D01*
X205789125Y-64633255D01*
X205782024Y-64627381D01*
X205589946Y-64470727D01*
X205540169Y-64437655D01*
X205490763Y-64403826D01*
X205482657Y-64399444D01*
X205263809Y-64283081D01*
X205208532Y-64260298D01*
X205153525Y-64236721D01*
X205144722Y-64233997D01*
X204907441Y-64162357D01*
X204848754Y-64150736D01*
X204790248Y-64138300D01*
X204781085Y-64137337D01*
X204781083Y-64137337D01*
X204534405Y-64113150D01*
X204534402Y-64113150D01*
X204502419Y-64110000D01*
X201897581Y-64110000D01*
X201864339Y-64113274D01*
X201847863Y-64113274D01*
X201838698Y-64114237D01*
X201592382Y-64141866D01*
X201533865Y-64154305D01*
X201475192Y-64165922D01*
X201466389Y-64168647D01*
X201230131Y-64243592D01*
X201175209Y-64267132D01*
X201119842Y-64289952D01*
X201111736Y-64294336D01*
X200894534Y-64413744D01*
X200845171Y-64447543D01*
X200795352Y-64480643D01*
X200788252Y-64486517D01*
X200598379Y-64645839D01*
X200556516Y-64688588D01*
X200514082Y-64730727D01*
X200508258Y-64737868D01*
X200352947Y-64931035D01*
X200320186Y-64981099D01*
X200286740Y-65030685D01*
X200282418Y-65038814D01*
X200282415Y-65038819D01*
X200282414Y-65038822D01*
X200167582Y-65258476D01*
X200145173Y-65313942D01*
X200121994Y-65369081D01*
X200119330Y-65377903D01*
X200049348Y-65615679D01*
X200038139Y-65674441D01*
X200026110Y-65733038D01*
X200025211Y-65742209D01*
X200002747Y-65989049D01*
X200003165Y-66048866D01*
X200002747Y-66108682D01*
X200003646Y-66117853D01*
X200029554Y-66364357D01*
X200041588Y-66422983D01*
X200052792Y-66481716D01*
X200055456Y-66490538D01*
X200128751Y-66727314D01*
X200151931Y-66782457D01*
X200174339Y-66837920D01*
X200178665Y-66846054D01*
X200178667Y-66846059D01*
X200178670Y-66846064D01*
X200296553Y-67064086D01*
X200329988Y-67113654D01*
X200362759Y-67163735D01*
X200368584Y-67170876D01*
X200526577Y-67361856D01*
X200569012Y-67403995D01*
X200610875Y-67446745D01*
X200617976Y-67452618D01*
X200810053Y-67609273D01*
X200859875Y-67642374D01*
X200909237Y-67676173D01*
X200917343Y-67680556D01*
X201136191Y-67796919D01*
X201191479Y-67819707D01*
X201246475Y-67843279D01*
X201255278Y-67846003D01*
X201492559Y-67917643D01*
X201551246Y-67929264D01*
X201609752Y-67941700D01*
X201618915Y-67942663D01*
X201618917Y-67942663D01*
X201865595Y-67966850D01*
X201865598Y-67966850D01*
X201897581Y-67970000D01*
X204502419Y-67970000D01*
X204535661Y-67966726D01*
X204552137Y-67966726D01*
X204561302Y-67965763D01*
X204807618Y-67938134D01*
X204866098Y-67925703D01*
X204924808Y-67914079D01*
X204933611Y-67911353D01*
X205169869Y-67836408D01*
X205224824Y-67812854D01*
X205280158Y-67790047D01*
X205288264Y-67785664D01*
X205505466Y-67666256D01*
X205554791Y-67632482D01*
X205604648Y-67599357D01*
X205611749Y-67593483D01*
X205801621Y-67434160D01*
X205843465Y-67391431D01*
X205885918Y-67349273D01*
X205891742Y-67342132D01*
X206047053Y-67148965D01*
X206079814Y-67098901D01*
X206113260Y-67049315D01*
X206117586Y-67041179D01*
X206232418Y-66821524D01*
X206254802Y-66766120D01*
X206278007Y-66710919D01*
X206280670Y-66702097D01*
X206300001Y-66636418D01*
X206300001Y-72022067D01*
X205140750Y-72025000D01*
X204982000Y-72183750D01*
X204982000Y-73533000D01*
X205002000Y-73533000D01*
X205002000Y-73787000D01*
X204982000Y-73787000D01*
X204982000Y-75136250D01*
X205140750Y-75295000D01*
X206300001Y-75297933D01*
X206300000Y-77102067D01*
X205140750Y-77105000D01*
X204982000Y-77263750D01*
X204982000Y-78613000D01*
X205002000Y-78613000D01*
X205002000Y-78867000D01*
X204982000Y-78867000D01*
X204982000Y-80216250D01*
X205140750Y-80375000D01*
X206300000Y-80377933D01*
X206300000Y-83225566D01*
X206271249Y-83132686D01*
X206248074Y-83077555D01*
X206225661Y-83022080D01*
X206221334Y-83013944D01*
X206103446Y-82795914D01*
X206070012Y-82746346D01*
X206037240Y-82696265D01*
X206031416Y-82689124D01*
X205873423Y-82498144D01*
X205830988Y-82456005D01*
X205789125Y-82413255D01*
X205782024Y-82407381D01*
X205589946Y-82250727D01*
X205540169Y-82217655D01*
X205490763Y-82183826D01*
X205482657Y-82179444D01*
X205263809Y-82063081D01*
X205208532Y-82040298D01*
X205153525Y-82016721D01*
X205144722Y-82013997D01*
X204907441Y-81942357D01*
X204848754Y-81930736D01*
X204790248Y-81918300D01*
X204781085Y-81917337D01*
X204781083Y-81917337D01*
X204534405Y-81893150D01*
X204534402Y-81893150D01*
X204502419Y-81890000D01*
X201897581Y-81890000D01*
X201864339Y-81893274D01*
X201847863Y-81893274D01*
X201838698Y-81894237D01*
X201592382Y-81921866D01*
X201533865Y-81934305D01*
X201475192Y-81945922D01*
X201466389Y-81948647D01*
X201230131Y-82023592D01*
X201175209Y-82047132D01*
X201119842Y-82069952D01*
X201111736Y-82074336D01*
X200894534Y-82193744D01*
X200845171Y-82227543D01*
X200795352Y-82260643D01*
X200788252Y-82266517D01*
X200598379Y-82425839D01*
X200556516Y-82468588D01*
X200514082Y-82510727D01*
X200508258Y-82517868D01*
X200352947Y-82711035D01*
X200320186Y-82761099D01*
X200286740Y-82810685D01*
X200282418Y-82818814D01*
X200282415Y-82818819D01*
X200282414Y-82818822D01*
X200167582Y-83038476D01*
X200145173Y-83093942D01*
X200121994Y-83149081D01*
X200119330Y-83157903D01*
X200049348Y-83395679D01*
X200038139Y-83454441D01*
X200026110Y-83513038D01*
X200025211Y-83522209D01*
X200002747Y-83769049D01*
X200003165Y-83828866D01*
X200002747Y-83888682D01*
X200003646Y-83897853D01*
X200029554Y-84144357D01*
X200041588Y-84202983D01*
X200052792Y-84261716D01*
X200055456Y-84270538D01*
X200128751Y-84507314D01*
X200151931Y-84562457D01*
X200174339Y-84617920D01*
X200178665Y-84626054D01*
X200178667Y-84626059D01*
X200178670Y-84626064D01*
X200296553Y-84844086D01*
X200329988Y-84893654D01*
X200362759Y-84943735D01*
X200368584Y-84950876D01*
X200526577Y-85141856D01*
X200569012Y-85183995D01*
X200610875Y-85226745D01*
X200617976Y-85232618D01*
X200810053Y-85389273D01*
X200859875Y-85422374D01*
X200909237Y-85456173D01*
X200917343Y-85460556D01*
X201136191Y-85576919D01*
X201191479Y-85599707D01*
X201246475Y-85623279D01*
X201255278Y-85626003D01*
X201492559Y-85697643D01*
X201551246Y-85709264D01*
X201609752Y-85721700D01*
X201618915Y-85722663D01*
X201618917Y-85722663D01*
X201865595Y-85746850D01*
X201865598Y-85746850D01*
X201897581Y-85750000D01*
X204502419Y-85750000D01*
X204535661Y-85746726D01*
X204552137Y-85746726D01*
X204561302Y-85745763D01*
X204807618Y-85718134D01*
X204866098Y-85705703D01*
X204924808Y-85694079D01*
X204933611Y-85691353D01*
X205169869Y-85616408D01*
X205224824Y-85592854D01*
X205280158Y-85570047D01*
X205288264Y-85565664D01*
X205505466Y-85446256D01*
X205554791Y-85412482D01*
X205604648Y-85379357D01*
X205611749Y-85373483D01*
X205801621Y-85214160D01*
X205843465Y-85171431D01*
X205885918Y-85129273D01*
X205891742Y-85122132D01*
X206047053Y-84928965D01*
X206079814Y-84878901D01*
X206113260Y-84829315D01*
X206117586Y-84821179D01*
X206232418Y-84601524D01*
X206254802Y-84546120D01*
X206278007Y-84490919D01*
X206280670Y-84482097D01*
X206300000Y-84416419D01*
X206300000Y-97080000D01*
X156920000Y-97080000D01*
X156920000Y-93759872D01*
X157785000Y-93759872D01*
X157785000Y-94200128D01*
X157870890Y-94631925D01*
X158039369Y-95038669D01*
X158283962Y-95404729D01*
X158595271Y-95716038D01*
X158961331Y-95960631D01*
X159368075Y-96129110D01*
X159799872Y-96215000D01*
X160240128Y-96215000D01*
X160671925Y-96129110D01*
X161078669Y-95960631D01*
X161444729Y-95716038D01*
X161756038Y-95404729D01*
X162000631Y-95038669D01*
X162169110Y-94631925D01*
X162255000Y-94200128D01*
X162255000Y-93759872D01*
X162196347Y-93465000D01*
X164856928Y-93465000D01*
X164869188Y-93589482D01*
X164905498Y-93709180D01*
X164964463Y-93819494D01*
X165043815Y-93916185D01*
X165140506Y-93995537D01*
X165250820Y-94054502D01*
X165370518Y-94090812D01*
X165495000Y-94103072D01*
X166084250Y-94100000D01*
X166243000Y-93941250D01*
X166243000Y-92967000D01*
X166497000Y-92967000D01*
X166497000Y-93941250D01*
X166655750Y-94100000D01*
X167245000Y-94103072D01*
X167369482Y-94090812D01*
X167489180Y-94054502D01*
X167599494Y-93995537D01*
X167696185Y-93916185D01*
X167775537Y-93819494D01*
X167807406Y-93759872D01*
X193345000Y-93759872D01*
X193345000Y-94200128D01*
X193430890Y-94631925D01*
X193599369Y-95038669D01*
X193843962Y-95404729D01*
X194155271Y-95716038D01*
X194521331Y-95960631D01*
X194928075Y-96129110D01*
X195359872Y-96215000D01*
X195800128Y-96215000D01*
X196231925Y-96129110D01*
X196638669Y-95960631D01*
X197004729Y-95716038D01*
X197316038Y-95404729D01*
X197560631Y-95038669D01*
X197729110Y-94631925D01*
X197815000Y-94200128D01*
X197815000Y-93759872D01*
X197729110Y-93328075D01*
X197560631Y-92921331D01*
X197316038Y-92555271D01*
X197004729Y-92243962D01*
X196638669Y-91999369D01*
X196231925Y-91830890D01*
X195800128Y-91745000D01*
X195359872Y-91745000D01*
X194928075Y-91830890D01*
X194521331Y-91999369D01*
X194155271Y-92243962D01*
X193843962Y-92555271D01*
X193599369Y-92921331D01*
X193430890Y-93328075D01*
X193345000Y-93759872D01*
X167807406Y-93759872D01*
X167834502Y-93709180D01*
X167870812Y-93589482D01*
X167883072Y-93465000D01*
X167880000Y-93125750D01*
X167721250Y-92967000D01*
X166497000Y-92967000D01*
X166243000Y-92967000D01*
X165018750Y-92967000D01*
X164860000Y-93125750D01*
X164856928Y-93465000D01*
X162196347Y-93465000D01*
X162169110Y-93328075D01*
X162000631Y-92921331D01*
X161756038Y-92555271D01*
X161444729Y-92243962D01*
X161078669Y-91999369D01*
X160671925Y-91830890D01*
X160240128Y-91745000D01*
X159799872Y-91745000D01*
X159368075Y-91830890D01*
X158961331Y-91999369D01*
X158595271Y-92243962D01*
X158283962Y-92555271D01*
X158039369Y-92921331D01*
X157870890Y-93328075D01*
X157785000Y-93759872D01*
X156920000Y-93759872D01*
X156920000Y-69225000D01*
X161166928Y-69225000D01*
X161166928Y-70475000D01*
X161183992Y-70648254D01*
X161234528Y-70814850D01*
X161283000Y-70905535D01*
X161283001Y-81494464D01*
X161234528Y-81585150D01*
X161183992Y-81751746D01*
X161166928Y-81925000D01*
X161166928Y-83175000D01*
X161183992Y-83348254D01*
X161234528Y-83514850D01*
X161283000Y-83605535D01*
X161283001Y-88404151D01*
X161277452Y-88460490D01*
X161283001Y-88516829D01*
X161283001Y-88516830D01*
X161299598Y-88685341D01*
X161327381Y-88776928D01*
X161365185Y-88901551D01*
X161471691Y-89100811D01*
X161575412Y-89227195D01*
X161615026Y-89275465D01*
X161658785Y-89311377D01*
X164621610Y-92274203D01*
X164657525Y-92317965D01*
X164701284Y-92353877D01*
X164701287Y-92353880D01*
X164832178Y-92461299D01*
X164859290Y-92475790D01*
X164860000Y-92554250D01*
X165018750Y-92713000D01*
X166243000Y-92713000D01*
X166243000Y-92693000D01*
X166497000Y-92693000D01*
X166497000Y-92713000D01*
X167721250Y-92713000D01*
X167784260Y-92649990D01*
X170290897Y-92649990D01*
X170331614Y-92683405D01*
X170485150Y-92765472D01*
X170651746Y-92816008D01*
X170825000Y-92833072D01*
X172075000Y-92833072D01*
X172248254Y-92816008D01*
X172414850Y-92765472D01*
X172505534Y-92717000D01*
X183094466Y-92717000D01*
X183185150Y-92765472D01*
X183351746Y-92816008D01*
X183525000Y-92833072D01*
X184775000Y-92833072D01*
X184948254Y-92816008D01*
X185114850Y-92765472D01*
X185205534Y-92717000D01*
X190004161Y-92717000D01*
X190060490Y-92722548D01*
X190116819Y-92717000D01*
X190116830Y-92717000D01*
X190285341Y-92700403D01*
X190501551Y-92634816D01*
X190700812Y-92528309D01*
X190875465Y-92384975D01*
X190911382Y-92341210D01*
X193874207Y-89378386D01*
X193917965Y-89342475D01*
X193978440Y-89268787D01*
X194061299Y-89167822D01*
X194075790Y-89140710D01*
X194154250Y-89140000D01*
X194313000Y-88981250D01*
X194313000Y-87757000D01*
X194567000Y-87757000D01*
X194567000Y-88981250D01*
X194725750Y-89140000D01*
X195065000Y-89143072D01*
X195189482Y-89130812D01*
X195309180Y-89094502D01*
X195419494Y-89035537D01*
X195516185Y-88956185D01*
X195595537Y-88859494D01*
X195654502Y-88749180D01*
X195690812Y-88629482D01*
X195703072Y-88505000D01*
X195700000Y-87915750D01*
X195541250Y-87757000D01*
X194567000Y-87757000D01*
X194313000Y-87757000D01*
X194293000Y-87757000D01*
X194293000Y-87503000D01*
X194313000Y-87503000D01*
X194313000Y-86278750D01*
X194567000Y-86278750D01*
X194567000Y-87503000D01*
X195541250Y-87503000D01*
X195700000Y-87344250D01*
X195703072Y-86755000D01*
X195690812Y-86630518D01*
X195654502Y-86510820D01*
X195595537Y-86400506D01*
X195516185Y-86303815D01*
X195419494Y-86224463D01*
X195309180Y-86165498D01*
X195189482Y-86129188D01*
X195065000Y-86116928D01*
X194725750Y-86120000D01*
X194567000Y-86278750D01*
X194313000Y-86278750D01*
X194249990Y-86215740D01*
X194249990Y-83709103D01*
X194283405Y-83668386D01*
X194365472Y-83514850D01*
X194416008Y-83348254D01*
X194433072Y-83175000D01*
X194433072Y-82909030D01*
X195018226Y-82323877D01*
X195061985Y-82287965D01*
X195097899Y-82244204D01*
X195205319Y-82113313D01*
X195277106Y-81979007D01*
X195311826Y-81914051D01*
X195377413Y-81697841D01*
X195394010Y-81529330D01*
X195394010Y-81529320D01*
X195399558Y-81472991D01*
X195394010Y-81416661D01*
X195394010Y-79740000D01*
X202716928Y-79740000D01*
X202729188Y-79864482D01*
X202765498Y-79984180D01*
X202824463Y-80094494D01*
X202903815Y-80191185D01*
X203000506Y-80270537D01*
X203110820Y-80329502D01*
X203230518Y-80365812D01*
X203355000Y-80378072D01*
X204569250Y-80375000D01*
X204728000Y-80216250D01*
X204728000Y-78867000D01*
X202878750Y-78867000D01*
X202720000Y-79025750D01*
X202716928Y-79740000D01*
X195394010Y-79740000D01*
X195394010Y-77713072D01*
X196085000Y-77713072D01*
X196258254Y-77696008D01*
X196424850Y-77645472D01*
X196578386Y-77563405D01*
X196712962Y-77452962D01*
X196823405Y-77318386D01*
X196905472Y-77164850D01*
X196928481Y-77089000D01*
X199479447Y-77089000D01*
X199493559Y-77135521D01*
X199598728Y-77332279D01*
X199740262Y-77504738D01*
X199912721Y-77646272D01*
X200109479Y-77751441D01*
X200322973Y-77816204D01*
X200545000Y-77838072D01*
X202545000Y-77838072D01*
X202717277Y-77821104D01*
X202720000Y-78454250D01*
X202878750Y-78613000D01*
X204728000Y-78613000D01*
X204728000Y-77263750D01*
X204569250Y-77105000D01*
X203606438Y-77102564D01*
X203661204Y-76922027D01*
X203683072Y-76700000D01*
X203683072Y-75700000D01*
X203661204Y-75477973D01*
X203606438Y-75297436D01*
X204569250Y-75295000D01*
X204728000Y-75136250D01*
X204728000Y-73787000D01*
X202878750Y-73787000D01*
X202720000Y-73945750D01*
X202717277Y-74578896D01*
X202545000Y-74561928D01*
X200545000Y-74561928D01*
X200322973Y-74583796D01*
X200109479Y-74648559D01*
X199912721Y-74753728D01*
X199740262Y-74895262D01*
X199598728Y-75067721D01*
X199493559Y-75264479D01*
X199479447Y-75311000D01*
X196928481Y-75311000D01*
X196905472Y-75235150D01*
X196823405Y-75081614D01*
X196712962Y-74947038D01*
X196578386Y-74836595D01*
X196424850Y-74754528D01*
X196258254Y-74703992D01*
X196085000Y-74686928D01*
X195394010Y-74686928D01*
X195394010Y-72267000D01*
X199610809Y-72267000D01*
X199740262Y-72424738D01*
X199912721Y-72566272D01*
X200109479Y-72671441D01*
X200322973Y-72736204D01*
X200545000Y-72758072D01*
X202545000Y-72758072D01*
X202717277Y-72741104D01*
X202720000Y-73374250D01*
X202878750Y-73533000D01*
X204728000Y-73533000D01*
X204728000Y-72183750D01*
X204569250Y-72025000D01*
X203606438Y-72022564D01*
X203661204Y-71842027D01*
X203683072Y-71620000D01*
X203683072Y-70620000D01*
X203661204Y-70397973D01*
X203596441Y-70184479D01*
X203491272Y-69987721D01*
X203349738Y-69815262D01*
X203177279Y-69673728D01*
X202980521Y-69568559D01*
X202767027Y-69503796D01*
X202545000Y-69481928D01*
X200545000Y-69481928D01*
X200322973Y-69503796D01*
X200109479Y-69568559D01*
X199912721Y-69673728D01*
X199740262Y-69815262D01*
X199610809Y-69973000D01*
X194915103Y-69973000D01*
X194433072Y-69490970D01*
X194433072Y-69225000D01*
X194416008Y-69051746D01*
X194365472Y-68885150D01*
X194317000Y-68794466D01*
X194317000Y-63995839D01*
X194322548Y-63939510D01*
X194317000Y-63883180D01*
X194317000Y-63883170D01*
X194300403Y-63714659D01*
X194240455Y-63517038D01*
X194234816Y-63498448D01*
X194128309Y-63299188D01*
X194020890Y-63168297D01*
X194020887Y-63168294D01*
X193984975Y-63124535D01*
X193941215Y-63088622D01*
X190978392Y-60125800D01*
X190942475Y-60082035D01*
X190767822Y-59938701D01*
X190740710Y-59924210D01*
X190740000Y-59845750D01*
X190581250Y-59687000D01*
X189357000Y-59687000D01*
X189357000Y-59707000D01*
X189103000Y-59707000D01*
X189103000Y-59687000D01*
X187878750Y-59687000D01*
X187815740Y-59750010D01*
X185446435Y-59750010D01*
X185402962Y-59697038D01*
X185268386Y-59586595D01*
X185114850Y-59504528D01*
X184948254Y-59453992D01*
X184775000Y-59436928D01*
X183525000Y-59436928D01*
X183351746Y-59453992D01*
X183185150Y-59504528D01*
X183094466Y-59553000D01*
X172505534Y-59553000D01*
X172414850Y-59504528D01*
X172248254Y-59453992D01*
X172075000Y-59436928D01*
X170825000Y-59436928D01*
X170651746Y-59453992D01*
X170485150Y-59504528D01*
X170394466Y-59553000D01*
X165725850Y-59553000D01*
X165669510Y-59547451D01*
X165444659Y-59569597D01*
X165228448Y-59635184D01*
X165029188Y-59741691D01*
X164898297Y-59849110D01*
X164898296Y-59849111D01*
X164854535Y-59885025D01*
X164818622Y-59928785D01*
X161725800Y-63021608D01*
X161682035Y-63057525D01*
X161538701Y-63232179D01*
X161524210Y-63259290D01*
X161445750Y-63260000D01*
X161287000Y-63418750D01*
X161287000Y-64643000D01*
X161307000Y-64643000D01*
X161307000Y-64897000D01*
X161287000Y-64897000D01*
X161287000Y-66121250D01*
X161350010Y-66184260D01*
X161350011Y-68690896D01*
X161316595Y-68731614D01*
X161234528Y-68885150D01*
X161183992Y-69051746D01*
X161166928Y-69225000D01*
X156920000Y-69225000D01*
X156920000Y-65645000D01*
X159896928Y-65645000D01*
X159909188Y-65769482D01*
X159945498Y-65889180D01*
X160004463Y-65999494D01*
X160083815Y-66096185D01*
X160180506Y-66175537D01*
X160290820Y-66234502D01*
X160410518Y-66270812D01*
X160535000Y-66283072D01*
X160874250Y-66280000D01*
X161033000Y-66121250D01*
X161033000Y-64897000D01*
X160058750Y-64897000D01*
X159900000Y-65055750D01*
X159896928Y-65645000D01*
X156920000Y-65645000D01*
X156920000Y-63895000D01*
X159896928Y-63895000D01*
X159900000Y-64484250D01*
X160058750Y-64643000D01*
X161033000Y-64643000D01*
X161033000Y-63418750D01*
X160874250Y-63260000D01*
X160535000Y-63256928D01*
X160410518Y-63269188D01*
X160290820Y-63305498D01*
X160180506Y-63364463D01*
X160083815Y-63443815D01*
X160004463Y-63540506D01*
X159945498Y-63650820D01*
X159909188Y-63770518D01*
X159896928Y-63895000D01*
X156920000Y-63895000D01*
X156920000Y-58199872D01*
X157785000Y-58199872D01*
X157785000Y-58640128D01*
X157870890Y-59071925D01*
X158039369Y-59478669D01*
X158283962Y-59844729D01*
X158595271Y-60156038D01*
X158961331Y-60400631D01*
X159368075Y-60569110D01*
X159799872Y-60655000D01*
X160240128Y-60655000D01*
X160671925Y-60569110D01*
X161078669Y-60400631D01*
X161444729Y-60156038D01*
X161756038Y-59844729D01*
X162000631Y-59478669D01*
X162169110Y-59071925D01*
X162196346Y-58935000D01*
X187716928Y-58935000D01*
X187720000Y-59274250D01*
X187878750Y-59433000D01*
X189103000Y-59433000D01*
X189103000Y-58458750D01*
X189357000Y-58458750D01*
X189357000Y-59433000D01*
X190581250Y-59433000D01*
X190740000Y-59274250D01*
X190743072Y-58935000D01*
X190730812Y-58810518D01*
X190694502Y-58690820D01*
X190635537Y-58580506D01*
X190556185Y-58483815D01*
X190459494Y-58404463D01*
X190349180Y-58345498D01*
X190229482Y-58309188D01*
X190105000Y-58296928D01*
X189515750Y-58300000D01*
X189357000Y-58458750D01*
X189103000Y-58458750D01*
X188944250Y-58300000D01*
X188355000Y-58296928D01*
X188230518Y-58309188D01*
X188110820Y-58345498D01*
X188000506Y-58404463D01*
X187903815Y-58483815D01*
X187824463Y-58580506D01*
X187765498Y-58690820D01*
X187729188Y-58810518D01*
X187716928Y-58935000D01*
X162196346Y-58935000D01*
X162255000Y-58640128D01*
X162255000Y-58199872D01*
X193345000Y-58199872D01*
X193345000Y-58640128D01*
X193430890Y-59071925D01*
X193599369Y-59478669D01*
X193843962Y-59844729D01*
X194155271Y-60156038D01*
X194521331Y-60400631D01*
X194928075Y-60569110D01*
X195359872Y-60655000D01*
X195800128Y-60655000D01*
X196231925Y-60569110D01*
X196638669Y-60400631D01*
X197004729Y-60156038D01*
X197316038Y-59844729D01*
X197560631Y-59478669D01*
X197729110Y-59071925D01*
X197815000Y-58640128D01*
X197815000Y-58199872D01*
X197729110Y-57768075D01*
X197560631Y-57361331D01*
X197316038Y-56995271D01*
X197004729Y-56683962D01*
X196638669Y-56439369D01*
X196231925Y-56270890D01*
X195800128Y-56185000D01*
X195359872Y-56185000D01*
X194928075Y-56270890D01*
X194521331Y-56439369D01*
X194155271Y-56683962D01*
X193843962Y-56995271D01*
X193599369Y-57361331D01*
X193430890Y-57768075D01*
X193345000Y-58199872D01*
X162255000Y-58199872D01*
X162169110Y-57768075D01*
X162000631Y-57361331D01*
X161756038Y-56995271D01*
X161444729Y-56683962D01*
X161078669Y-56439369D01*
X160671925Y-56270890D01*
X160240128Y-56185000D01*
X159799872Y-56185000D01*
X159368075Y-56270890D01*
X158961331Y-56439369D01*
X158595271Y-56683962D01*
X158283962Y-56995271D01*
X158039369Y-57361331D01*
X157870890Y-57768075D01*
X157785000Y-58199872D01*
X156920000Y-58199872D01*
X156920000Y-55320000D01*
X206300001Y-55320000D01*
X206300001Y-65445567D01*
G04 #@! TA.AperFunction,Conductor*
D17*
G36*
X206300001Y-65445567D02*
G01*
X206271249Y-65352686D01*
X206248074Y-65297555D01*
X206225661Y-65242080D01*
X206221334Y-65233944D01*
X206103446Y-65015914D01*
X206070012Y-64966346D01*
X206037240Y-64916265D01*
X206031416Y-64909124D01*
X205873423Y-64718144D01*
X205830988Y-64676005D01*
X205789125Y-64633255D01*
X205782024Y-64627381D01*
X205589946Y-64470727D01*
X205540169Y-64437655D01*
X205490763Y-64403826D01*
X205482657Y-64399444D01*
X205263809Y-64283081D01*
X205208532Y-64260298D01*
X205153525Y-64236721D01*
X205144722Y-64233997D01*
X204907441Y-64162357D01*
X204848754Y-64150736D01*
X204790248Y-64138300D01*
X204781085Y-64137337D01*
X204781083Y-64137337D01*
X204534405Y-64113150D01*
X204534402Y-64113150D01*
X204502419Y-64110000D01*
X201897581Y-64110000D01*
X201864339Y-64113274D01*
X201847863Y-64113274D01*
X201838698Y-64114237D01*
X201592382Y-64141866D01*
X201533865Y-64154305D01*
X201475192Y-64165922D01*
X201466389Y-64168647D01*
X201230131Y-64243592D01*
X201175209Y-64267132D01*
X201119842Y-64289952D01*
X201111736Y-64294336D01*
X200894534Y-64413744D01*
X200845171Y-64447543D01*
X200795352Y-64480643D01*
X200788252Y-64486517D01*
X200598379Y-64645839D01*
X200556516Y-64688588D01*
X200514082Y-64730727D01*
X200508258Y-64737868D01*
X200352947Y-64931035D01*
X200320186Y-64981099D01*
X200286740Y-65030685D01*
X200282418Y-65038814D01*
X200282415Y-65038819D01*
X200282414Y-65038822D01*
X200167582Y-65258476D01*
X200145173Y-65313942D01*
X200121994Y-65369081D01*
X200119330Y-65377903D01*
X200049348Y-65615679D01*
X200038139Y-65674441D01*
X200026110Y-65733038D01*
X200025211Y-65742209D01*
X200002747Y-65989049D01*
X200003165Y-66048866D01*
X200002747Y-66108682D01*
X200003646Y-66117853D01*
X200029554Y-66364357D01*
X200041588Y-66422983D01*
X200052792Y-66481716D01*
X200055456Y-66490538D01*
X200128751Y-66727314D01*
X200151931Y-66782457D01*
X200174339Y-66837920D01*
X200178665Y-66846054D01*
X200178667Y-66846059D01*
X200178670Y-66846064D01*
X200296553Y-67064086D01*
X200329988Y-67113654D01*
X200362759Y-67163735D01*
X200368584Y-67170876D01*
X200526577Y-67361856D01*
X200569012Y-67403995D01*
X200610875Y-67446745D01*
X200617976Y-67452618D01*
X200810053Y-67609273D01*
X200859875Y-67642374D01*
X200909237Y-67676173D01*
X200917343Y-67680556D01*
X201136191Y-67796919D01*
X201191479Y-67819707D01*
X201246475Y-67843279D01*
X201255278Y-67846003D01*
X201492559Y-67917643D01*
X201551246Y-67929264D01*
X201609752Y-67941700D01*
X201618915Y-67942663D01*
X201618917Y-67942663D01*
X201865595Y-67966850D01*
X201865598Y-67966850D01*
X201897581Y-67970000D01*
X204502419Y-67970000D01*
X204535661Y-67966726D01*
X204552137Y-67966726D01*
X204561302Y-67965763D01*
X204807618Y-67938134D01*
X204866098Y-67925703D01*
X204924808Y-67914079D01*
X204933611Y-67911353D01*
X205169869Y-67836408D01*
X205224824Y-67812854D01*
X205280158Y-67790047D01*
X205288264Y-67785664D01*
X205505466Y-67666256D01*
X205554791Y-67632482D01*
X205604648Y-67599357D01*
X205611749Y-67593483D01*
X205801621Y-67434160D01*
X205843465Y-67391431D01*
X205885918Y-67349273D01*
X205891742Y-67342132D01*
X206047053Y-67148965D01*
X206079814Y-67098901D01*
X206113260Y-67049315D01*
X206117586Y-67041179D01*
X206232418Y-66821524D01*
X206254802Y-66766120D01*
X206278007Y-66710919D01*
X206280670Y-66702097D01*
X206300001Y-66636418D01*
X206300001Y-72022067D01*
X205140750Y-72025000D01*
X204982000Y-72183750D01*
X204982000Y-73533000D01*
X205002000Y-73533000D01*
X205002000Y-73787000D01*
X204982000Y-73787000D01*
X204982000Y-75136250D01*
X205140750Y-75295000D01*
X206300001Y-75297933D01*
X206300000Y-77102067D01*
X205140750Y-77105000D01*
X204982000Y-77263750D01*
X204982000Y-78613000D01*
X205002000Y-78613000D01*
X205002000Y-78867000D01*
X204982000Y-78867000D01*
X204982000Y-80216250D01*
X205140750Y-80375000D01*
X206300000Y-80377933D01*
X206300000Y-83225566D01*
X206271249Y-83132686D01*
X206248074Y-83077555D01*
X206225661Y-83022080D01*
X206221334Y-83013944D01*
X206103446Y-82795914D01*
X206070012Y-82746346D01*
X206037240Y-82696265D01*
X206031416Y-82689124D01*
X205873423Y-82498144D01*
X205830988Y-82456005D01*
X205789125Y-82413255D01*
X205782024Y-82407381D01*
X205589946Y-82250727D01*
X205540169Y-82217655D01*
X205490763Y-82183826D01*
X205482657Y-82179444D01*
X205263809Y-82063081D01*
X205208532Y-82040298D01*
X205153525Y-82016721D01*
X205144722Y-82013997D01*
X204907441Y-81942357D01*
X204848754Y-81930736D01*
X204790248Y-81918300D01*
X204781085Y-81917337D01*
X204781083Y-81917337D01*
X204534405Y-81893150D01*
X204534402Y-81893150D01*
X204502419Y-81890000D01*
X201897581Y-81890000D01*
X201864339Y-81893274D01*
X201847863Y-81893274D01*
X201838698Y-81894237D01*
X201592382Y-81921866D01*
X201533865Y-81934305D01*
X201475192Y-81945922D01*
X201466389Y-81948647D01*
X201230131Y-82023592D01*
X201175209Y-82047132D01*
X201119842Y-82069952D01*
X201111736Y-82074336D01*
X200894534Y-82193744D01*
X200845171Y-82227543D01*
X200795352Y-82260643D01*
X200788252Y-82266517D01*
X200598379Y-82425839D01*
X200556516Y-82468588D01*
X200514082Y-82510727D01*
X200508258Y-82517868D01*
X200352947Y-82711035D01*
X200320186Y-82761099D01*
X200286740Y-82810685D01*
X200282418Y-82818814D01*
X200282415Y-82818819D01*
X200282414Y-82818822D01*
X200167582Y-83038476D01*
X200145173Y-83093942D01*
X200121994Y-83149081D01*
X200119330Y-83157903D01*
X200049348Y-83395679D01*
X200038139Y-83454441D01*
X200026110Y-83513038D01*
X200025211Y-83522209D01*
X200002747Y-83769049D01*
X200003165Y-83828866D01*
X200002747Y-83888682D01*
X200003646Y-83897853D01*
X200029554Y-84144357D01*
X200041588Y-84202983D01*
X200052792Y-84261716D01*
X200055456Y-84270538D01*
X200128751Y-84507314D01*
X200151931Y-84562457D01*
X200174339Y-84617920D01*
X200178665Y-84626054D01*
X200178667Y-84626059D01*
X200178670Y-84626064D01*
X200296553Y-84844086D01*
X200329988Y-84893654D01*
X200362759Y-84943735D01*
X200368584Y-84950876D01*
X200526577Y-85141856D01*
X200569012Y-85183995D01*
X200610875Y-85226745D01*
X200617976Y-85232618D01*
X200810053Y-85389273D01*
X200859875Y-85422374D01*
X200909237Y-85456173D01*
X200917343Y-85460556D01*
X201136191Y-85576919D01*
X201191479Y-85599707D01*
X201246475Y-85623279D01*
X201255278Y-85626003D01*
X201492559Y-85697643D01*
X201551246Y-85709264D01*
X201609752Y-85721700D01*
X201618915Y-85722663D01*
X201618917Y-85722663D01*
X201865595Y-85746850D01*
X201865598Y-85746850D01*
X201897581Y-85750000D01*
X204502419Y-85750000D01*
X204535661Y-85746726D01*
X204552137Y-85746726D01*
X204561302Y-85745763D01*
X204807618Y-85718134D01*
X204866098Y-85705703D01*
X204924808Y-85694079D01*
X204933611Y-85691353D01*
X205169869Y-85616408D01*
X205224824Y-85592854D01*
X205280158Y-85570047D01*
X205288264Y-85565664D01*
X205505466Y-85446256D01*
X205554791Y-85412482D01*
X205604648Y-85379357D01*
X205611749Y-85373483D01*
X205801621Y-85214160D01*
X205843465Y-85171431D01*
X205885918Y-85129273D01*
X205891742Y-85122132D01*
X206047053Y-84928965D01*
X206079814Y-84878901D01*
X206113260Y-84829315D01*
X206117586Y-84821179D01*
X206232418Y-84601524D01*
X206254802Y-84546120D01*
X206278007Y-84490919D01*
X206280670Y-84482097D01*
X206300000Y-84416419D01*
X206300000Y-97080000D01*
X156920000Y-97080000D01*
X156920000Y-93759872D01*
X157785000Y-93759872D01*
X157785000Y-94200128D01*
X157870890Y-94631925D01*
X158039369Y-95038669D01*
X158283962Y-95404729D01*
X158595271Y-95716038D01*
X158961331Y-95960631D01*
X159368075Y-96129110D01*
X159799872Y-96215000D01*
X160240128Y-96215000D01*
X160671925Y-96129110D01*
X161078669Y-95960631D01*
X161444729Y-95716038D01*
X161756038Y-95404729D01*
X162000631Y-95038669D01*
X162169110Y-94631925D01*
X162255000Y-94200128D01*
X162255000Y-93759872D01*
X162196347Y-93465000D01*
X164856928Y-93465000D01*
X164869188Y-93589482D01*
X164905498Y-93709180D01*
X164964463Y-93819494D01*
X165043815Y-93916185D01*
X165140506Y-93995537D01*
X165250820Y-94054502D01*
X165370518Y-94090812D01*
X165495000Y-94103072D01*
X166084250Y-94100000D01*
X166243000Y-93941250D01*
X166243000Y-92967000D01*
X166497000Y-92967000D01*
X166497000Y-93941250D01*
X166655750Y-94100000D01*
X167245000Y-94103072D01*
X167369482Y-94090812D01*
X167489180Y-94054502D01*
X167599494Y-93995537D01*
X167696185Y-93916185D01*
X167775537Y-93819494D01*
X167807406Y-93759872D01*
X193345000Y-93759872D01*
X193345000Y-94200128D01*
X193430890Y-94631925D01*
X193599369Y-95038669D01*
X193843962Y-95404729D01*
X194155271Y-95716038D01*
X194521331Y-95960631D01*
X194928075Y-96129110D01*
X195359872Y-96215000D01*
X195800128Y-96215000D01*
X196231925Y-96129110D01*
X196638669Y-95960631D01*
X197004729Y-95716038D01*
X197316038Y-95404729D01*
X197560631Y-95038669D01*
X197729110Y-94631925D01*
X197815000Y-94200128D01*
X197815000Y-93759872D01*
X197729110Y-93328075D01*
X197560631Y-92921331D01*
X197316038Y-92555271D01*
X197004729Y-92243962D01*
X196638669Y-91999369D01*
X196231925Y-91830890D01*
X195800128Y-91745000D01*
X195359872Y-91745000D01*
X194928075Y-91830890D01*
X194521331Y-91999369D01*
X194155271Y-92243962D01*
X193843962Y-92555271D01*
X193599369Y-92921331D01*
X193430890Y-93328075D01*
X193345000Y-93759872D01*
X167807406Y-93759872D01*
X167834502Y-93709180D01*
X167870812Y-93589482D01*
X167883072Y-93465000D01*
X167880000Y-93125750D01*
X167721250Y-92967000D01*
X166497000Y-92967000D01*
X166243000Y-92967000D01*
X165018750Y-92967000D01*
X164860000Y-93125750D01*
X164856928Y-93465000D01*
X162196347Y-93465000D01*
X162169110Y-93328075D01*
X162000631Y-92921331D01*
X161756038Y-92555271D01*
X161444729Y-92243962D01*
X161078669Y-91999369D01*
X160671925Y-91830890D01*
X160240128Y-91745000D01*
X159799872Y-91745000D01*
X159368075Y-91830890D01*
X158961331Y-91999369D01*
X158595271Y-92243962D01*
X158283962Y-92555271D01*
X158039369Y-92921331D01*
X157870890Y-93328075D01*
X157785000Y-93759872D01*
X156920000Y-93759872D01*
X156920000Y-69225000D01*
X161166928Y-69225000D01*
X161166928Y-70475000D01*
X161183992Y-70648254D01*
X161234528Y-70814850D01*
X161283000Y-70905535D01*
X161283001Y-81494464D01*
X161234528Y-81585150D01*
X161183992Y-81751746D01*
X161166928Y-81925000D01*
X161166928Y-83175000D01*
X161183992Y-83348254D01*
X161234528Y-83514850D01*
X161283000Y-83605535D01*
X161283001Y-88404151D01*
X161277452Y-88460490D01*
X161283001Y-88516829D01*
X161283001Y-88516830D01*
X161299598Y-88685341D01*
X161327381Y-88776928D01*
X161365185Y-88901551D01*
X161471691Y-89100811D01*
X161575412Y-89227195D01*
X161615026Y-89275465D01*
X161658785Y-89311377D01*
X164621610Y-92274203D01*
X164657525Y-92317965D01*
X164701284Y-92353877D01*
X164701287Y-92353880D01*
X164832178Y-92461299D01*
X164859290Y-92475790D01*
X164860000Y-92554250D01*
X165018750Y-92713000D01*
X166243000Y-92713000D01*
X166243000Y-92693000D01*
X166497000Y-92693000D01*
X166497000Y-92713000D01*
X167721250Y-92713000D01*
X167784260Y-92649990D01*
X170290897Y-92649990D01*
X170331614Y-92683405D01*
X170485150Y-92765472D01*
X170651746Y-92816008D01*
X170825000Y-92833072D01*
X172075000Y-92833072D01*
X172248254Y-92816008D01*
X172414850Y-92765472D01*
X172505534Y-92717000D01*
X183094466Y-92717000D01*
X183185150Y-92765472D01*
X183351746Y-92816008D01*
X183525000Y-92833072D01*
X184775000Y-92833072D01*
X184948254Y-92816008D01*
X185114850Y-92765472D01*
X185205534Y-92717000D01*
X190004161Y-92717000D01*
X190060490Y-92722548D01*
X190116819Y-92717000D01*
X190116830Y-92717000D01*
X190285341Y-92700403D01*
X190501551Y-92634816D01*
X190700812Y-92528309D01*
X190875465Y-92384975D01*
X190911382Y-92341210D01*
X193874207Y-89378386D01*
X193917965Y-89342475D01*
X193978440Y-89268787D01*
X194061299Y-89167822D01*
X194075790Y-89140710D01*
X194154250Y-89140000D01*
X194313000Y-88981250D01*
X194313000Y-87757000D01*
X194567000Y-87757000D01*
X194567000Y-88981250D01*
X194725750Y-89140000D01*
X195065000Y-89143072D01*
X195189482Y-89130812D01*
X195309180Y-89094502D01*
X195419494Y-89035537D01*
X195516185Y-88956185D01*
X195595537Y-88859494D01*
X195654502Y-88749180D01*
X195690812Y-88629482D01*
X195703072Y-88505000D01*
X195700000Y-87915750D01*
X195541250Y-87757000D01*
X194567000Y-87757000D01*
X194313000Y-87757000D01*
X194293000Y-87757000D01*
X194293000Y-87503000D01*
X194313000Y-87503000D01*
X194313000Y-86278750D01*
X194567000Y-86278750D01*
X194567000Y-87503000D01*
X195541250Y-87503000D01*
X195700000Y-87344250D01*
X195703072Y-86755000D01*
X195690812Y-86630518D01*
X195654502Y-86510820D01*
X195595537Y-86400506D01*
X195516185Y-86303815D01*
X195419494Y-86224463D01*
X195309180Y-86165498D01*
X195189482Y-86129188D01*
X195065000Y-86116928D01*
X194725750Y-86120000D01*
X194567000Y-86278750D01*
X194313000Y-86278750D01*
X194249990Y-86215740D01*
X194249990Y-83709103D01*
X194283405Y-83668386D01*
X194365472Y-83514850D01*
X194416008Y-83348254D01*
X194433072Y-83175000D01*
X194433072Y-82909030D01*
X195018226Y-82323877D01*
X195061985Y-82287965D01*
X195097899Y-82244204D01*
X195205319Y-82113313D01*
X195277106Y-81979007D01*
X195311826Y-81914051D01*
X195377413Y-81697841D01*
X195394010Y-81529330D01*
X195394010Y-81529320D01*
X195399558Y-81472991D01*
X195394010Y-81416661D01*
X195394010Y-79740000D01*
X202716928Y-79740000D01*
X202729188Y-79864482D01*
X202765498Y-79984180D01*
X202824463Y-80094494D01*
X202903815Y-80191185D01*
X203000506Y-80270537D01*
X203110820Y-80329502D01*
X203230518Y-80365812D01*
X203355000Y-80378072D01*
X204569250Y-80375000D01*
X204728000Y-80216250D01*
X204728000Y-78867000D01*
X202878750Y-78867000D01*
X202720000Y-79025750D01*
X202716928Y-79740000D01*
X195394010Y-79740000D01*
X195394010Y-77713072D01*
X196085000Y-77713072D01*
X196258254Y-77696008D01*
X196424850Y-77645472D01*
X196578386Y-77563405D01*
X196712962Y-77452962D01*
X196823405Y-77318386D01*
X196905472Y-77164850D01*
X196928481Y-77089000D01*
X199479447Y-77089000D01*
X199493559Y-77135521D01*
X199598728Y-77332279D01*
X199740262Y-77504738D01*
X199912721Y-77646272D01*
X200109479Y-77751441D01*
X200322973Y-77816204D01*
X200545000Y-77838072D01*
X202545000Y-77838072D01*
X202717277Y-77821104D01*
X202720000Y-78454250D01*
X202878750Y-78613000D01*
X204728000Y-78613000D01*
X204728000Y-77263750D01*
X204569250Y-77105000D01*
X203606438Y-77102564D01*
X203661204Y-76922027D01*
X203683072Y-76700000D01*
X203683072Y-75700000D01*
X203661204Y-75477973D01*
X203606438Y-75297436D01*
X204569250Y-75295000D01*
X204728000Y-75136250D01*
X204728000Y-73787000D01*
X202878750Y-73787000D01*
X202720000Y-73945750D01*
X202717277Y-74578896D01*
X202545000Y-74561928D01*
X200545000Y-74561928D01*
X200322973Y-74583796D01*
X200109479Y-74648559D01*
X199912721Y-74753728D01*
X199740262Y-74895262D01*
X199598728Y-75067721D01*
X199493559Y-75264479D01*
X199479447Y-75311000D01*
X196928481Y-75311000D01*
X196905472Y-75235150D01*
X196823405Y-75081614D01*
X196712962Y-74947038D01*
X196578386Y-74836595D01*
X196424850Y-74754528D01*
X196258254Y-74703992D01*
X196085000Y-74686928D01*
X195394010Y-74686928D01*
X195394010Y-72267000D01*
X199610809Y-72267000D01*
X199740262Y-72424738D01*
X199912721Y-72566272D01*
X200109479Y-72671441D01*
X200322973Y-72736204D01*
X200545000Y-72758072D01*
X202545000Y-72758072D01*
X202717277Y-72741104D01*
X202720000Y-73374250D01*
X202878750Y-73533000D01*
X204728000Y-73533000D01*
X204728000Y-72183750D01*
X204569250Y-72025000D01*
X203606438Y-72022564D01*
X203661204Y-71842027D01*
X203683072Y-71620000D01*
X203683072Y-70620000D01*
X203661204Y-70397973D01*
X203596441Y-70184479D01*
X203491272Y-69987721D01*
X203349738Y-69815262D01*
X203177279Y-69673728D01*
X202980521Y-69568559D01*
X202767027Y-69503796D01*
X202545000Y-69481928D01*
X200545000Y-69481928D01*
X200322973Y-69503796D01*
X200109479Y-69568559D01*
X199912721Y-69673728D01*
X199740262Y-69815262D01*
X199610809Y-69973000D01*
X194915103Y-69973000D01*
X194433072Y-69490970D01*
X194433072Y-69225000D01*
X194416008Y-69051746D01*
X194365472Y-68885150D01*
X194317000Y-68794466D01*
X194317000Y-63995839D01*
X194322548Y-63939510D01*
X194317000Y-63883180D01*
X194317000Y-63883170D01*
X194300403Y-63714659D01*
X194240455Y-63517038D01*
X194234816Y-63498448D01*
X194128309Y-63299188D01*
X194020890Y-63168297D01*
X194020887Y-63168294D01*
X193984975Y-63124535D01*
X193941215Y-63088622D01*
X190978392Y-60125800D01*
X190942475Y-60082035D01*
X190767822Y-59938701D01*
X190740710Y-59924210D01*
X190740000Y-59845750D01*
X190581250Y-59687000D01*
X189357000Y-59687000D01*
X189357000Y-59707000D01*
X189103000Y-59707000D01*
X189103000Y-59687000D01*
X187878750Y-59687000D01*
X187815740Y-59750010D01*
X185446435Y-59750010D01*
X185402962Y-59697038D01*
X185268386Y-59586595D01*
X185114850Y-59504528D01*
X184948254Y-59453992D01*
X184775000Y-59436928D01*
X183525000Y-59436928D01*
X183351746Y-59453992D01*
X183185150Y-59504528D01*
X183094466Y-59553000D01*
X172505534Y-59553000D01*
X172414850Y-59504528D01*
X172248254Y-59453992D01*
X172075000Y-59436928D01*
X170825000Y-59436928D01*
X170651746Y-59453992D01*
X170485150Y-59504528D01*
X170394466Y-59553000D01*
X165725850Y-59553000D01*
X165669510Y-59547451D01*
X165444659Y-59569597D01*
X165228448Y-59635184D01*
X165029188Y-59741691D01*
X164898297Y-59849110D01*
X164898296Y-59849111D01*
X164854535Y-59885025D01*
X164818622Y-59928785D01*
X161725800Y-63021608D01*
X161682035Y-63057525D01*
X161538701Y-63232179D01*
X161524210Y-63259290D01*
X161445750Y-63260000D01*
X161287000Y-63418750D01*
X161287000Y-64643000D01*
X161307000Y-64643000D01*
X161307000Y-64897000D01*
X161287000Y-64897000D01*
X161287000Y-66121250D01*
X161350010Y-66184260D01*
X161350011Y-68690896D01*
X161316595Y-68731614D01*
X161234528Y-68885150D01*
X161183992Y-69051746D01*
X161166928Y-69225000D01*
X156920000Y-69225000D01*
X156920000Y-65645000D01*
X159896928Y-65645000D01*
X159909188Y-65769482D01*
X159945498Y-65889180D01*
X160004463Y-65999494D01*
X160083815Y-66096185D01*
X160180506Y-66175537D01*
X160290820Y-66234502D01*
X160410518Y-66270812D01*
X160535000Y-66283072D01*
X160874250Y-66280000D01*
X161033000Y-66121250D01*
X161033000Y-64897000D01*
X160058750Y-64897000D01*
X159900000Y-65055750D01*
X159896928Y-65645000D01*
X156920000Y-65645000D01*
X156920000Y-63895000D01*
X159896928Y-63895000D01*
X159900000Y-64484250D01*
X160058750Y-64643000D01*
X161033000Y-64643000D01*
X161033000Y-63418750D01*
X160874250Y-63260000D01*
X160535000Y-63256928D01*
X160410518Y-63269188D01*
X160290820Y-63305498D01*
X160180506Y-63364463D01*
X160083815Y-63443815D01*
X160004463Y-63540506D01*
X159945498Y-63650820D01*
X159909188Y-63770518D01*
X159896928Y-63895000D01*
X156920000Y-63895000D01*
X156920000Y-58199872D01*
X157785000Y-58199872D01*
X157785000Y-58640128D01*
X157870890Y-59071925D01*
X158039369Y-59478669D01*
X158283962Y-59844729D01*
X158595271Y-60156038D01*
X158961331Y-60400631D01*
X159368075Y-60569110D01*
X159799872Y-60655000D01*
X160240128Y-60655000D01*
X160671925Y-60569110D01*
X161078669Y-60400631D01*
X161444729Y-60156038D01*
X161756038Y-59844729D01*
X162000631Y-59478669D01*
X162169110Y-59071925D01*
X162196346Y-58935000D01*
X187716928Y-58935000D01*
X187720000Y-59274250D01*
X187878750Y-59433000D01*
X189103000Y-59433000D01*
X189103000Y-58458750D01*
X189357000Y-58458750D01*
X189357000Y-59433000D01*
X190581250Y-59433000D01*
X190740000Y-59274250D01*
X190743072Y-58935000D01*
X190730812Y-58810518D01*
X190694502Y-58690820D01*
X190635537Y-58580506D01*
X190556185Y-58483815D01*
X190459494Y-58404463D01*
X190349180Y-58345498D01*
X190229482Y-58309188D01*
X190105000Y-58296928D01*
X189515750Y-58300000D01*
X189357000Y-58458750D01*
X189103000Y-58458750D01*
X188944250Y-58300000D01*
X188355000Y-58296928D01*
X188230518Y-58309188D01*
X188110820Y-58345498D01*
X188000506Y-58404463D01*
X187903815Y-58483815D01*
X187824463Y-58580506D01*
X187765498Y-58690820D01*
X187729188Y-58810518D01*
X187716928Y-58935000D01*
X162196346Y-58935000D01*
X162255000Y-58640128D01*
X162255000Y-58199872D01*
X193345000Y-58199872D01*
X193345000Y-58640128D01*
X193430890Y-59071925D01*
X193599369Y-59478669D01*
X193843962Y-59844729D01*
X194155271Y-60156038D01*
X194521331Y-60400631D01*
X194928075Y-60569110D01*
X195359872Y-60655000D01*
X195800128Y-60655000D01*
X196231925Y-60569110D01*
X196638669Y-60400631D01*
X197004729Y-60156038D01*
X197316038Y-59844729D01*
X197560631Y-59478669D01*
X197729110Y-59071925D01*
X197815000Y-58640128D01*
X197815000Y-58199872D01*
X197729110Y-57768075D01*
X197560631Y-57361331D01*
X197316038Y-56995271D01*
X197004729Y-56683962D01*
X196638669Y-56439369D01*
X196231925Y-56270890D01*
X195800128Y-56185000D01*
X195359872Y-56185000D01*
X194928075Y-56270890D01*
X194521331Y-56439369D01*
X194155271Y-56683962D01*
X193843962Y-56995271D01*
X193599369Y-57361331D01*
X193430890Y-57768075D01*
X193345000Y-58199872D01*
X162255000Y-58199872D01*
X162169110Y-57768075D01*
X162000631Y-57361331D01*
X161756038Y-56995271D01*
X161444729Y-56683962D01*
X161078669Y-56439369D01*
X160671925Y-56270890D01*
X160240128Y-56185000D01*
X159799872Y-56185000D01*
X159368075Y-56270890D01*
X158961331Y-56439369D01*
X158595271Y-56683962D01*
X158283962Y-56995271D01*
X158039369Y-57361331D01*
X157870890Y-57768075D01*
X157785000Y-58199872D01*
X156920000Y-58199872D01*
X156920000Y-55320000D01*
X206300001Y-55320000D01*
X206300001Y-65445567D01*
G37*
G04 #@! TD.AperFunction*
G04 #@! TD*
M02*
