G04 #@! TF.GenerationSoftware,KiCad,Pcbnew,5.1.8-db9833491~87~ubuntu20.04.1*
G04 #@! TF.CreationDate,2020-11-24T17:51:12+00:00*
G04 #@! TF.ProjectId,LEDring,4c454472-696e-4672-9e6b-696361645f70,rev?*
G04 #@! TF.SameCoordinates,Original*
G04 #@! TF.FileFunction,Legend,Top*
G04 #@! TF.FilePolarity,Positive*
%FSLAX46Y46*%
G04 Gerber Fmt 4.6, Leading zero omitted, Abs format (unit mm)*
G04 Created by KiCad (PCBNEW 5.1.8-db9833491~87~ubuntu20.04.1) date 2020-11-24 17:51:12*
%MOMM*%
%LPD*%
G01*
G04 APERTURE LIST*
%ADD10C,0.150000*%
%ADD11C,0.120000*%
%ADD12C,0.110000*%
G04 APERTURE END LIST*
D10*
X199546785Y-73160000D02*
X199451547Y-73112380D01*
X199308690Y-73112380D01*
X199165833Y-73160000D01*
X199070595Y-73255238D01*
X199022976Y-73350476D01*
X198975357Y-73540952D01*
X198975357Y-73683809D01*
X199022976Y-73874285D01*
X199070595Y-73969523D01*
X199165833Y-74064761D01*
X199308690Y-74112380D01*
X199403928Y-74112380D01*
X199546785Y-74064761D01*
X199594404Y-74017142D01*
X199594404Y-73683809D01*
X199403928Y-73683809D01*
X200022976Y-74112380D02*
X200022976Y-73112380D01*
X200594404Y-74112380D01*
X200594404Y-73112380D01*
X201070595Y-74112380D02*
X201070595Y-73112380D01*
X201308690Y-73112380D01*
X201451547Y-73160000D01*
X201546785Y-73255238D01*
X201594404Y-73350476D01*
X201642023Y-73540952D01*
X201642023Y-73683809D01*
X201594404Y-73874285D01*
X201546785Y-73969523D01*
X201451547Y-74064761D01*
X201308690Y-74112380D01*
X201070595Y-74112380D01*
X199546785Y-78240000D02*
X199451547Y-78192380D01*
X199308690Y-78192380D01*
X199165833Y-78240000D01*
X199070595Y-78335238D01*
X199022976Y-78430476D01*
X198975357Y-78620952D01*
X198975357Y-78763809D01*
X199022976Y-78954285D01*
X199070595Y-79049523D01*
X199165833Y-79144761D01*
X199308690Y-79192380D01*
X199403928Y-79192380D01*
X199546785Y-79144761D01*
X199594404Y-79097142D01*
X199594404Y-78763809D01*
X199403928Y-78763809D01*
X200022976Y-79192380D02*
X200022976Y-78192380D01*
X200594404Y-79192380D01*
X200594404Y-78192380D01*
X201070595Y-79192380D02*
X201070595Y-78192380D01*
X201308690Y-78192380D01*
X201451547Y-78240000D01*
X201546785Y-78335238D01*
X201594404Y-78430476D01*
X201642023Y-78620952D01*
X201642023Y-78763809D01*
X201594404Y-78954285D01*
X201546785Y-79049523D01*
X201451547Y-79144761D01*
X201308690Y-79192380D01*
X201070595Y-79192380D01*
X196879880Y-76652380D02*
X196879880Y-75652380D01*
X197260833Y-75652380D01*
X197356071Y-75700000D01*
X197403690Y-75747619D01*
X197451309Y-75842857D01*
X197451309Y-75985714D01*
X197403690Y-76080952D01*
X197356071Y-76128571D01*
X197260833Y-76176190D01*
X196879880Y-76176190D01*
X197784642Y-75652380D02*
X198022738Y-76652380D01*
X198213214Y-75938095D01*
X198403690Y-76652380D01*
X198641785Y-75652380D01*
X199022738Y-76652380D02*
X199022738Y-75652380D01*
X199356071Y-76366666D01*
X199689404Y-75652380D01*
X199689404Y-76652380D01*
X196165595Y-71191428D02*
X196927500Y-71191428D01*
X196546547Y-71572380D02*
X196546547Y-70810476D01*
X197356071Y-70667619D02*
X197403690Y-70620000D01*
X197498928Y-70572380D01*
X197737023Y-70572380D01*
X197832261Y-70620000D01*
X197879880Y-70667619D01*
X197927500Y-70762857D01*
X197927500Y-70858095D01*
X197879880Y-71000952D01*
X197308452Y-71572380D01*
X197927500Y-71572380D01*
X198784642Y-70905714D02*
X198784642Y-71572380D01*
X198546547Y-70524761D02*
X198308452Y-71239047D01*
X198927500Y-71239047D01*
X199165595Y-70572380D02*
X199498928Y-71572380D01*
X199832261Y-70572380D01*
D11*
G04 #@! TO.C,Q1*
X187200000Y-86050000D02*
X187200000Y-86980000D01*
X187200000Y-89210000D02*
X187200000Y-88280000D01*
X187200000Y-89210000D02*
X189360000Y-89210000D01*
X187200000Y-86050000D02*
X188660000Y-86050000D01*
G04 #@! TO.C,R2*
X189067221Y-84580000D02*
X189392779Y-84580000D01*
X189067221Y-85600000D02*
X189392779Y-85600000D01*
G04 #@! TO.C,R4*
X192372064Y-70760000D02*
X191167936Y-70760000D01*
X192372064Y-68940000D02*
X191167936Y-68940000D01*
G04 #@! TO.C,R6*
X185060000Y-90772064D02*
X185060000Y-89567936D01*
X183240000Y-90772064D02*
X183240000Y-89567936D01*
G04 #@! TO.C,R8*
X163227936Y-81640000D02*
X164432064Y-81640000D01*
X163227936Y-83460000D02*
X164432064Y-83460000D01*
G04 #@! TO.C,R10*
X170540000Y-61497936D02*
X170540000Y-62702064D01*
X172360000Y-61497936D02*
X172360000Y-62702064D01*
G04 #@! TO.C,C1*
X192372064Y-83460000D02*
X191167936Y-83460000D01*
X192372064Y-81640000D02*
X191167936Y-81640000D01*
G04 #@! TO.C,C2*
X172360000Y-90772064D02*
X172360000Y-89567936D01*
X170540000Y-90772064D02*
X170540000Y-89567936D01*
G04 #@! TO.C,C3*
X163227936Y-68940000D02*
X164432064Y-68940000D01*
X163227936Y-70760000D02*
X164432064Y-70760000D01*
G04 #@! TO.C,C4*
X183240000Y-61497936D02*
X183240000Y-62702064D01*
X185060000Y-61497936D02*
X185060000Y-62702064D01*
G04 #@! TO.C,J1*
X201870000Y-69790000D02*
X204530000Y-69790000D01*
X201870000Y-80070000D02*
X204530000Y-80070000D01*
X204530000Y-69790000D02*
X204530000Y-72900000D01*
X201870000Y-70360000D02*
X200350000Y-70360000D01*
X201870000Y-69790000D02*
X201870000Y-70360000D01*
X204530000Y-79500000D02*
X204530000Y-80070000D01*
X204530000Y-74420000D02*
X204530000Y-77980000D01*
X201870000Y-71880000D02*
X201870000Y-75440000D01*
X201870000Y-76960000D02*
X201870000Y-80070000D01*
G04 #@! TO.C,Q2*
X167950000Y-85600000D02*
X167950000Y-87060000D01*
X164790000Y-85600000D02*
X164790000Y-87760000D01*
X164790000Y-85600000D02*
X165720000Y-85600000D01*
X167950000Y-85600000D02*
X167020000Y-85600000D01*
G04 #@! TO.C,Q3*
X168400000Y-66350000D02*
X166940000Y-66350000D01*
X168400000Y-63190000D02*
X166240000Y-63190000D01*
X168400000Y-63190000D02*
X168400000Y-64120000D01*
X168400000Y-66350000D02*
X168400000Y-65420000D01*
G04 #@! TO.C,Q4*
X187650000Y-66800000D02*
X188580000Y-66800000D01*
X190810000Y-66800000D02*
X189880000Y-66800000D01*
X190810000Y-66800000D02*
X190810000Y-64640000D01*
X187650000Y-66800000D02*
X187650000Y-65340000D01*
G04 #@! TO.C,R3*
X192437936Y-88540000D02*
X193642064Y-88540000D01*
X192437936Y-86720000D02*
X193642064Y-86720000D01*
G04 #@! TO.C,R5*
X167280000Y-90837936D02*
X167280000Y-92042064D01*
X165460000Y-90837936D02*
X165460000Y-92042064D01*
G04 #@! TO.C,R7*
X163162064Y-63860000D02*
X161957936Y-63860000D01*
X163162064Y-65680000D02*
X161957936Y-65680000D01*
G04 #@! TO.C,R9*
X188320000Y-61562064D02*
X188320000Y-60357936D01*
X190140000Y-61562064D02*
X190140000Y-60357936D01*
D10*
G04 #@! TO.C,D1*
X186426270Y-70633059D02*
X186934270Y-71512941D01*
G04 #@! TO.C,D2*
X187262301Y-73812629D02*
X186963556Y-72841543D01*
G04 #@! TO.C,D3*
X187987196Y-74927085D02*
X188063374Y-75940225D01*
G04 #@! TO.C,D4*
X187361192Y-78154706D02*
X187513120Y-77150130D01*
G04 #@! TO.C,D5*
X187530546Y-79473102D02*
X187159831Y-80419055D01*
G04 #@! TO.C,D6*
X185566300Y-82109722D02*
X186138842Y-81270406D01*
G04 #@! TO.C,D8*
X183366941Y-84826270D02*
X182487059Y-85334270D01*
G04 #@! TO.C,D9*
X180187371Y-85662301D02*
X181158457Y-85363556D01*
G04 #@! TO.C,D10*
X179072915Y-86387196D02*
X178059775Y-86463374D01*
G04 #@! TO.C,D11*
X175845294Y-85761192D02*
X176849870Y-85913120D01*
G04 #@! TO.C,D12*
X174526898Y-85930546D02*
X173580945Y-85559831D01*
G04 #@! TO.C,D13*
X171890278Y-83966300D02*
X172729594Y-84538842D01*
G04 #@! TO.C,D15*
X169173730Y-81766941D02*
X168665730Y-80887059D01*
G04 #@! TO.C,D16*
X168337699Y-78587371D02*
X168636444Y-79558457D01*
G04 #@! TO.C,D17*
X167612804Y-77472915D02*
X167536626Y-76459775D01*
G04 #@! TO.C,D18*
X168238808Y-74245294D02*
X168086880Y-75249870D01*
G04 #@! TO.C,D19*
X168069454Y-72926898D02*
X168440169Y-71980945D01*
G04 #@! TO.C,D20*
X170033700Y-70290278D02*
X169461158Y-71129594D01*
G04 #@! TO.C,D22*
X172233059Y-67573730D02*
X173112941Y-67065730D01*
G04 #@! TO.C,D23*
X175412629Y-66737699D02*
X174441543Y-67036444D01*
G04 #@! TO.C,D24*
X176527085Y-66012804D02*
X177540225Y-65936626D01*
G04 #@! TO.C,D25*
X179754706Y-66638808D02*
X178750130Y-66486880D01*
G04 #@! TO.C,D26*
X181073102Y-66469454D02*
X182019055Y-66840169D01*
G04 #@! TO.C,D27*
X183709722Y-68433700D02*
X182870406Y-67861158D01*
D11*
G04 #@! TO.C,R1*
X194912064Y-75290000D02*
X193707936Y-75290000D01*
X194912064Y-77110000D02*
X193707936Y-77110000D01*
D10*
G04 #@! TO.C,D7*
X184056665Y-83690240D02*
X184800929Y-82998628D01*
G04 #@! TO.C,D14*
X170309760Y-82456665D02*
X171001372Y-83200929D01*
G04 #@! TO.C,D21*
X171543335Y-68709760D02*
X170799071Y-69401372D01*
G04 #@! TO.C,D28*
X185290240Y-69943335D02*
X184598628Y-69199071D01*
G04 #@! TO.C,Q1*
D12*
X187893333Y-90513333D02*
X187826666Y-90480000D01*
X187760000Y-90413333D01*
X187660000Y-90313333D01*
X187593333Y-90280000D01*
X187526666Y-90280000D01*
X187560000Y-90446666D02*
X187493333Y-90413333D01*
X187426666Y-90346666D01*
X187393333Y-90213333D01*
X187393333Y-89980000D01*
X187426666Y-89846666D01*
X187493333Y-89780000D01*
X187560000Y-89746666D01*
X187693333Y-89746666D01*
X187760000Y-89780000D01*
X187826666Y-89846666D01*
X187860000Y-89980000D01*
X187860000Y-90213333D01*
X187826666Y-90346666D01*
X187760000Y-90413333D01*
X187693333Y-90446666D01*
X187560000Y-90446666D01*
X188526666Y-90446666D02*
X188126666Y-90446666D01*
X188326666Y-90446666D02*
X188326666Y-89746666D01*
X188260000Y-89846666D01*
X188193333Y-89913333D01*
X188126666Y-89946666D01*
G04 #@! TO.C,R2*
X189113333Y-84136666D02*
X188880000Y-83803333D01*
X188713333Y-84136666D02*
X188713333Y-83436666D01*
X188980000Y-83436666D01*
X189046666Y-83470000D01*
X189080000Y-83503333D01*
X189113333Y-83570000D01*
X189113333Y-83670000D01*
X189080000Y-83736666D01*
X189046666Y-83770000D01*
X188980000Y-83803333D01*
X188713333Y-83803333D01*
X189380000Y-83503333D02*
X189413333Y-83470000D01*
X189480000Y-83436666D01*
X189646666Y-83436666D01*
X189713333Y-83470000D01*
X189746666Y-83503333D01*
X189780000Y-83570000D01*
X189780000Y-83636666D01*
X189746666Y-83736666D01*
X189346666Y-84136666D01*
X189780000Y-84136666D01*
X190985000Y-85573333D02*
X191451666Y-85573333D01*
X190718333Y-85740000D02*
X191218333Y-85906666D01*
X191218333Y-85473333D01*
X190751666Y-85273333D02*
X190751666Y-84806666D01*
X191451666Y-85106666D01*
X191451666Y-84540000D02*
X190751666Y-84540000D01*
X191185000Y-84473333D02*
X191451666Y-84273333D01*
X190985000Y-84273333D02*
X191251666Y-84540000D01*
G04 #@! TO.C,R4*
X191653333Y-68261666D02*
X191420000Y-67928333D01*
X191253333Y-68261666D02*
X191253333Y-67561666D01*
X191520000Y-67561666D01*
X191586666Y-67595000D01*
X191620000Y-67628333D01*
X191653333Y-67695000D01*
X191653333Y-67795000D01*
X191620000Y-67861666D01*
X191586666Y-67895000D01*
X191520000Y-67928333D01*
X191253333Y-67928333D01*
X192253333Y-67795000D02*
X192253333Y-68261666D01*
X192086666Y-67528333D02*
X191920000Y-68028333D01*
X192353333Y-68028333D01*
G04 #@! TO.C,R6*
X182646666Y-90286666D02*
X182313333Y-90520000D01*
X182646666Y-90686666D02*
X181946666Y-90686666D01*
X181946666Y-90420000D01*
X181980000Y-90353333D01*
X182013333Y-90320000D01*
X182080000Y-90286666D01*
X182180000Y-90286666D01*
X182246666Y-90320000D01*
X182280000Y-90353333D01*
X182313333Y-90420000D01*
X182313333Y-90686666D01*
X181946666Y-89686666D02*
X181946666Y-89820000D01*
X181980000Y-89886666D01*
X182013333Y-89920000D01*
X182113333Y-89986666D01*
X182246666Y-90020000D01*
X182513333Y-90020000D01*
X182580000Y-89986666D01*
X182613333Y-89953333D01*
X182646666Y-89886666D01*
X182646666Y-89753333D01*
X182613333Y-89686666D01*
X182580000Y-89653333D01*
X182513333Y-89620000D01*
X182346666Y-89620000D01*
X182280000Y-89653333D01*
X182246666Y-89686666D01*
X182213333Y-89753333D01*
X182213333Y-89886666D01*
X182246666Y-89953333D01*
X182280000Y-89986666D01*
X182346666Y-90020000D01*
G04 #@! TO.C,R8*
X163713333Y-81046666D02*
X163480000Y-80713333D01*
X163313333Y-81046666D02*
X163313333Y-80346666D01*
X163580000Y-80346666D01*
X163646666Y-80380000D01*
X163680000Y-80413333D01*
X163713333Y-80480000D01*
X163713333Y-80580000D01*
X163680000Y-80646666D01*
X163646666Y-80680000D01*
X163580000Y-80713333D01*
X163313333Y-80713333D01*
X164113333Y-80646666D02*
X164046666Y-80613333D01*
X164013333Y-80580000D01*
X163980000Y-80513333D01*
X163980000Y-80480000D01*
X164013333Y-80413333D01*
X164046666Y-80380000D01*
X164113333Y-80346666D01*
X164246666Y-80346666D01*
X164313333Y-80380000D01*
X164346666Y-80413333D01*
X164380000Y-80480000D01*
X164380000Y-80513333D01*
X164346666Y-80580000D01*
X164313333Y-80613333D01*
X164246666Y-80646666D01*
X164113333Y-80646666D01*
X164046666Y-80680000D01*
X164013333Y-80713333D01*
X163980000Y-80780000D01*
X163980000Y-80913333D01*
X164013333Y-80980000D01*
X164046666Y-81013333D01*
X164113333Y-81046666D01*
X164246666Y-81046666D01*
X164313333Y-81013333D01*
X164346666Y-80980000D01*
X164380000Y-80913333D01*
X164380000Y-80780000D01*
X164346666Y-80713333D01*
X164313333Y-80680000D01*
X164246666Y-80646666D01*
G04 #@! TO.C,R10*
X169861666Y-62550000D02*
X169528333Y-62783333D01*
X169861666Y-62950000D02*
X169161666Y-62950000D01*
X169161666Y-62683333D01*
X169195000Y-62616666D01*
X169228333Y-62583333D01*
X169295000Y-62550000D01*
X169395000Y-62550000D01*
X169461666Y-62583333D01*
X169495000Y-62616666D01*
X169528333Y-62683333D01*
X169528333Y-62950000D01*
X169861666Y-61883333D02*
X169861666Y-62283333D01*
X169861666Y-62083333D02*
X169161666Y-62083333D01*
X169261666Y-62150000D01*
X169328333Y-62216666D01*
X169361666Y-62283333D01*
X169161666Y-61450000D02*
X169161666Y-61383333D01*
X169195000Y-61316666D01*
X169228333Y-61283333D01*
X169295000Y-61250000D01*
X169428333Y-61216666D01*
X169595000Y-61216666D01*
X169728333Y-61250000D01*
X169795000Y-61283333D01*
X169828333Y-61316666D01*
X169861666Y-61383333D01*
X169861666Y-61450000D01*
X169828333Y-61516666D01*
X169795000Y-61550000D01*
X169728333Y-61583333D01*
X169595000Y-61616666D01*
X169428333Y-61616666D01*
X169295000Y-61583333D01*
X169228333Y-61550000D01*
X169195000Y-61516666D01*
X169161666Y-61450000D01*
G04 #@! TO.C,C1*
X191653333Y-79625000D02*
X191620000Y-79658333D01*
X191520000Y-79691666D01*
X191453333Y-79691666D01*
X191353333Y-79658333D01*
X191286666Y-79591666D01*
X191253333Y-79525000D01*
X191220000Y-79391666D01*
X191220000Y-79291666D01*
X191253333Y-79158333D01*
X191286666Y-79091666D01*
X191353333Y-79025000D01*
X191453333Y-78991666D01*
X191520000Y-78991666D01*
X191620000Y-79025000D01*
X191653333Y-79058333D01*
X192320000Y-79691666D02*
X191920000Y-79691666D01*
X192120000Y-79691666D02*
X192120000Y-78991666D01*
X192053333Y-79091666D01*
X191986666Y-79158333D01*
X191920000Y-79191666D01*
X189920000Y-80580000D02*
X189920000Y-81046666D01*
X189753333Y-80313333D02*
X189586666Y-80813333D01*
X190020000Y-80813333D01*
X190586666Y-80580000D02*
X190586666Y-81046666D01*
X190286666Y-80580000D02*
X190286666Y-80946666D01*
X190320000Y-81013333D01*
X190386666Y-81046666D01*
X190486666Y-81046666D01*
X190553333Y-81013333D01*
X190586666Y-80980000D01*
X190853333Y-80346666D02*
X191320000Y-80346666D01*
X191020000Y-81046666D01*
X192086666Y-80313333D02*
X191486666Y-81213333D01*
X192653333Y-80346666D02*
X192320000Y-80346666D01*
X192286666Y-80680000D01*
X192320000Y-80646666D01*
X192386666Y-80613333D01*
X192553333Y-80613333D01*
X192620000Y-80646666D01*
X192653333Y-80680000D01*
X192686666Y-80746666D01*
X192686666Y-80913333D01*
X192653333Y-80980000D01*
X192620000Y-81013333D01*
X192553333Y-81046666D01*
X192386666Y-81046666D01*
X192320000Y-81013333D01*
X192286666Y-80980000D01*
X193120000Y-80346666D02*
X193186666Y-80346666D01*
X193253333Y-80380000D01*
X193286666Y-80413333D01*
X193320000Y-80480000D01*
X193353333Y-80613333D01*
X193353333Y-80780000D01*
X193320000Y-80913333D01*
X193286666Y-80980000D01*
X193253333Y-81013333D01*
X193186666Y-81046666D01*
X193120000Y-81046666D01*
X193053333Y-81013333D01*
X193020000Y-80980000D01*
X192986666Y-80913333D01*
X192953333Y-80780000D01*
X192953333Y-80613333D01*
X192986666Y-80480000D01*
X193020000Y-80413333D01*
X193053333Y-80380000D01*
X193120000Y-80346666D01*
X193553333Y-80346666D02*
X193786666Y-81046666D01*
X194020000Y-80346666D01*
G04 #@! TO.C,C2*
X169880000Y-90286666D02*
X169913333Y-90320000D01*
X169946666Y-90420000D01*
X169946666Y-90486666D01*
X169913333Y-90586666D01*
X169846666Y-90653333D01*
X169780000Y-90686666D01*
X169646666Y-90720000D01*
X169546666Y-90720000D01*
X169413333Y-90686666D01*
X169346666Y-90653333D01*
X169280000Y-90586666D01*
X169246666Y-90486666D01*
X169246666Y-90420000D01*
X169280000Y-90320000D01*
X169313333Y-90286666D01*
X169313333Y-90020000D02*
X169280000Y-89986666D01*
X169246666Y-89920000D01*
X169246666Y-89753333D01*
X169280000Y-89686666D01*
X169313333Y-89653333D01*
X169380000Y-89620000D01*
X169446666Y-89620000D01*
X169546666Y-89653333D01*
X169946666Y-90053333D01*
X169946666Y-89620000D01*
X173120000Y-92020000D02*
X173586666Y-92020000D01*
X172853333Y-92186666D02*
X173353333Y-92353333D01*
X173353333Y-91920000D01*
X173120000Y-91353333D02*
X173586666Y-91353333D01*
X173120000Y-91653333D02*
X173486666Y-91653333D01*
X173553333Y-91620000D01*
X173586666Y-91553333D01*
X173586666Y-91453333D01*
X173553333Y-91386666D01*
X173520000Y-91353333D01*
X172886666Y-91086666D02*
X172886666Y-90620000D01*
X173586666Y-90920000D01*
X172853333Y-89853333D02*
X173753333Y-90453333D01*
X172886666Y-89286666D02*
X172886666Y-89620000D01*
X173220000Y-89653333D01*
X173186666Y-89620000D01*
X173153333Y-89553333D01*
X173153333Y-89386666D01*
X173186666Y-89320000D01*
X173220000Y-89286666D01*
X173286666Y-89253333D01*
X173453333Y-89253333D01*
X173520000Y-89286666D01*
X173553333Y-89320000D01*
X173586666Y-89386666D01*
X173586666Y-89553333D01*
X173553333Y-89620000D01*
X173520000Y-89653333D01*
X172886666Y-88820000D02*
X172886666Y-88753333D01*
X172920000Y-88686666D01*
X172953333Y-88653333D01*
X173020000Y-88620000D01*
X173153333Y-88586666D01*
X173320000Y-88586666D01*
X173453333Y-88620000D01*
X173520000Y-88653333D01*
X173553333Y-88686666D01*
X173586666Y-88753333D01*
X173586666Y-88820000D01*
X173553333Y-88886666D01*
X173520000Y-88920000D01*
X173453333Y-88953333D01*
X173320000Y-88986666D01*
X173153333Y-88986666D01*
X173020000Y-88953333D01*
X172953333Y-88920000D01*
X172920000Y-88886666D01*
X172886666Y-88820000D01*
X172886666Y-88386666D02*
X173586666Y-88153333D01*
X172886666Y-87920000D01*
G04 #@! TO.C,C3*
X163713333Y-68280000D02*
X163680000Y-68313333D01*
X163580000Y-68346666D01*
X163513333Y-68346666D01*
X163413333Y-68313333D01*
X163346666Y-68246666D01*
X163313333Y-68180000D01*
X163280000Y-68046666D01*
X163280000Y-67946666D01*
X163313333Y-67813333D01*
X163346666Y-67746666D01*
X163413333Y-67680000D01*
X163513333Y-67646666D01*
X163580000Y-67646666D01*
X163680000Y-67680000D01*
X163713333Y-67713333D01*
X163946666Y-67646666D02*
X164380000Y-67646666D01*
X164146666Y-67913333D01*
X164246666Y-67913333D01*
X164313333Y-67946666D01*
X164346666Y-67980000D01*
X164380000Y-68046666D01*
X164380000Y-68213333D01*
X164346666Y-68280000D01*
X164313333Y-68313333D01*
X164246666Y-68346666D01*
X164046666Y-68346666D01*
X163980000Y-68313333D01*
X163946666Y-68280000D01*
X161980000Y-71520000D02*
X161980000Y-71986666D01*
X161813333Y-71253333D02*
X161646666Y-71753333D01*
X162080000Y-71753333D01*
X162646666Y-71520000D02*
X162646666Y-71986666D01*
X162346666Y-71520000D02*
X162346666Y-71886666D01*
X162380000Y-71953333D01*
X162446666Y-71986666D01*
X162546666Y-71986666D01*
X162613333Y-71953333D01*
X162646666Y-71920000D01*
X162913333Y-71286666D02*
X163380000Y-71286666D01*
X163080000Y-71986666D01*
X164146666Y-71253333D02*
X163546666Y-72153333D01*
X164713333Y-71286666D02*
X164380000Y-71286666D01*
X164346666Y-71620000D01*
X164380000Y-71586666D01*
X164446666Y-71553333D01*
X164613333Y-71553333D01*
X164680000Y-71586666D01*
X164713333Y-71620000D01*
X164746666Y-71686666D01*
X164746666Y-71853333D01*
X164713333Y-71920000D01*
X164680000Y-71953333D01*
X164613333Y-71986666D01*
X164446666Y-71986666D01*
X164380000Y-71953333D01*
X164346666Y-71920000D01*
X165180000Y-71286666D02*
X165246666Y-71286666D01*
X165313333Y-71320000D01*
X165346666Y-71353333D01*
X165380000Y-71420000D01*
X165413333Y-71553333D01*
X165413333Y-71720000D01*
X165380000Y-71853333D01*
X165346666Y-71920000D01*
X165313333Y-71953333D01*
X165246666Y-71986666D01*
X165180000Y-71986666D01*
X165113333Y-71953333D01*
X165080000Y-71920000D01*
X165046666Y-71853333D01*
X165013333Y-71720000D01*
X165013333Y-71553333D01*
X165046666Y-71420000D01*
X165080000Y-71353333D01*
X165113333Y-71320000D01*
X165180000Y-71286666D01*
X165613333Y-71286666D02*
X165846666Y-71986666D01*
X166080000Y-71286666D01*
G04 #@! TO.C,C4*
X186220000Y-62216666D02*
X186253333Y-62250000D01*
X186286666Y-62350000D01*
X186286666Y-62416666D01*
X186253333Y-62516666D01*
X186186666Y-62583333D01*
X186120000Y-62616666D01*
X185986666Y-62650000D01*
X185886666Y-62650000D01*
X185753333Y-62616666D01*
X185686666Y-62583333D01*
X185620000Y-62516666D01*
X185586666Y-62416666D01*
X185586666Y-62350000D01*
X185620000Y-62250000D01*
X185653333Y-62216666D01*
X185820000Y-61616666D02*
X186286666Y-61616666D01*
X185553333Y-61783333D02*
X186053333Y-61950000D01*
X186053333Y-61516666D01*
X182180000Y-63950000D02*
X182646666Y-63950000D01*
X181913333Y-64116666D02*
X182413333Y-64283333D01*
X182413333Y-63850000D01*
X182180000Y-63283333D02*
X182646666Y-63283333D01*
X182180000Y-63583333D02*
X182546666Y-63583333D01*
X182613333Y-63550000D01*
X182646666Y-63483333D01*
X182646666Y-63383333D01*
X182613333Y-63316666D01*
X182580000Y-63283333D01*
X181946666Y-63016666D02*
X181946666Y-62550000D01*
X182646666Y-62850000D01*
X181913333Y-61783333D02*
X182813333Y-62383333D01*
X181946666Y-61216666D02*
X181946666Y-61550000D01*
X182280000Y-61583333D01*
X182246666Y-61550000D01*
X182213333Y-61483333D01*
X182213333Y-61316666D01*
X182246666Y-61250000D01*
X182280000Y-61216666D01*
X182346666Y-61183333D01*
X182513333Y-61183333D01*
X182580000Y-61216666D01*
X182613333Y-61250000D01*
X182646666Y-61316666D01*
X182646666Y-61483333D01*
X182613333Y-61550000D01*
X182580000Y-61583333D01*
X181946666Y-60750000D02*
X181946666Y-60683333D01*
X181980000Y-60616666D01*
X182013333Y-60583333D01*
X182080000Y-60550000D01*
X182213333Y-60516666D01*
X182380000Y-60516666D01*
X182513333Y-60550000D01*
X182580000Y-60583333D01*
X182613333Y-60616666D01*
X182646666Y-60683333D01*
X182646666Y-60750000D01*
X182613333Y-60816666D01*
X182580000Y-60850000D01*
X182513333Y-60883333D01*
X182380000Y-60916666D01*
X182213333Y-60916666D01*
X182080000Y-60883333D01*
X182013333Y-60850000D01*
X181980000Y-60816666D01*
X181946666Y-60750000D01*
X181946666Y-60316666D02*
X182646666Y-60083333D01*
X181946666Y-59850000D01*
G04 #@! TO.C,H1*
X163296666Y-56196666D02*
X163296666Y-55496666D01*
X163296666Y-55830000D02*
X163696666Y-55830000D01*
X163696666Y-56196666D02*
X163696666Y-55496666D01*
X164396666Y-56196666D02*
X163996666Y-56196666D01*
X164196666Y-56196666D02*
X164196666Y-55496666D01*
X164130000Y-55596666D01*
X164063333Y-55663333D01*
X163996666Y-55696666D01*
G04 #@! TO.C,H2*
X163296666Y-96836666D02*
X163296666Y-96136666D01*
X163296666Y-96470000D02*
X163696666Y-96470000D01*
X163696666Y-96836666D02*
X163696666Y-96136666D01*
X163996666Y-96203333D02*
X164030000Y-96170000D01*
X164096666Y-96136666D01*
X164263333Y-96136666D01*
X164330000Y-96170000D01*
X164363333Y-96203333D01*
X164396666Y-96270000D01*
X164396666Y-96336666D01*
X164363333Y-96436666D01*
X163963333Y-96836666D01*
X164396666Y-96836666D01*
G04 #@! TO.C,H3*
X191236666Y-56196666D02*
X191236666Y-55496666D01*
X191236666Y-55830000D02*
X191636666Y-55830000D01*
X191636666Y-56196666D02*
X191636666Y-55496666D01*
X191903333Y-55496666D02*
X192336666Y-55496666D01*
X192103333Y-55763333D01*
X192203333Y-55763333D01*
X192270000Y-55796666D01*
X192303333Y-55830000D01*
X192336666Y-55896666D01*
X192336666Y-56063333D01*
X192303333Y-56130000D01*
X192270000Y-56163333D01*
X192203333Y-56196666D01*
X192003333Y-56196666D01*
X191936666Y-56163333D01*
X191903333Y-56130000D01*
G04 #@! TO.C,H4*
X191236666Y-96836666D02*
X191236666Y-96136666D01*
X191236666Y-96470000D02*
X191636666Y-96470000D01*
X191636666Y-96836666D02*
X191636666Y-96136666D01*
X192270000Y-96370000D02*
X192270000Y-96836666D01*
X192103333Y-96103333D02*
X191936666Y-96603333D01*
X192370000Y-96603333D01*
G04 #@! TO.C,J1*
X202966666Y-68406666D02*
X202966666Y-68906666D01*
X202933333Y-69006666D01*
X202866666Y-69073333D01*
X202766666Y-69106666D01*
X202700000Y-69106666D01*
X203666666Y-69106666D02*
X203266666Y-69106666D01*
X203466666Y-69106666D02*
X203466666Y-68406666D01*
X203400000Y-68506666D01*
X203333333Y-68573333D01*
X203266666Y-68606666D01*
G04 #@! TO.C,Q2*
X164253333Y-86426666D02*
X164220000Y-86493333D01*
X164153333Y-86560000D01*
X164053333Y-86660000D01*
X164020000Y-86726666D01*
X164020000Y-86793333D01*
X164186666Y-86760000D02*
X164153333Y-86826666D01*
X164086666Y-86893333D01*
X163953333Y-86926666D01*
X163720000Y-86926666D01*
X163586666Y-86893333D01*
X163520000Y-86826666D01*
X163486666Y-86760000D01*
X163486666Y-86626666D01*
X163520000Y-86560000D01*
X163586666Y-86493333D01*
X163720000Y-86460000D01*
X163953333Y-86460000D01*
X164086666Y-86493333D01*
X164153333Y-86560000D01*
X164186666Y-86626666D01*
X164186666Y-86760000D01*
X163553333Y-86193333D02*
X163520000Y-86160000D01*
X163486666Y-86093333D01*
X163486666Y-85926666D01*
X163520000Y-85860000D01*
X163553333Y-85826666D01*
X163620000Y-85793333D01*
X163686666Y-85793333D01*
X163786666Y-85826666D01*
X164186666Y-86226666D01*
X164186666Y-85793333D01*
G04 #@! TO.C,Q3*
X167573333Y-62653333D02*
X167506666Y-62620000D01*
X167440000Y-62553333D01*
X167340000Y-62453333D01*
X167273333Y-62420000D01*
X167206666Y-62420000D01*
X167240000Y-62586666D02*
X167173333Y-62553333D01*
X167106666Y-62486666D01*
X167073333Y-62353333D01*
X167073333Y-62120000D01*
X167106666Y-61986666D01*
X167173333Y-61920000D01*
X167240000Y-61886666D01*
X167373333Y-61886666D01*
X167440000Y-61920000D01*
X167506666Y-61986666D01*
X167540000Y-62120000D01*
X167540000Y-62353333D01*
X167506666Y-62486666D01*
X167440000Y-62553333D01*
X167373333Y-62586666D01*
X167240000Y-62586666D01*
X167773333Y-61886666D02*
X168206666Y-61886666D01*
X167973333Y-62153333D01*
X168073333Y-62153333D01*
X168140000Y-62186666D01*
X168173333Y-62220000D01*
X168206666Y-62286666D01*
X168206666Y-62453333D01*
X168173333Y-62520000D01*
X168140000Y-62553333D01*
X168073333Y-62586666D01*
X167873333Y-62586666D01*
X167806666Y-62553333D01*
X167773333Y-62520000D01*
G04 #@! TO.C,Q4*
X192113333Y-66106666D02*
X192080000Y-66173333D01*
X192013333Y-66240000D01*
X191913333Y-66340000D01*
X191880000Y-66406666D01*
X191880000Y-66473333D01*
X192046666Y-66440000D02*
X192013333Y-66506666D01*
X191946666Y-66573333D01*
X191813333Y-66606666D01*
X191580000Y-66606666D01*
X191446666Y-66573333D01*
X191380000Y-66506666D01*
X191346666Y-66440000D01*
X191346666Y-66306666D01*
X191380000Y-66240000D01*
X191446666Y-66173333D01*
X191580000Y-66140000D01*
X191813333Y-66140000D01*
X191946666Y-66173333D01*
X192013333Y-66240000D01*
X192046666Y-66306666D01*
X192046666Y-66440000D01*
X191580000Y-65540000D02*
X192046666Y-65540000D01*
X191313333Y-65706666D02*
X191813333Y-65873333D01*
X191813333Y-65440000D01*
G04 #@! TO.C,R3*
X192923333Y-86126666D02*
X192690000Y-85793333D01*
X192523333Y-86126666D02*
X192523333Y-85426666D01*
X192790000Y-85426666D01*
X192856666Y-85460000D01*
X192890000Y-85493333D01*
X192923333Y-85560000D01*
X192923333Y-85660000D01*
X192890000Y-85726666D01*
X192856666Y-85760000D01*
X192790000Y-85793333D01*
X192523333Y-85793333D01*
X193156666Y-85426666D02*
X193590000Y-85426666D01*
X193356666Y-85693333D01*
X193456666Y-85693333D01*
X193523333Y-85726666D01*
X193556666Y-85760000D01*
X193590000Y-85826666D01*
X193590000Y-85993333D01*
X193556666Y-86060000D01*
X193523333Y-86093333D01*
X193456666Y-86126666D01*
X193256666Y-86126666D01*
X193190000Y-86093333D01*
X193156666Y-86060000D01*
X192656666Y-89066666D02*
X192723333Y-89066666D01*
X192790000Y-89100000D01*
X192823333Y-89133333D01*
X192856666Y-89200000D01*
X192890000Y-89333333D01*
X192890000Y-89500000D01*
X192856666Y-89633333D01*
X192823333Y-89700000D01*
X192790000Y-89733333D01*
X192723333Y-89766666D01*
X192656666Y-89766666D01*
X192590000Y-89733333D01*
X192556666Y-89700000D01*
X192523333Y-89633333D01*
X192490000Y-89500000D01*
X192490000Y-89333333D01*
X192523333Y-89200000D01*
X192556666Y-89133333D01*
X192590000Y-89100000D01*
X192656666Y-89066666D01*
X193590000Y-89766666D02*
X193356666Y-89433333D01*
X193190000Y-89766666D02*
X193190000Y-89066666D01*
X193456666Y-89066666D01*
X193523333Y-89100000D01*
X193556666Y-89133333D01*
X193590000Y-89200000D01*
X193590000Y-89300000D01*
X193556666Y-89366666D01*
X193523333Y-89400000D01*
X193456666Y-89433333D01*
X193190000Y-89433333D01*
G04 #@! TO.C,R5*
X164781666Y-91556666D02*
X164448333Y-91790000D01*
X164781666Y-91956666D02*
X164081666Y-91956666D01*
X164081666Y-91690000D01*
X164115000Y-91623333D01*
X164148333Y-91590000D01*
X164215000Y-91556666D01*
X164315000Y-91556666D01*
X164381666Y-91590000D01*
X164415000Y-91623333D01*
X164448333Y-91690000D01*
X164448333Y-91956666D01*
X164081666Y-90923333D02*
X164081666Y-91256666D01*
X164415000Y-91290000D01*
X164381666Y-91256666D01*
X164348333Y-91190000D01*
X164348333Y-91023333D01*
X164381666Y-90956666D01*
X164415000Y-90923333D01*
X164481666Y-90890000D01*
X164648333Y-90890000D01*
X164715000Y-90923333D01*
X164748333Y-90956666D01*
X164781666Y-91023333D01*
X164781666Y-91190000D01*
X164748333Y-91256666D01*
X164715000Y-91290000D01*
X167891666Y-91823333D02*
X167891666Y-91756666D01*
X167925000Y-91690000D01*
X167958333Y-91656666D01*
X168025000Y-91623333D01*
X168158333Y-91590000D01*
X168325000Y-91590000D01*
X168458333Y-91623333D01*
X168525000Y-91656666D01*
X168558333Y-91690000D01*
X168591666Y-91756666D01*
X168591666Y-91823333D01*
X168558333Y-91890000D01*
X168525000Y-91923333D01*
X168458333Y-91956666D01*
X168325000Y-91990000D01*
X168158333Y-91990000D01*
X168025000Y-91956666D01*
X167958333Y-91923333D01*
X167925000Y-91890000D01*
X167891666Y-91823333D01*
X168591666Y-90890000D02*
X168258333Y-91123333D01*
X168591666Y-91290000D02*
X167891666Y-91290000D01*
X167891666Y-91023333D01*
X167925000Y-90956666D01*
X167958333Y-90923333D01*
X168025000Y-90890000D01*
X168125000Y-90890000D01*
X168191666Y-90923333D01*
X168225000Y-90956666D01*
X168258333Y-91023333D01*
X168258333Y-91290000D01*
G04 #@! TO.C,R7*
X162443333Y-63181666D02*
X162210000Y-62848333D01*
X162043333Y-63181666D02*
X162043333Y-62481666D01*
X162310000Y-62481666D01*
X162376666Y-62515000D01*
X162410000Y-62548333D01*
X162443333Y-62615000D01*
X162443333Y-62715000D01*
X162410000Y-62781666D01*
X162376666Y-62815000D01*
X162310000Y-62848333D01*
X162043333Y-62848333D01*
X162676666Y-62481666D02*
X163143333Y-62481666D01*
X162843333Y-63181666D01*
X162176666Y-66291666D02*
X162243333Y-66291666D01*
X162310000Y-66325000D01*
X162343333Y-66358333D01*
X162376666Y-66425000D01*
X162410000Y-66558333D01*
X162410000Y-66725000D01*
X162376666Y-66858333D01*
X162343333Y-66925000D01*
X162310000Y-66958333D01*
X162243333Y-66991666D01*
X162176666Y-66991666D01*
X162110000Y-66958333D01*
X162076666Y-66925000D01*
X162043333Y-66858333D01*
X162010000Y-66725000D01*
X162010000Y-66558333D01*
X162043333Y-66425000D01*
X162076666Y-66358333D01*
X162110000Y-66325000D01*
X162176666Y-66291666D01*
X163110000Y-66991666D02*
X162876666Y-66658333D01*
X162710000Y-66991666D02*
X162710000Y-66291666D01*
X162976666Y-66291666D01*
X163043333Y-66325000D01*
X163076666Y-66358333D01*
X163110000Y-66425000D01*
X163110000Y-66525000D01*
X163076666Y-66591666D01*
X163043333Y-66625000D01*
X162976666Y-66658333D01*
X162710000Y-66658333D01*
G04 #@! TO.C,R9*
X187726666Y-61076666D02*
X187393333Y-61310000D01*
X187726666Y-61476666D02*
X187026666Y-61476666D01*
X187026666Y-61210000D01*
X187060000Y-61143333D01*
X187093333Y-61110000D01*
X187160000Y-61076666D01*
X187260000Y-61076666D01*
X187326666Y-61110000D01*
X187360000Y-61143333D01*
X187393333Y-61210000D01*
X187393333Y-61476666D01*
X187726666Y-60743333D02*
X187726666Y-60610000D01*
X187693333Y-60543333D01*
X187660000Y-60510000D01*
X187560000Y-60443333D01*
X187426666Y-60410000D01*
X187160000Y-60410000D01*
X187093333Y-60443333D01*
X187060000Y-60476666D01*
X187026666Y-60543333D01*
X187026666Y-60676666D01*
X187060000Y-60743333D01*
X187093333Y-60776666D01*
X187160000Y-60810000D01*
X187326666Y-60810000D01*
X187393333Y-60776666D01*
X187426666Y-60743333D01*
X187460000Y-60676666D01*
X187460000Y-60543333D01*
X187426666Y-60476666D01*
X187393333Y-60443333D01*
X187326666Y-60410000D01*
X190666666Y-61343333D02*
X190666666Y-61276666D01*
X190700000Y-61210000D01*
X190733333Y-61176666D01*
X190800000Y-61143333D01*
X190933333Y-61110000D01*
X191100000Y-61110000D01*
X191233333Y-61143333D01*
X191300000Y-61176666D01*
X191333333Y-61210000D01*
X191366666Y-61276666D01*
X191366666Y-61343333D01*
X191333333Y-61410000D01*
X191300000Y-61443333D01*
X191233333Y-61476666D01*
X191100000Y-61510000D01*
X190933333Y-61510000D01*
X190800000Y-61476666D01*
X190733333Y-61443333D01*
X190700000Y-61410000D01*
X190666666Y-61343333D01*
X191366666Y-60410000D02*
X191033333Y-60643333D01*
X191366666Y-60810000D02*
X190666666Y-60810000D01*
X190666666Y-60543333D01*
X190700000Y-60476666D01*
X190733333Y-60443333D01*
X190800000Y-60410000D01*
X190900000Y-60410000D01*
X190966666Y-60443333D01*
X191000000Y-60476666D01*
X191033333Y-60543333D01*
X191033333Y-60810000D01*
G04 #@! TO.C,D1*
X186908886Y-69874574D02*
X186558886Y-69268356D01*
X186703224Y-69185023D01*
X186806493Y-69163891D01*
X186897562Y-69188292D01*
X186959762Y-69229361D01*
X187055297Y-69328164D01*
X187105297Y-69414767D01*
X187143096Y-69546903D01*
X187147562Y-69621305D01*
X187123160Y-69712373D01*
X187053224Y-69791241D01*
X186908886Y-69874574D01*
X187832647Y-69341241D02*
X187486237Y-69541241D01*
X187659442Y-69441241D02*
X187309442Y-68835023D01*
X187301707Y-68954959D01*
X187277305Y-69046027D01*
X187236237Y-69108228D01*
G04 #@! TO.C,D2*
X187899623Y-71941387D02*
X187693795Y-71272332D01*
X187853093Y-71223325D01*
X187958474Y-71225781D01*
X188041796Y-71269898D01*
X188093259Y-71323816D01*
X188164324Y-71441454D01*
X188193728Y-71537033D01*
X188201074Y-71674274D01*
X188188817Y-71747794D01*
X188144700Y-71831117D01*
X188058922Y-71892380D01*
X187899623Y-71941387D01*
X188350593Y-71140025D02*
X188372651Y-71098364D01*
X188426569Y-71046901D01*
X188585868Y-70997894D01*
X188659389Y-71010151D01*
X188701050Y-71032210D01*
X188752513Y-71086128D01*
X188772115Y-71149848D01*
X188769660Y-71255228D01*
X188504958Y-71755162D01*
X188919135Y-71627744D01*
G04 #@! TO.C,D3*
X188611282Y-74433569D02*
X188558797Y-73735539D01*
X188724995Y-73723043D01*
X188827213Y-73748784D01*
X188898690Y-73810265D01*
X188936928Y-73874245D01*
X188980165Y-74004703D01*
X188987663Y-74104422D01*
X188964421Y-74239879D01*
X188936180Y-74308857D01*
X188874699Y-74380335D01*
X188777480Y-74421072D01*
X188611282Y-74433569D01*
X189190348Y-73688053D02*
X189622461Y-73655562D01*
X189409779Y-73938973D01*
X189509498Y-73931475D01*
X189578476Y-73959716D01*
X189614215Y-73990456D01*
X189652453Y-74054436D01*
X189664949Y-74220633D01*
X189636709Y-74289612D01*
X189605968Y-74325351D01*
X189541989Y-74363589D01*
X189342552Y-74378584D01*
X189273573Y-74350343D01*
X189237834Y-74319603D01*
G04 #@! TO.C,D4*
X188799442Y-76923717D02*
X188904117Y-76231587D01*
X189068910Y-76256510D01*
X189162801Y-76304422D01*
X189218749Y-76380308D01*
X189241738Y-76451210D01*
X189254759Y-76588028D01*
X189239805Y-76686904D01*
X189186909Y-76813754D01*
X189143981Y-76874686D01*
X189068095Y-76930634D01*
X188964235Y-76948639D01*
X188799442Y-76923717D01*
X189857982Y-76611832D02*
X189788199Y-77073252D01*
X189733065Y-76323242D02*
X189493505Y-76792697D01*
X189921966Y-76857496D01*
G04 #@! TO.C,D5*
X188433235Y-79236304D02*
X188688648Y-78584565D01*
X188843824Y-78645378D01*
X188924767Y-78712901D01*
X188962513Y-78799296D01*
X188969223Y-78873529D01*
X188951608Y-79009833D01*
X188915120Y-79102938D01*
X188835435Y-79214916D01*
X188780074Y-79264824D01*
X188693679Y-79302569D01*
X188588411Y-79297117D01*
X188433235Y-79236304D01*
X189650739Y-78961604D02*
X189340388Y-78839979D01*
X189187727Y-79138168D01*
X189230924Y-79119296D01*
X189305157Y-79112586D01*
X189460333Y-79173398D01*
X189510241Y-79228759D01*
X189529114Y-79271956D01*
X189535824Y-79346189D01*
X189475011Y-79501365D01*
X189419651Y-79551273D01*
X189376453Y-79570146D01*
X189302220Y-79576856D01*
X189147044Y-79516043D01*
X189097136Y-79460683D01*
X189078264Y-79417485D01*
G04 #@! TO.C,D6*
X187501602Y-81459061D02*
X187896070Y-80880792D01*
X188033753Y-80974713D01*
X188097579Y-81058603D01*
X188115084Y-81151244D01*
X188105052Y-81225102D01*
X188057452Y-81354032D01*
X188001099Y-81436642D01*
X187898426Y-81528004D01*
X187833321Y-81564293D01*
X187740679Y-81581798D01*
X187639285Y-81552982D01*
X187501602Y-81459061D01*
X188722169Y-81444318D02*
X188612022Y-81369182D01*
X188538165Y-81359150D01*
X188491844Y-81367902D01*
X188380418Y-81412944D01*
X188277745Y-81504306D01*
X188127471Y-81724599D01*
X188117439Y-81798456D01*
X188126192Y-81844777D01*
X188162481Y-81909882D01*
X188272627Y-81985019D01*
X188346485Y-81995051D01*
X188392805Y-81986298D01*
X188457910Y-81950009D01*
X188551831Y-81812326D01*
X188561863Y-81738469D01*
X188553111Y-81692148D01*
X188516822Y-81627043D01*
X188406675Y-81551906D01*
X188332818Y-81541874D01*
X188286497Y-81550627D01*
X188221392Y-81586916D01*
G04 #@! TO.C,D8*
X184125425Y-85308886D02*
X184731643Y-84958886D01*
X184814976Y-85103224D01*
X184836108Y-85206493D01*
X184811707Y-85297562D01*
X184770638Y-85359762D01*
X184671835Y-85455297D01*
X184585232Y-85505297D01*
X184453096Y-85543096D01*
X184378694Y-85547562D01*
X184287626Y-85523160D01*
X184208758Y-85453224D01*
X184125425Y-85308886D01*
X184871835Y-85801707D02*
X184867369Y-85727305D01*
X184879570Y-85681771D01*
X184920638Y-85619570D01*
X184949506Y-85602903D01*
X185023908Y-85598437D01*
X185069442Y-85610638D01*
X185131643Y-85651707D01*
X185198309Y-85767177D01*
X185202775Y-85841578D01*
X185190574Y-85887113D01*
X185149506Y-85949313D01*
X185120638Y-85965980D01*
X185046237Y-85970446D01*
X185000702Y-85958245D01*
X184938502Y-85917177D01*
X184871835Y-85801707D01*
X184809634Y-85760638D01*
X184764100Y-85748437D01*
X184689698Y-85752903D01*
X184574228Y-85819570D01*
X184533160Y-85881771D01*
X184520959Y-85927305D01*
X184525425Y-86001707D01*
X184592091Y-86117177D01*
X184654292Y-86158245D01*
X184699826Y-86170446D01*
X184774228Y-86165980D01*
X184889698Y-86099313D01*
X184930767Y-86037113D01*
X184942967Y-85991578D01*
X184938502Y-85917177D01*
G04 #@! TO.C,D9*
X182067920Y-86553452D02*
X182736975Y-86347624D01*
X182785982Y-86506922D01*
X182783526Y-86612303D01*
X182739409Y-86695625D01*
X182685491Y-86747088D01*
X182567853Y-86818153D01*
X182472274Y-86847557D01*
X182335033Y-86854903D01*
X182261513Y-86842646D01*
X182178190Y-86798529D01*
X182116927Y-86712751D01*
X182067920Y-86553452D01*
X182283549Y-87254367D02*
X182322755Y-87381806D01*
X182374217Y-87435724D01*
X182415878Y-87457782D01*
X182531060Y-87492098D01*
X182668301Y-87484752D01*
X182923179Y-87406342D01*
X182977097Y-87354879D01*
X182999156Y-87313218D01*
X183011413Y-87239697D01*
X182972207Y-87112258D01*
X182920745Y-87058340D01*
X182879084Y-87036281D01*
X182805563Y-87024024D01*
X182646264Y-87073031D01*
X182592346Y-87124494D01*
X182570287Y-87166155D01*
X182558030Y-87239676D01*
X182597236Y-87367115D01*
X182648698Y-87421033D01*
X182690359Y-87443091D01*
X182763880Y-87455348D01*
G04 #@! TO.C,D10*
X179794722Y-86659842D02*
X180492752Y-86607357D01*
X180505248Y-86773555D01*
X180479507Y-86875773D01*
X180418026Y-86947250D01*
X180354047Y-86985488D01*
X180223588Y-87028725D01*
X180123869Y-87036223D01*
X179988412Y-87012980D01*
X179919434Y-86984740D01*
X179847956Y-86923259D01*
X179807219Y-86826040D01*
X179794722Y-86659842D01*
X179874700Y-87723507D02*
X179844708Y-87324632D01*
X179859704Y-87524070D02*
X180557733Y-87471584D01*
X180453016Y-87412603D01*
X180381539Y-87351123D01*
X180343301Y-87287143D01*
X180605220Y-88103135D02*
X180610219Y-88169614D01*
X180581978Y-88238592D01*
X180551237Y-88274331D01*
X180487258Y-88312569D01*
X180356799Y-88355806D01*
X180190601Y-88368302D01*
X180055144Y-88345060D01*
X179986166Y-88316819D01*
X179950427Y-88286079D01*
X179912189Y-88222099D01*
X179907190Y-88155620D01*
X179935431Y-88086642D01*
X179966172Y-88050903D01*
X180030151Y-88012665D01*
X180160610Y-87969428D01*
X180326807Y-87956932D01*
X180462265Y-87980174D01*
X180531243Y-88008415D01*
X180566982Y-88039155D01*
X180605220Y-88103135D01*
G04 #@! TO.C,D11*
X177750547Y-88617135D02*
X177058417Y-88512461D01*
X177083340Y-88347668D01*
X177131252Y-88253777D01*
X177207138Y-88197829D01*
X177278040Y-88174839D01*
X177414858Y-88161819D01*
X177513734Y-88176772D01*
X177640584Y-88229669D01*
X177701516Y-88272596D01*
X177757464Y-88348482D01*
X177775469Y-88452343D01*
X177750547Y-88617135D01*
X177910051Y-87562462D02*
X177850237Y-87957964D01*
X177880144Y-87760213D02*
X177188014Y-87655538D01*
X177276921Y-87736409D01*
X177332869Y-87812295D01*
X177355859Y-87883197D01*
X178009741Y-86903291D02*
X177949927Y-87298793D01*
X177979834Y-87101042D02*
X177287705Y-86996367D01*
X177376611Y-87077238D01*
X177432559Y-87153124D01*
X177455549Y-87224026D01*
G04 #@! TO.C,D12*
X174854699Y-88336766D02*
X174202960Y-88081353D01*
X174263772Y-87926177D01*
X174331295Y-87845234D01*
X174417691Y-87807488D01*
X174491924Y-87800778D01*
X174628227Y-87818393D01*
X174721333Y-87854881D01*
X174833311Y-87934566D01*
X174883219Y-87989927D01*
X174920964Y-88076322D01*
X174915511Y-88181590D01*
X174854699Y-88336766D01*
X175243900Y-87343640D02*
X175097950Y-87716062D01*
X175170925Y-87529851D02*
X174519186Y-87274437D01*
X174587967Y-87372996D01*
X174625712Y-87459391D01*
X174632422Y-87533624D01*
X174751532Y-86864270D02*
X174732660Y-86821072D01*
X174725950Y-86746839D01*
X174786762Y-86591663D01*
X174842123Y-86541755D01*
X174885320Y-86522883D01*
X174959553Y-86516173D01*
X175021624Y-86540498D01*
X175102567Y-86608021D01*
X175329038Y-87126394D01*
X175487152Y-86722936D01*
G04 #@! TO.C,D13*
X172294080Y-87387485D02*
X171715811Y-86993017D01*
X171809732Y-86855334D01*
X171893622Y-86791508D01*
X171986263Y-86774003D01*
X172060121Y-86784035D01*
X172189051Y-86831635D01*
X172271661Y-86887988D01*
X172363023Y-86990661D01*
X172399312Y-87055766D01*
X172416817Y-87148408D01*
X172388001Y-87249802D01*
X172294080Y-87387485D01*
X172895175Y-86506313D02*
X172669764Y-86836753D01*
X172782469Y-86671533D02*
X172204201Y-86277065D01*
X172249242Y-86388491D01*
X172266747Y-86481132D01*
X172256715Y-86554990D01*
X172448395Y-85919089D02*
X172692590Y-85561113D01*
X172781393Y-85904143D01*
X172837746Y-85821533D01*
X172902851Y-85785244D01*
X172949172Y-85776492D01*
X173023029Y-85786523D01*
X173160712Y-85880444D01*
X173197001Y-85945549D01*
X173205754Y-85991870D01*
X173195722Y-86065728D01*
X173083017Y-86230947D01*
X173017912Y-86267236D01*
X172971591Y-86275989D01*
G04 #@! TO.C,D15*
X168078211Y-83757241D02*
X167728211Y-83151023D01*
X167872549Y-83067690D01*
X167975818Y-83046557D01*
X168066886Y-83070959D01*
X168129087Y-83112027D01*
X168224621Y-83210831D01*
X168274621Y-83297433D01*
X168312421Y-83429570D01*
X168316886Y-83503972D01*
X168292485Y-83595040D01*
X168222549Y-83673908D01*
X168078211Y-83757241D01*
X169001972Y-83223908D02*
X168655562Y-83423908D01*
X168828767Y-83323908D02*
X168478767Y-82717690D01*
X168471032Y-82837626D01*
X168446630Y-82928694D01*
X168405562Y-82990895D01*
X169200454Y-82301023D02*
X168911779Y-82467690D01*
X169049578Y-82773032D01*
X169061779Y-82727497D01*
X169102848Y-82665297D01*
X169247185Y-82581963D01*
X169321587Y-82577497D01*
X169367121Y-82589698D01*
X169429322Y-82630767D01*
X169512655Y-82775104D01*
X169517121Y-82849506D01*
X169504920Y-82895040D01*
X169463852Y-82957241D01*
X169319514Y-83040574D01*
X169245113Y-83045040D01*
X169199578Y-83032839D01*
G04 #@! TO.C,D16*
X166580351Y-81465803D02*
X166374523Y-80796747D01*
X166533822Y-80747741D01*
X166639202Y-80750196D01*
X166722525Y-80794313D01*
X166773987Y-80848232D01*
X166845052Y-80965869D01*
X166874456Y-81061449D01*
X166881802Y-81198689D01*
X166869545Y-81272210D01*
X166825428Y-81355532D01*
X166739650Y-81416796D01*
X166580351Y-81465803D01*
X167599864Y-81152160D02*
X167217547Y-81269776D01*
X167408705Y-81210968D02*
X167202877Y-80541913D01*
X167168561Y-80657094D01*
X167124445Y-80740417D01*
X167070526Y-80791879D01*
X167967511Y-80306680D02*
X167840072Y-80345886D01*
X167786154Y-80397348D01*
X167764096Y-80439009D01*
X167729780Y-80554191D01*
X167737126Y-80691432D01*
X167815537Y-80946310D01*
X167866999Y-81000228D01*
X167908660Y-81022286D01*
X167982181Y-81034543D01*
X168109620Y-80995338D01*
X168163538Y-80943876D01*
X168185597Y-80902214D01*
X168197854Y-80828694D01*
X168148847Y-80669395D01*
X168097385Y-80615477D01*
X168055723Y-80593418D01*
X167982203Y-80581161D01*
X167854763Y-80620366D01*
X167800845Y-80671829D01*
X167778787Y-80713490D01*
X167766530Y-80787011D01*
G04 #@! TO.C,D17*
X165692428Y-78953737D02*
X165639943Y-78255707D01*
X165806141Y-78243211D01*
X165908359Y-78268952D01*
X165979836Y-78330433D01*
X166018074Y-78394412D01*
X166061311Y-78524871D01*
X166068809Y-78624590D01*
X166045566Y-78760047D01*
X166017326Y-78829025D01*
X165955845Y-78900503D01*
X165858626Y-78941240D01*
X165692428Y-78953737D01*
X166756093Y-78873759D02*
X166357218Y-78903751D01*
X166556656Y-78888755D02*
X166504170Y-78190726D01*
X166445189Y-78295443D01*
X166383709Y-78366920D01*
X166319729Y-78405158D01*
X166936284Y-78158235D02*
X167401637Y-78123245D01*
X167154967Y-78843768D01*
G04 #@! TO.C,D18*
X165382864Y-76150547D02*
X165487538Y-75458417D01*
X165652331Y-75483340D01*
X165746222Y-75531252D01*
X165802170Y-75607138D01*
X165825160Y-75678040D01*
X165838180Y-75814858D01*
X165823227Y-75913734D01*
X165770330Y-76040584D01*
X165727403Y-76101516D01*
X165651517Y-76157464D01*
X165547656Y-76175469D01*
X165382864Y-76150547D01*
X166437537Y-76310051D02*
X166042035Y-76250237D01*
X166239786Y-76280144D02*
X166344461Y-75588014D01*
X166263590Y-75676921D01*
X166187704Y-75732869D01*
X166116802Y-75755859D01*
X166892854Y-75974363D02*
X166831921Y-75931435D01*
X166803947Y-75893492D01*
X166780958Y-75822590D01*
X166785942Y-75789632D01*
X166828870Y-75728699D01*
X166866813Y-75700725D01*
X166937714Y-75677736D01*
X167069549Y-75697674D01*
X167130481Y-75740601D01*
X167158455Y-75778544D01*
X167181445Y-75849446D01*
X167176460Y-75882405D01*
X167133533Y-75943337D01*
X167095590Y-75971311D01*
X167024688Y-75994301D01*
X166892854Y-75974363D01*
X166821952Y-75997352D01*
X166784009Y-76025326D01*
X166741082Y-76086259D01*
X166721144Y-76218093D01*
X166744133Y-76288995D01*
X166772107Y-76326938D01*
X166833040Y-76369865D01*
X166964874Y-76389803D01*
X167035776Y-76366814D01*
X167073719Y-76338840D01*
X167116646Y-76277907D01*
X167136584Y-76146073D01*
X167113595Y-76075171D01*
X167085621Y-76037228D01*
X167024688Y-75994301D01*
G04 #@! TO.C,D19*
X165663233Y-73254699D02*
X165918646Y-72602960D01*
X166073822Y-72663772D01*
X166154765Y-72731295D01*
X166192511Y-72817691D01*
X166199221Y-72891924D01*
X166181606Y-73028227D01*
X166145118Y-73121333D01*
X166065433Y-73233311D01*
X166010072Y-73283219D01*
X165923677Y-73320964D01*
X165818409Y-73315511D01*
X165663233Y-73254699D01*
X166656359Y-73643900D02*
X166283937Y-73497950D01*
X166470148Y-73570925D02*
X166725562Y-72919186D01*
X166627003Y-72987967D01*
X166540608Y-73025712D01*
X166466375Y-73032422D01*
X166966711Y-73765526D02*
X167090852Y-73814176D01*
X167165085Y-73807466D01*
X167208282Y-73788594D01*
X167306840Y-73719813D01*
X167386526Y-73607835D01*
X167483826Y-73359553D01*
X167477116Y-73285320D01*
X167458244Y-73242123D01*
X167408336Y-73186762D01*
X167284195Y-73138112D01*
X167209962Y-73144822D01*
X167166764Y-73163695D01*
X167111404Y-73213603D01*
X167050591Y-73368779D01*
X167057301Y-73443012D01*
X167076174Y-73486209D01*
X167126082Y-73541570D01*
X167250223Y-73590220D01*
X167324455Y-73583510D01*
X167367653Y-73564637D01*
X167423014Y-73514729D01*
G04 #@! TO.C,D20*
X166612514Y-70694080D02*
X167006982Y-70115811D01*
X167144665Y-70209732D01*
X167208491Y-70293622D01*
X167225996Y-70386263D01*
X167215964Y-70460121D01*
X167168364Y-70589051D01*
X167112011Y-70671661D01*
X167009338Y-70763023D01*
X166944233Y-70799312D01*
X166851591Y-70816817D01*
X166750197Y-70788001D01*
X166612514Y-70694080D01*
X167520146Y-70546569D02*
X167566467Y-70537816D01*
X167640324Y-70547848D01*
X167778007Y-70641769D01*
X167814296Y-70706874D01*
X167823049Y-70753195D01*
X167813017Y-70827052D01*
X167775449Y-70882125D01*
X167691559Y-70945951D01*
X167135710Y-71050980D01*
X167493686Y-71295175D01*
X168246130Y-70961100D02*
X168301203Y-70998669D01*
X168337492Y-71063774D01*
X168346244Y-71110095D01*
X168336213Y-71183952D01*
X168288612Y-71312883D01*
X168194691Y-71450566D01*
X168092018Y-71541928D01*
X168026913Y-71578217D01*
X167980592Y-71586969D01*
X167906735Y-71576938D01*
X167851661Y-71539369D01*
X167815372Y-71474264D01*
X167806620Y-71427943D01*
X167816652Y-71354086D01*
X167864252Y-71225155D01*
X167958173Y-71087472D01*
X168060846Y-70996110D01*
X168125951Y-70959821D01*
X168172272Y-70951069D01*
X168246130Y-70961100D01*
G04 #@! TO.C,D22*
X170242758Y-66478211D02*
X170848976Y-66128211D01*
X170932309Y-66272549D01*
X170953442Y-66375818D01*
X170929040Y-66466886D01*
X170887972Y-66529087D01*
X170789168Y-66624621D01*
X170702566Y-66674621D01*
X170570429Y-66712421D01*
X170496027Y-66716886D01*
X170404959Y-66692485D01*
X170326091Y-66622549D01*
X170242758Y-66478211D01*
X171124574Y-66738895D02*
X171170108Y-66751096D01*
X171232309Y-66792164D01*
X171315643Y-66936502D01*
X171320108Y-67010903D01*
X171307908Y-67056437D01*
X171266839Y-67118638D01*
X171209104Y-67151972D01*
X171105835Y-67173104D01*
X170559425Y-67026694D01*
X170776091Y-67401972D01*
X171457908Y-67316245D02*
X171503442Y-67328446D01*
X171565643Y-67369514D01*
X171648976Y-67513852D01*
X171653442Y-67588254D01*
X171641241Y-67633788D01*
X171600173Y-67695989D01*
X171542437Y-67729322D01*
X171439168Y-67750454D01*
X170892758Y-67604044D01*
X171109425Y-67979322D01*
G04 #@! TO.C,D23*
X172534196Y-64980351D02*
X173203252Y-64774523D01*
X173252258Y-64933822D01*
X173249803Y-65039202D01*
X173205686Y-65122525D01*
X173151767Y-65173987D01*
X173034130Y-65245052D01*
X172938550Y-65274456D01*
X172801310Y-65281802D01*
X172727789Y-65269545D01*
X172644467Y-65225428D01*
X172583203Y-65139650D01*
X172534196Y-64980351D01*
X173335559Y-65431321D02*
X173377220Y-65453379D01*
X173428682Y-65507298D01*
X173477689Y-65666596D01*
X173465432Y-65740117D01*
X173443374Y-65781778D01*
X173389455Y-65833241D01*
X173325736Y-65852844D01*
X173220355Y-65850388D01*
X172720422Y-65585687D01*
X172847839Y-65999864D01*
X173585504Y-66017054D02*
X173712921Y-66431231D01*
X173389434Y-66286623D01*
X173418838Y-66382203D01*
X173406581Y-66455723D01*
X173384522Y-66497385D01*
X173330604Y-66548847D01*
X173171305Y-66597854D01*
X173097785Y-66585597D01*
X173056123Y-66563538D01*
X173004661Y-66509620D01*
X172945853Y-66318461D01*
X172958110Y-66244941D01*
X172980168Y-66203279D01*
G04 #@! TO.C,D24*
X175299547Y-64073383D02*
X175997577Y-64020898D01*
X176010073Y-64187096D01*
X175984332Y-64289314D01*
X175922851Y-64360791D01*
X175858872Y-64399029D01*
X175728413Y-64442266D01*
X175628694Y-64449764D01*
X175493237Y-64426521D01*
X175424259Y-64398281D01*
X175352781Y-64336800D01*
X175312044Y-64239581D01*
X175299547Y-64073383D01*
X175981084Y-64690687D02*
X176016822Y-64721427D01*
X176055061Y-64785407D01*
X176067557Y-64951604D01*
X176039316Y-65020583D01*
X176008576Y-65056322D01*
X175944596Y-65094560D01*
X175878117Y-65099558D01*
X175775899Y-65073817D01*
X175347034Y-64704934D01*
X175379525Y-65137048D01*
X175889865Y-65700369D02*
X175424512Y-65735359D01*
X176143284Y-65514177D02*
X175632195Y-65385469D01*
X175664686Y-65817582D01*
G04 #@! TO.C,D25*
X178473872Y-65530142D02*
X177781742Y-65425468D01*
X177806665Y-65260675D01*
X177854577Y-65166784D01*
X177930463Y-65110836D01*
X178001365Y-65087846D01*
X178138183Y-65074826D01*
X178237059Y-65089779D01*
X178363909Y-65142676D01*
X178424841Y-65185603D01*
X178480789Y-65261489D01*
X178498794Y-65365350D01*
X178473872Y-65530142D01*
X177947349Y-64776266D02*
X177919375Y-64738323D01*
X177896386Y-64667421D01*
X177921308Y-64502628D01*
X177964236Y-64441696D01*
X178002179Y-64413722D01*
X178073081Y-64390732D01*
X178138998Y-64400701D01*
X178232889Y-64448613D01*
X178568577Y-64903930D01*
X178633376Y-64475469D01*
X178035952Y-63744582D02*
X177986107Y-64074167D01*
X178310708Y-64156971D01*
X178282734Y-64119028D01*
X178259745Y-64048126D01*
X178284667Y-63883333D01*
X178327595Y-63822401D01*
X178365538Y-63794427D01*
X178436439Y-63771437D01*
X178601232Y-63796360D01*
X178662165Y-63839287D01*
X178690139Y-63877230D01*
X178713128Y-63948132D01*
X178688206Y-64112925D01*
X178645278Y-64173857D01*
X178607335Y-64201831D01*
G04 #@! TO.C,D26*
X180714679Y-65877116D02*
X180062940Y-65621703D01*
X180123752Y-65466527D01*
X180191275Y-65385584D01*
X180277671Y-65347838D01*
X180351904Y-65341128D01*
X180488207Y-65358743D01*
X180581313Y-65395231D01*
X180693291Y-65474916D01*
X180743199Y-65530277D01*
X180780944Y-65616672D01*
X180775491Y-65721940D01*
X180714679Y-65877116D01*
X180368261Y-65025324D02*
X180349388Y-64982126D01*
X180342678Y-64907893D01*
X180403491Y-64752717D01*
X180458851Y-64702809D01*
X180502049Y-64683937D01*
X180576282Y-64677227D01*
X180638353Y-64701552D01*
X180719296Y-64769075D01*
X180945767Y-65287448D01*
X181103880Y-64883990D01*
X180671067Y-64069943D02*
X180622417Y-64194084D01*
X180629127Y-64268317D01*
X180648000Y-64311514D01*
X180716780Y-64410072D01*
X180828759Y-64489758D01*
X181077040Y-64587058D01*
X181151273Y-64580348D01*
X181194471Y-64561476D01*
X181249831Y-64511568D01*
X181298481Y-64387427D01*
X181291771Y-64313194D01*
X181272899Y-64269996D01*
X181222991Y-64214636D01*
X181067815Y-64153823D01*
X180993582Y-64160533D01*
X180950384Y-64179406D01*
X180895024Y-64229314D01*
X180846374Y-64353454D01*
X180853084Y-64427687D01*
X180871956Y-64470885D01*
X180921864Y-64526245D01*
G04 #@! TO.C,D27*
X183120704Y-66726622D02*
X182542435Y-66332154D01*
X182636356Y-66194471D01*
X182720246Y-66130645D01*
X182812887Y-66113140D01*
X182886745Y-66123172D01*
X183015675Y-66170772D01*
X183098285Y-66227125D01*
X183189647Y-66329798D01*
X183225936Y-66394903D01*
X183243441Y-66487545D01*
X183214625Y-66588939D01*
X183120704Y-66726622D01*
X182973193Y-65818990D02*
X182964440Y-65772669D01*
X182974472Y-65698812D01*
X183068393Y-65561129D01*
X183133498Y-65524840D01*
X183179819Y-65516087D01*
X183253676Y-65526119D01*
X183308749Y-65563687D01*
X183372575Y-65647577D01*
X183477604Y-66203426D01*
X183721799Y-65845450D01*
X183275019Y-65258226D02*
X183537998Y-64872713D01*
X183947209Y-65515011D01*
G04 #@! TO.C,R1*
X194193333Y-74611666D02*
X193960000Y-74278333D01*
X193793333Y-74611666D02*
X193793333Y-73911666D01*
X194060000Y-73911666D01*
X194126666Y-73945000D01*
X194160000Y-73978333D01*
X194193333Y-74045000D01*
X194193333Y-74145000D01*
X194160000Y-74211666D01*
X194126666Y-74245000D01*
X194060000Y-74278333D01*
X193793333Y-74278333D01*
X194860000Y-74611666D02*
X194460000Y-74611666D01*
X194660000Y-74611666D02*
X194660000Y-73911666D01*
X194593333Y-74011666D01*
X194526666Y-74078333D01*
X194460000Y-74111666D01*
X193926666Y-77721666D02*
X193993333Y-77721666D01*
X194060000Y-77755000D01*
X194093333Y-77788333D01*
X194126666Y-77855000D01*
X194160000Y-77988333D01*
X194160000Y-78155000D01*
X194126666Y-78288333D01*
X194093333Y-78355000D01*
X194060000Y-78388333D01*
X193993333Y-78421666D01*
X193926666Y-78421666D01*
X193860000Y-78388333D01*
X193826666Y-78355000D01*
X193793333Y-78288333D01*
X193760000Y-78155000D01*
X193760000Y-77988333D01*
X193793333Y-77855000D01*
X193826666Y-77788333D01*
X193860000Y-77755000D01*
X193926666Y-77721666D01*
X194860000Y-78421666D02*
X194626666Y-78088333D01*
X194460000Y-78421666D02*
X194460000Y-77721666D01*
X194726666Y-77721666D01*
X194793333Y-77755000D01*
X194826666Y-77788333D01*
X194860000Y-77855000D01*
X194860000Y-77955000D01*
X194826666Y-78021666D01*
X194793333Y-78055000D01*
X194726666Y-78088333D01*
X194460000Y-78088333D01*
G04 #@! TO.C,D7*
X186106323Y-83657081D02*
X186619103Y-83180576D01*
X186732556Y-83302666D01*
X186776210Y-83398611D01*
X186772755Y-83492829D01*
X186746610Y-83562629D01*
X186671628Y-83677809D01*
X186598374Y-83745882D01*
X186478011Y-83812226D01*
X186406484Y-83833189D01*
X186312266Y-83829735D01*
X186219776Y-83779171D01*
X186106323Y-83657081D01*
X187050226Y-83644520D02*
X187367896Y-83986373D01*
X186650899Y-84243115D01*
G04 #@! TO.C,D14*
X169772900Y-85900585D02*
X169296395Y-85387805D01*
X169418486Y-85274352D01*
X169514431Y-85230698D01*
X169608648Y-85234152D01*
X169678448Y-85260298D01*
X169793628Y-85335280D01*
X169861701Y-85408534D01*
X169928045Y-85528897D01*
X169949009Y-85600424D01*
X169945554Y-85694641D01*
X169894990Y-85787132D01*
X169772900Y-85900585D01*
X170554279Y-85174483D02*
X170261262Y-85446771D01*
X170407770Y-85310627D02*
X169931266Y-84797847D01*
X169950501Y-84916483D01*
X169947047Y-85010700D01*
X169920901Y-85080500D01*
X170676135Y-84424197D02*
X170993804Y-84766050D01*
X170372519Y-84342306D02*
X170590789Y-84822031D01*
X170908224Y-84527052D01*
G04 #@! TO.C,D21*
X172276016Y-68751900D02*
X172788796Y-68275395D01*
X172902249Y-68397486D01*
X172945903Y-68493431D01*
X172942449Y-68587648D01*
X172916303Y-68657448D01*
X172841321Y-68772628D01*
X172768067Y-68840701D01*
X172647704Y-68907045D01*
X172576177Y-68928009D01*
X172481960Y-68924554D01*
X172389469Y-68873990D01*
X172276016Y-68751900D01*
X173193774Y-68809138D02*
X173240882Y-68810866D01*
X173310682Y-68837011D01*
X173424135Y-68959102D01*
X173445099Y-69030629D01*
X173443371Y-69077737D01*
X173417226Y-69147537D01*
X173368390Y-69192918D01*
X173272445Y-69236572D01*
X172707139Y-69215843D01*
X173002118Y-69533279D01*
X173455932Y-70021641D02*
X173183644Y-69728624D01*
X173319788Y-69875132D02*
X173832568Y-69398627D01*
X173713932Y-69417863D01*
X173619715Y-69414409D01*
X173549915Y-69388263D01*
G04 #@! TO.C,D28*
X185012900Y-68120583D02*
X184536395Y-67607803D01*
X184658486Y-67494350D01*
X184754431Y-67450696D01*
X184848648Y-67454150D01*
X184918448Y-67480296D01*
X185033628Y-67555278D01*
X185101701Y-67628532D01*
X185168045Y-67748895D01*
X185189009Y-67820422D01*
X185185554Y-67914639D01*
X185134990Y-68007130D01*
X185012900Y-68120583D01*
X185070138Y-67202825D02*
X185071866Y-67155717D01*
X185098011Y-67085917D01*
X185220102Y-66972464D01*
X185291629Y-66951500D01*
X185338737Y-66953228D01*
X185408537Y-66979373D01*
X185453918Y-67028209D01*
X185497572Y-67124154D01*
X185476843Y-67689460D01*
X185794279Y-67394481D01*
X185815008Y-66829175D02*
X185743481Y-66850139D01*
X185696372Y-66848411D01*
X185626572Y-66822266D01*
X185603882Y-66797848D01*
X185582918Y-66726321D01*
X185584646Y-66679212D01*
X185610791Y-66609413D01*
X185708464Y-66518650D01*
X185779991Y-66497686D01*
X185827099Y-66499414D01*
X185896899Y-66525559D01*
X185919590Y-66549977D01*
X185940553Y-66621504D01*
X185938825Y-66668613D01*
X185912680Y-66738413D01*
X185815008Y-66829175D01*
X185788862Y-66898975D01*
X185787135Y-66946084D01*
X185808098Y-67017611D01*
X185898861Y-67115283D01*
X185968660Y-67141428D01*
X186015769Y-67143156D01*
X186087296Y-67122193D01*
X186184968Y-67031430D01*
X186211114Y-66961630D01*
X186212841Y-66914521D01*
X186191878Y-66842995D01*
X186101115Y-66745322D01*
X186031316Y-66719177D01*
X185984207Y-66717449D01*
X185912680Y-66738413D01*
G04 #@! TD*
M02*
