G04 #@! TF.GenerationSoftware,KiCad,Pcbnew,5.1.7-a382d34a8~87~ubuntu20.04.1*
G04 #@! TF.CreationDate,2020-10-27T16:41:25+00:00*
G04 #@! TF.ProjectId,LEDring,4c454472-696e-4672-9e6b-696361645f70,rev?*
G04 #@! TF.SameCoordinates,Original*
G04 #@! TF.FileFunction,Paste,Top*
G04 #@! TF.FilePolarity,Positive*
%FSLAX46Y46*%
G04 Gerber Fmt 4.6, Leading zero omitted, Abs format (unit mm)*
G04 Created by KiCad (PCBNEW 5.1.7-a382d34a8~87~ubuntu20.04.1) date 2020-10-27 16:41:25*
%MOMM*%
%LPD*%
G01*
G04 APERTURE LIST*
%ADD10R,0.900000X0.800000*%
%ADD11R,0.800000X0.900000*%
%ADD12C,0.100000*%
%ADD13R,2.000000X1.400000*%
%ADD14R,1.400000X2.000000*%
G04 APERTURE END LIST*
D10*
G04 #@! TO.C,Q1*
X188960000Y-88580000D03*
X188960000Y-86680000D03*
X186960000Y-87630000D03*
G04 #@! TD*
G04 #@! TO.C,R2*
G36*
G01*
X189580000Y-85346250D02*
X189580000Y-84833750D01*
G75*
G02*
X189798750Y-84615000I218750J0D01*
G01*
X190236250Y-84615000D01*
G75*
G02*
X190455000Y-84833750I0J-218750D01*
G01*
X190455000Y-85346250D01*
G75*
G02*
X190236250Y-85565000I-218750J0D01*
G01*
X189798750Y-85565000D01*
G75*
G02*
X189580000Y-85346250I0J218750D01*
G01*
G37*
G36*
G01*
X188005000Y-85346250D02*
X188005000Y-84833750D01*
G75*
G02*
X188223750Y-84615000I218750J0D01*
G01*
X188661250Y-84615000D01*
G75*
G02*
X188880000Y-84833750I0J-218750D01*
G01*
X188880000Y-85346250D01*
G75*
G02*
X188661250Y-85565000I-218750J0D01*
G01*
X188223750Y-85565000D01*
G75*
G02*
X188005000Y-85346250I0J218750D01*
G01*
G37*
G04 #@! TD*
G04 #@! TO.C,R4*
G36*
G01*
X190995000Y-69225000D02*
X190995000Y-70475000D01*
G75*
G02*
X190745000Y-70725000I-250000J0D01*
G01*
X189995000Y-70725000D01*
G75*
G02*
X189745000Y-70475000I0J250000D01*
G01*
X189745000Y-69225000D01*
G75*
G02*
X189995000Y-68975000I250000J0D01*
G01*
X190745000Y-68975000D01*
G75*
G02*
X190995000Y-69225000I0J-250000D01*
G01*
G37*
G36*
G01*
X193795000Y-69225000D02*
X193795000Y-70475000D01*
G75*
G02*
X193545000Y-70725000I-250000J0D01*
G01*
X192795000Y-70725000D01*
G75*
G02*
X192545000Y-70475000I0J250000D01*
G01*
X192545000Y-69225000D01*
G75*
G02*
X192795000Y-68975000I250000J0D01*
G01*
X193545000Y-68975000D01*
G75*
G02*
X193795000Y-69225000I0J-250000D01*
G01*
G37*
G04 #@! TD*
G04 #@! TO.C,R6*
G36*
G01*
X184775000Y-92195000D02*
X183525000Y-92195000D01*
G75*
G02*
X183275000Y-91945000I0J250000D01*
G01*
X183275000Y-91195000D01*
G75*
G02*
X183525000Y-90945000I250000J0D01*
G01*
X184775000Y-90945000D01*
G75*
G02*
X185025000Y-91195000I0J-250000D01*
G01*
X185025000Y-91945000D01*
G75*
G02*
X184775000Y-92195000I-250000J0D01*
G01*
G37*
G36*
G01*
X184775000Y-89395000D02*
X183525000Y-89395000D01*
G75*
G02*
X183275000Y-89145000I0J250000D01*
G01*
X183275000Y-88395000D01*
G75*
G02*
X183525000Y-88145000I250000J0D01*
G01*
X184775000Y-88145000D01*
G75*
G02*
X185025000Y-88395000I0J-250000D01*
G01*
X185025000Y-89145000D01*
G75*
G02*
X184775000Y-89395000I-250000J0D01*
G01*
G37*
G04 #@! TD*
G04 #@! TO.C,R8*
G36*
G01*
X164605000Y-83175000D02*
X164605000Y-81925000D01*
G75*
G02*
X164855000Y-81675000I250000J0D01*
G01*
X165605000Y-81675000D01*
G75*
G02*
X165855000Y-81925000I0J-250000D01*
G01*
X165855000Y-83175000D01*
G75*
G02*
X165605000Y-83425000I-250000J0D01*
G01*
X164855000Y-83425000D01*
G75*
G02*
X164605000Y-83175000I0J250000D01*
G01*
G37*
G36*
G01*
X161805000Y-83175000D02*
X161805000Y-81925000D01*
G75*
G02*
X162055000Y-81675000I250000J0D01*
G01*
X162805000Y-81675000D01*
G75*
G02*
X163055000Y-81925000I0J-250000D01*
G01*
X163055000Y-83175000D01*
G75*
G02*
X162805000Y-83425000I-250000J0D01*
G01*
X162055000Y-83425000D01*
G75*
G02*
X161805000Y-83175000I0J250000D01*
G01*
G37*
G04 #@! TD*
G04 #@! TO.C,R10*
G36*
G01*
X170825000Y-60075000D02*
X172075000Y-60075000D01*
G75*
G02*
X172325000Y-60325000I0J-250000D01*
G01*
X172325000Y-61075000D01*
G75*
G02*
X172075000Y-61325000I-250000J0D01*
G01*
X170825000Y-61325000D01*
G75*
G02*
X170575000Y-61075000I0J250000D01*
G01*
X170575000Y-60325000D01*
G75*
G02*
X170825000Y-60075000I250000J0D01*
G01*
G37*
G36*
G01*
X170825000Y-62875000D02*
X172075000Y-62875000D01*
G75*
G02*
X172325000Y-63125000I0J-250000D01*
G01*
X172325000Y-63875000D01*
G75*
G02*
X172075000Y-64125000I-250000J0D01*
G01*
X170825000Y-64125000D01*
G75*
G02*
X170575000Y-63875000I0J250000D01*
G01*
X170575000Y-63125000D01*
G75*
G02*
X170825000Y-62875000I250000J0D01*
G01*
G37*
G04 #@! TD*
G04 #@! TO.C,C1*
G36*
G01*
X193795000Y-81925000D02*
X193795000Y-83175000D01*
G75*
G02*
X193545000Y-83425000I-250000J0D01*
G01*
X192795000Y-83425000D01*
G75*
G02*
X192545000Y-83175000I0J250000D01*
G01*
X192545000Y-81925000D01*
G75*
G02*
X192795000Y-81675000I250000J0D01*
G01*
X193545000Y-81675000D01*
G75*
G02*
X193795000Y-81925000I0J-250000D01*
G01*
G37*
G36*
G01*
X190995000Y-81925000D02*
X190995000Y-83175000D01*
G75*
G02*
X190745000Y-83425000I-250000J0D01*
G01*
X189995000Y-83425000D01*
G75*
G02*
X189745000Y-83175000I0J250000D01*
G01*
X189745000Y-81925000D01*
G75*
G02*
X189995000Y-81675000I250000J0D01*
G01*
X190745000Y-81675000D01*
G75*
G02*
X190995000Y-81925000I0J-250000D01*
G01*
G37*
G04 #@! TD*
G04 #@! TO.C,C2*
G36*
G01*
X172075000Y-89395000D02*
X170825000Y-89395000D01*
G75*
G02*
X170575000Y-89145000I0J250000D01*
G01*
X170575000Y-88395000D01*
G75*
G02*
X170825000Y-88145000I250000J0D01*
G01*
X172075000Y-88145000D01*
G75*
G02*
X172325000Y-88395000I0J-250000D01*
G01*
X172325000Y-89145000D01*
G75*
G02*
X172075000Y-89395000I-250000J0D01*
G01*
G37*
G36*
G01*
X172075000Y-92195000D02*
X170825000Y-92195000D01*
G75*
G02*
X170575000Y-91945000I0J250000D01*
G01*
X170575000Y-91195000D01*
G75*
G02*
X170825000Y-90945000I250000J0D01*
G01*
X172075000Y-90945000D01*
G75*
G02*
X172325000Y-91195000I0J-250000D01*
G01*
X172325000Y-91945000D01*
G75*
G02*
X172075000Y-92195000I-250000J0D01*
G01*
G37*
G04 #@! TD*
G04 #@! TO.C,C3*
G36*
G01*
X161805000Y-70475000D02*
X161805000Y-69225000D01*
G75*
G02*
X162055000Y-68975000I250000J0D01*
G01*
X162805000Y-68975000D01*
G75*
G02*
X163055000Y-69225000I0J-250000D01*
G01*
X163055000Y-70475000D01*
G75*
G02*
X162805000Y-70725000I-250000J0D01*
G01*
X162055000Y-70725000D01*
G75*
G02*
X161805000Y-70475000I0J250000D01*
G01*
G37*
G36*
G01*
X164605000Y-70475000D02*
X164605000Y-69225000D01*
G75*
G02*
X164855000Y-68975000I250000J0D01*
G01*
X165605000Y-68975000D01*
G75*
G02*
X165855000Y-69225000I0J-250000D01*
G01*
X165855000Y-70475000D01*
G75*
G02*
X165605000Y-70725000I-250000J0D01*
G01*
X164855000Y-70725000D01*
G75*
G02*
X164605000Y-70475000I0J250000D01*
G01*
G37*
G04 #@! TD*
G04 #@! TO.C,C4*
G36*
G01*
X183525000Y-62875000D02*
X184775000Y-62875000D01*
G75*
G02*
X185025000Y-63125000I0J-250000D01*
G01*
X185025000Y-63875000D01*
G75*
G02*
X184775000Y-64125000I-250000J0D01*
G01*
X183525000Y-64125000D01*
G75*
G02*
X183275000Y-63875000I0J250000D01*
G01*
X183275000Y-63125000D01*
G75*
G02*
X183525000Y-62875000I250000J0D01*
G01*
G37*
G36*
G01*
X183525000Y-60075000D02*
X184775000Y-60075000D01*
G75*
G02*
X185025000Y-60325000I0J-250000D01*
G01*
X185025000Y-61075000D01*
G75*
G02*
X184775000Y-61325000I-250000J0D01*
G01*
X183525000Y-61325000D01*
G75*
G02*
X183275000Y-61075000I0J250000D01*
G01*
X183275000Y-60325000D01*
G75*
G02*
X183525000Y-60075000I250000J0D01*
G01*
G37*
G04 #@! TD*
G04 #@! TO.C,J1*
G36*
G01*
X200045000Y-71620000D02*
X200045000Y-70620000D01*
G75*
G02*
X200545000Y-70120000I500000J0D01*
G01*
X202545000Y-70120000D01*
G75*
G02*
X203045000Y-70620000I0J-500000D01*
G01*
X203045000Y-71620000D01*
G75*
G02*
X202545000Y-72120000I-500000J0D01*
G01*
X200545000Y-72120000D01*
G75*
G02*
X200045000Y-71620000I0J500000D01*
G01*
G37*
G36*
G01*
X200045000Y-76700000D02*
X200045000Y-75700000D01*
G75*
G02*
X200545000Y-75200000I500000J0D01*
G01*
X202545000Y-75200000D01*
G75*
G02*
X203045000Y-75700000I0J-500000D01*
G01*
X203045000Y-76700000D01*
G75*
G02*
X202545000Y-77200000I-500000J0D01*
G01*
X200545000Y-77200000D01*
G75*
G02*
X200045000Y-76700000I0J500000D01*
G01*
G37*
G36*
G01*
X203355000Y-74160000D02*
X203355000Y-73160000D01*
G75*
G02*
X203855000Y-72660000I500000J0D01*
G01*
X205855000Y-72660000D01*
G75*
G02*
X206355000Y-73160000I0J-500000D01*
G01*
X206355000Y-74160000D01*
G75*
G02*
X205855000Y-74660000I-500000J0D01*
G01*
X203855000Y-74660000D01*
G75*
G02*
X203355000Y-74160000I0J500000D01*
G01*
G37*
G36*
G01*
X203355000Y-79240000D02*
X203355000Y-78240000D01*
G75*
G02*
X203855000Y-77740000I500000J0D01*
G01*
X205855000Y-77740000D01*
G75*
G02*
X206355000Y-78240000I0J-500000D01*
G01*
X206355000Y-79240000D01*
G75*
G02*
X205855000Y-79740000I-500000J0D01*
G01*
X203855000Y-79740000D01*
G75*
G02*
X203355000Y-79240000I0J500000D01*
G01*
G37*
G04 #@! TD*
D11*
G04 #@! TO.C,Q2*
X166370000Y-85360000D03*
X167320000Y-87360000D03*
X165420000Y-87360000D03*
G04 #@! TD*
D10*
G04 #@! TO.C,Q3*
X168640000Y-64770000D03*
X166640000Y-65720000D03*
X166640000Y-63820000D03*
G04 #@! TD*
D11*
G04 #@! TO.C,Q4*
X190180000Y-65040000D03*
X188280000Y-65040000D03*
X189230000Y-67040000D03*
G04 #@! TD*
G04 #@! TO.C,R3*
G36*
G01*
X193815000Y-88255000D02*
X193815000Y-87005000D01*
G75*
G02*
X194065000Y-86755000I250000J0D01*
G01*
X194815000Y-86755000D01*
G75*
G02*
X195065000Y-87005000I0J-250000D01*
G01*
X195065000Y-88255000D01*
G75*
G02*
X194815000Y-88505000I-250000J0D01*
G01*
X194065000Y-88505000D01*
G75*
G02*
X193815000Y-88255000I0J250000D01*
G01*
G37*
G36*
G01*
X191015000Y-88255000D02*
X191015000Y-87005000D01*
G75*
G02*
X191265000Y-86755000I250000J0D01*
G01*
X192015000Y-86755000D01*
G75*
G02*
X192265000Y-87005000I0J-250000D01*
G01*
X192265000Y-88255000D01*
G75*
G02*
X192015000Y-88505000I-250000J0D01*
G01*
X191265000Y-88505000D01*
G75*
G02*
X191015000Y-88255000I0J250000D01*
G01*
G37*
G04 #@! TD*
G04 #@! TO.C,R5*
G36*
G01*
X165745000Y-89415000D02*
X166995000Y-89415000D01*
G75*
G02*
X167245000Y-89665000I0J-250000D01*
G01*
X167245000Y-90415000D01*
G75*
G02*
X166995000Y-90665000I-250000J0D01*
G01*
X165745000Y-90665000D01*
G75*
G02*
X165495000Y-90415000I0J250000D01*
G01*
X165495000Y-89665000D01*
G75*
G02*
X165745000Y-89415000I250000J0D01*
G01*
G37*
G36*
G01*
X165745000Y-92215000D02*
X166995000Y-92215000D01*
G75*
G02*
X167245000Y-92465000I0J-250000D01*
G01*
X167245000Y-93215000D01*
G75*
G02*
X166995000Y-93465000I-250000J0D01*
G01*
X165745000Y-93465000D01*
G75*
G02*
X165495000Y-93215000I0J250000D01*
G01*
X165495000Y-92465000D01*
G75*
G02*
X165745000Y-92215000I250000J0D01*
G01*
G37*
G04 #@! TD*
G04 #@! TO.C,R7*
G36*
G01*
X161785000Y-64145000D02*
X161785000Y-65395000D01*
G75*
G02*
X161535000Y-65645000I-250000J0D01*
G01*
X160785000Y-65645000D01*
G75*
G02*
X160535000Y-65395000I0J250000D01*
G01*
X160535000Y-64145000D01*
G75*
G02*
X160785000Y-63895000I250000J0D01*
G01*
X161535000Y-63895000D01*
G75*
G02*
X161785000Y-64145000I0J-250000D01*
G01*
G37*
G36*
G01*
X164585000Y-64145000D02*
X164585000Y-65395000D01*
G75*
G02*
X164335000Y-65645000I-250000J0D01*
G01*
X163585000Y-65645000D01*
G75*
G02*
X163335000Y-65395000I0J250000D01*
G01*
X163335000Y-64145000D01*
G75*
G02*
X163585000Y-63895000I250000J0D01*
G01*
X164335000Y-63895000D01*
G75*
G02*
X164585000Y-64145000I0J-250000D01*
G01*
G37*
G04 #@! TD*
G04 #@! TO.C,R9*
G36*
G01*
X189855000Y-62985000D02*
X188605000Y-62985000D01*
G75*
G02*
X188355000Y-62735000I0J250000D01*
G01*
X188355000Y-61985000D01*
G75*
G02*
X188605000Y-61735000I250000J0D01*
G01*
X189855000Y-61735000D01*
G75*
G02*
X190105000Y-61985000I0J-250000D01*
G01*
X190105000Y-62735000D01*
G75*
G02*
X189855000Y-62985000I-250000J0D01*
G01*
G37*
G36*
G01*
X189855000Y-60185000D02*
X188605000Y-60185000D01*
G75*
G02*
X188355000Y-59935000I0J250000D01*
G01*
X188355000Y-59185000D01*
G75*
G02*
X188605000Y-58935000I250000J0D01*
G01*
X189855000Y-58935000D01*
G75*
G02*
X190105000Y-59185000I0J-250000D01*
G01*
X190105000Y-59935000D01*
G75*
G02*
X189855000Y-60185000I-250000J0D01*
G01*
G37*
G04 #@! TD*
D12*
G04 #@! TO.C,D1*
G36*
X187243313Y-71556218D02*
G01*
X186543313Y-70343782D01*
X188275363Y-69343782D01*
X188975363Y-70556218D01*
X187243313Y-71556218D01*
G37*
G36*
X184645237Y-73056218D02*
G01*
X183945237Y-71843782D01*
X185677287Y-70843782D01*
X186377287Y-72056218D01*
X184645237Y-73056218D01*
G37*
G04 #@! TD*
G04 #@! TO.C,D2*
G36*
X189692941Y-72288604D02*
G01*
X190055288Y-73640900D01*
X188123437Y-74158538D01*
X187761090Y-72806242D01*
X189692941Y-72288604D01*
G37*
G36*
X186795163Y-73065062D02*
G01*
X187157510Y-74417358D01*
X185225659Y-74934996D01*
X184863312Y-73582700D01*
X186795163Y-73065062D01*
G37*
G04 #@! TD*
D13*
G04 #@! TO.C,D3*
X189300000Y-76200000D03*
X186300000Y-76200000D03*
G04 #@! TD*
D12*
G04 #@! TO.C,D4*
G36*
X190055288Y-78759100D02*
G01*
X189692941Y-80111396D01*
X187761090Y-79593758D01*
X188123437Y-78241462D01*
X190055288Y-78759100D01*
G37*
G36*
X187157510Y-77982642D02*
G01*
X186795163Y-79334938D01*
X184863312Y-78817300D01*
X185225659Y-77465004D01*
X187157510Y-77982642D01*
G37*
G04 #@! TD*
G04 #@! TO.C,D5*
G36*
X186543313Y-82056218D02*
G01*
X187243313Y-80843782D01*
X188975363Y-81843782D01*
X188275363Y-83056218D01*
X186543313Y-82056218D01*
G37*
G36*
X183945237Y-80556218D02*
G01*
X184645237Y-79343782D01*
X186377287Y-80343782D01*
X185677287Y-81556218D01*
X183945237Y-80556218D01*
G37*
G04 #@! TD*
G04 #@! TO.C,D6*
G36*
X187133842Y-84543792D02*
G01*
X186143892Y-85533742D01*
X184729678Y-84119528D01*
X185719628Y-83129578D01*
X187133842Y-84543792D01*
G37*
G36*
X185012522Y-82422472D02*
G01*
X184022572Y-83412422D01*
X182608358Y-81998208D01*
X183598308Y-81008258D01*
X185012522Y-82422472D01*
G37*
G04 #@! TD*
G04 #@! TO.C,D7*
G36*
X182443782Y-85643313D02*
G01*
X183656218Y-84943313D01*
X184656218Y-86675363D01*
X183443782Y-87375363D01*
X182443782Y-85643313D01*
G37*
G36*
X180943782Y-83045237D02*
G01*
X182156218Y-82345237D01*
X183156218Y-84077287D01*
X181943782Y-84777287D01*
X180943782Y-83045237D01*
G37*
G04 #@! TD*
G04 #@! TO.C,D8*
G36*
X181711396Y-88092941D02*
G01*
X180359100Y-88455288D01*
X179841462Y-86523437D01*
X181193758Y-86161090D01*
X181711396Y-88092941D01*
G37*
G36*
X180934938Y-85195163D02*
G01*
X179582642Y-85557510D01*
X179065004Y-83625659D01*
X180417300Y-83263312D01*
X180934938Y-85195163D01*
G37*
G04 #@! TD*
D14*
G04 #@! TO.C,D9*
X177800000Y-87700000D03*
X177800000Y-84700000D03*
G04 #@! TD*
D12*
G04 #@! TO.C,D10*
G36*
X175240900Y-88455288D02*
G01*
X173888604Y-88092941D01*
X174406242Y-86161090D01*
X175758538Y-86523437D01*
X175240900Y-88455288D01*
G37*
G36*
X176017358Y-85557510D02*
G01*
X174665062Y-85195163D01*
X175182700Y-83263312D01*
X176534996Y-83625659D01*
X176017358Y-85557510D01*
G37*
G04 #@! TD*
G04 #@! TO.C,D11*
G36*
X171943782Y-84943313D02*
G01*
X173156218Y-85643313D01*
X172156218Y-87375363D01*
X170943782Y-86675363D01*
X171943782Y-84943313D01*
G37*
G36*
X173443782Y-82345237D02*
G01*
X174656218Y-83045237D01*
X173656218Y-84777287D01*
X172443782Y-84077287D01*
X173443782Y-82345237D01*
G37*
G04 #@! TD*
G04 #@! TO.C,D12*
G36*
X169456108Y-85533842D02*
G01*
X168466158Y-84543892D01*
X169880372Y-83129678D01*
X170870322Y-84119628D01*
X169456108Y-85533842D01*
G37*
G36*
X171577428Y-83412522D02*
G01*
X170587478Y-82422572D01*
X172001692Y-81008358D01*
X172991642Y-81998308D01*
X171577428Y-83412522D01*
G37*
G04 #@! TD*
G04 #@! TO.C,D13*
G36*
X168356687Y-80843782D02*
G01*
X169056687Y-82056218D01*
X167324637Y-83056218D01*
X166624637Y-81843782D01*
X168356687Y-80843782D01*
G37*
G36*
X170954763Y-79343782D02*
G01*
X171654763Y-80556218D01*
X169922713Y-81556218D01*
X169222713Y-80343782D01*
X170954763Y-79343782D01*
G37*
G04 #@! TD*
G04 #@! TO.C,D14*
G36*
X165907059Y-80111396D02*
G01*
X165544712Y-78759100D01*
X167476563Y-78241462D01*
X167838910Y-79593758D01*
X165907059Y-80111396D01*
G37*
G36*
X168804837Y-79334938D02*
G01*
X168442490Y-77982642D01*
X170374341Y-77465004D01*
X170736688Y-78817300D01*
X168804837Y-79334938D01*
G37*
G04 #@! TD*
D13*
G04 #@! TO.C,D15*
X166300000Y-76200000D03*
X169300000Y-76200000D03*
G04 #@! TD*
D12*
G04 #@! TO.C,D16*
G36*
X165544712Y-73640900D02*
G01*
X165907059Y-72288604D01*
X167838910Y-72806242D01*
X167476563Y-74158538D01*
X165544712Y-73640900D01*
G37*
G36*
X168442490Y-74417358D02*
G01*
X168804837Y-73065062D01*
X170736688Y-73582700D01*
X170374341Y-74934996D01*
X168442490Y-74417358D01*
G37*
G04 #@! TD*
G04 #@! TO.C,D17*
G36*
X169056687Y-70343782D02*
G01*
X168356687Y-71556218D01*
X166624637Y-70556218D01*
X167324637Y-69343782D01*
X169056687Y-70343782D01*
G37*
G36*
X171654763Y-71843782D02*
G01*
X170954763Y-73056218D01*
X169222713Y-72056218D01*
X169922713Y-70843782D01*
X171654763Y-71843782D01*
G37*
G04 #@! TD*
G04 #@! TO.C,D18*
G36*
X168466158Y-67856108D02*
G01*
X169456108Y-66866158D01*
X170870322Y-68280372D01*
X169880372Y-69270322D01*
X168466158Y-67856108D01*
G37*
G36*
X170587478Y-69977428D02*
G01*
X171577428Y-68987478D01*
X172991642Y-70401692D01*
X172001692Y-71391642D01*
X170587478Y-69977428D01*
G37*
G04 #@! TD*
G04 #@! TO.C,D19*
G36*
X173156218Y-66756687D02*
G01*
X171943782Y-67456687D01*
X170943782Y-65724637D01*
X172156218Y-65024637D01*
X173156218Y-66756687D01*
G37*
G36*
X174656218Y-69354763D02*
G01*
X173443782Y-70054763D01*
X172443782Y-68322713D01*
X173656218Y-67622713D01*
X174656218Y-69354763D01*
G37*
G04 #@! TD*
G04 #@! TO.C,D20*
G36*
X173888604Y-64307059D02*
G01*
X175240900Y-63944712D01*
X175758538Y-65876563D01*
X174406242Y-66238910D01*
X173888604Y-64307059D01*
G37*
G36*
X174665062Y-67204837D02*
G01*
X176017358Y-66842490D01*
X176534996Y-68774341D01*
X175182700Y-69136688D01*
X174665062Y-67204837D01*
G37*
G04 #@! TD*
D14*
G04 #@! TO.C,D21*
X177800000Y-64700000D03*
X177800000Y-67700000D03*
G04 #@! TD*
D12*
G04 #@! TO.C,D22*
G36*
X180359100Y-63944712D02*
G01*
X181711396Y-64307059D01*
X181193758Y-66238910D01*
X179841462Y-65876563D01*
X180359100Y-63944712D01*
G37*
G36*
X179582642Y-66842490D02*
G01*
X180934938Y-67204837D01*
X180417300Y-69136688D01*
X179065004Y-68774341D01*
X179582642Y-66842490D01*
G37*
G04 #@! TD*
G04 #@! TO.C,D23*
G36*
X183656218Y-67456687D02*
G01*
X182443782Y-66756687D01*
X183443782Y-65024637D01*
X184656218Y-65724637D01*
X183656218Y-67456687D01*
G37*
G36*
X182156218Y-70054763D02*
G01*
X180943782Y-69354763D01*
X181943782Y-67622713D01*
X183156218Y-68322713D01*
X182156218Y-70054763D01*
G37*
G04 #@! TD*
G04 #@! TO.C,D24*
G36*
X186143892Y-66866158D02*
G01*
X187133842Y-67856108D01*
X185719628Y-69270322D01*
X184729678Y-68280372D01*
X186143892Y-66866158D01*
G37*
G36*
X184022572Y-68987478D02*
G01*
X185012522Y-69977428D01*
X183598308Y-71391642D01*
X182608358Y-70401692D01*
X184022572Y-68987478D01*
G37*
G04 #@! TD*
G04 #@! TO.C,R1*
G36*
G01*
X196335000Y-75575000D02*
X196335000Y-76825000D01*
G75*
G02*
X196085000Y-77075000I-250000J0D01*
G01*
X195335000Y-77075000D01*
G75*
G02*
X195085000Y-76825000I0J250000D01*
G01*
X195085000Y-75575000D01*
G75*
G02*
X195335000Y-75325000I250000J0D01*
G01*
X196085000Y-75325000D01*
G75*
G02*
X196335000Y-75575000I0J-250000D01*
G01*
G37*
G36*
G01*
X193535000Y-75575000D02*
X193535000Y-76825000D01*
G75*
G02*
X193285000Y-77075000I-250000J0D01*
G01*
X192535000Y-77075000D01*
G75*
G02*
X192285000Y-76825000I0J250000D01*
G01*
X192285000Y-75575000D01*
G75*
G02*
X192535000Y-75325000I250000J0D01*
G01*
X193285000Y-75325000D01*
G75*
G02*
X193535000Y-75575000I0J-250000D01*
G01*
G37*
G04 #@! TD*
M02*
